/* XPM */
static char *_538dcd3bb9d425b8dfaa027e40fd802NkX60SvGQbjEhM8f[] = {
/* columns rows colors chars-per-pixel */
"64 64 202 2 ",
"   c None",
".  c #201E30",
"X  c #201F30",
"o  c #211F30",
"O  c #2A2332",
"+  c #2E2834",
"@  c #21273A",
"#  c #252A3C",
"$  c #2E2B38",
"%  c #292C3C",
"&  c #3D2D36",
"*  c #422B36",
"=  c #432E37",
"-  c #443137",
";  c #453038",
":  c #473239",
">  c #48353A",
",  c #49393C",
"<  c #49383D",
"1  c #4B3B3D",
"2  c #483C3E",
"3  c #493C3E",
"4  c #4C3E3F",
"5  c #623F3E",
"6  c #23394F",
"7  c #243F56",
"8  c #2F4154",
"9  c #24425A",
"0  c #28455B",
"q  c #2F4A5E",
"w  c #304354",
"e  c #3B4755",
"r  c #314A5C",
"t  c #334D60",
"y  c #374F60",
"u  c #3F5361",
"i  c #2A5F7B",
"p  c #315C74",
"a  c #32657E",
"s  c #4D4142",
"d  c #4F4345",
"f  c #494348",
"g  c #494549",
"h  c #504647",
"j  c #554846",
"k  c #514949",
"l  c #534B4E",
"z  c #564C4D",
"x  c #404856",
"c  c #40505E",
"v  c #4A565E",
"b  c #644441",
"n  c #764B44",
"m  c #7C4E45",
"M  c #6D564B",
"N  c #77544E",
"B  c #435562",
"V  c #565F62",
"C  c #854442",
"Z  c #894D46",
"A  c #8E5248",
"S  c #98574A",
"D  c #935A4B",
"F  c #A25348",
"G  c #A75048",
"H  c #A85349",
"J  c #AA554A",
"K  c #AB594C",
"L  c #AC5B4C",
"P  c #AC5C4E",
"I  c #AE5E4E",
"U  c #B05F4E",
"Y  c #97634F",
"T  c #896B54",
"R  c #9B6B57",
"E  c #9A6D56",
"W  c #96775B",
"Q  c #9F7559",
"!  c #AF614F",
"~  c #B1624F",
"^  c #A06852",
"/  c #B36450",
"(  c #B56952",
")  c #B76D54",
"_  c #B56D56",
"`  c #B86F55",
"'  c #A37E5E",
"]  c #BB7457",
"[  c #BE7A5A",
"{  c #BC7A5C",
"}  c #BF7F5E",
"|  c #978066",
" . c #9B8267",
".. c #9B8B78",
"X. c #99917B",
"o. c #A78666",
"O. c #AE8662",
"+. c #BB8460",
"@. c #AB8D70",
"#. c #AF9675",
"$. c #A3927D",
"%. c #BF9B74",
"&. c #B39E7D",
"*. c #C0815F",
"=. c #C2835F",
"-. c #C38661",
";. c #C38863",
":. c #C68B67",
">. c #C68D66",
",. c #C99267",
"<. c #C4966A",
"1. c #CA9569",
"2. c #CC976B",
"3. c #CC986B",
"4. c #CD9B6C",
"5. c #CF9E6E",
"6. c #D0A070",
"7. c #D1A374",
"8. c #D2A675",
"9. c #D6AE7D",
"0. c #D8B07F",
"q. c #286E8F",
"w. c #366780",
"e. c #297395",
"r. c #2D799B",
"t. c #327391",
"y. c #357894",
"u. c #417084",
"i. c #4D7686",
"p. c #597B87",
"a. c #2B88AF",
"s. c #3691B3",
"d. c #3094BB",
"f. c #379ABE",
"g. c #3B9CBF",
"h. c #4B879C",
"j. c #508B9E",
"k. c #4E8EA3",
"l. c #4C90A7",
"z. c #5891A1",
"x. c #6F98A1",
"c. c #4DA2BC",
"v. c #74A0A9",
"b. c #39ABD3",
"n. c #32AEDB",
"m. c #3AB4DE",
"M. c #3EB7DF",
"N. c #4EAAC7",
"B. c #59AAC0",
"V. c #5AB3CB",
"C. c #5DB6CC",
"Z. c #50BCDC",
"A. c #65B0C2",
"S. c #61B8CD",
"D. c #7DBBC5",
"F. c #42B9E0",
"G. c #47B9E0",
"H. c #4ABCE1",
"J. c #49BFE4",
"K. c #53BFE2",
"L. c #59BEE2",
"P. c #51C5E6",
"I. c #5DC0E2",
"U. c #5BC4E0",
"Y. c #5CCDEB",
"T. c #63C0E3",
"R. c #67CDE4",
"E. c #60D0EC",
"W. c #68D3EC",
"Q. c #68D6EF",
"!. c #73D3E6",
"~. c #78D4ED",
"^. c #7FD8E8",
"/. c #6CD9F1",
"(. c #70DAF1",
"). c #75DBF1",
"_. c #78DEF2",
"`. c #7CE0F3",
"'. c #C2A887",
"]. c #D6AD80",
"[. c #DAB685",
"{. c #DCB887",
"}. c #E0C08F",
"|. c #E2C694",
" X c #89C1C7",
".X c #81C7D1",
"XX c #85C8D2",
"oX c #80DEF0",
"OX c #81E1F3",
"+X c #87E0F3",
"@X c #8BE2F4",
"#X c #90E2F4",
"$X c #9CE5F2",
"%X c #90E9F6",
"&X c #9CEFF7",
"*X c #AFE3F3",
"=X c #BBE8F4",
"-X c #BEEEF8",
";X c #ABF1F8",
":X c #CBEAF5",
">X c #CAF4FA",
",X c #DAF5FB",
/* pixels */
"                                                                                                                                ",
"                                                                                                                                ",
"                                                                                                                                ",
"                                                                                                                                ",
"                                                                                                                                ",
"                                                                                                                                ",
"                                                                                                                                ",
"                                                                                                                                ",
"                                                . . . . . . . . . . . . . . . . . . . . . .                                     ",
"                                                c B B u y t t t t t t t t t t t t y u B B c                                     ",
"                                        . . . c v. X XD.A.B.B.B.B.B.B.B.B.B.B.B.B.A.D. X Xv.c .                                 ",
"                                        c u y i..X&X&X%X_././././././././././././._.%X&X&XXXp.c                                 ",
"                                    . c v.D.A.S.!.`.`._.(././././././././././././.(._.`.`.^.XXv.c .                             ",
"                                    c p.XX%X_.Q.E.U.V.B.B.B.B.B.B.B.B.B.B.B.B.B.B.B.B.B.B.A.D.x.e .                             ",
"                                . c v.XX^._.(.E.J.g.w.t t t t t t t t t t t t t t t t t t y u e % .                             ",
"                                c p.XX%X_.Q.E.Z.f.t.x ; * = , 4 4 4 4 4 4 s h h s s h k k h s 4 4 2                             ",
"                            . c v.XX^._.(.E.J.f.i x N A C Z E ' ' ' ' ' ' o.#.#.o.o.#.&.&.#.o.' ' T 2 .                         ",
"                            . B  X&X`.Q.E.Z.f.t.x 5 S ~ P _ >.5.5.5.5.5.5.8.[.{.9.9.{.}.|.}.0.8.6.O.M 2                         ",
"                            . B  X&X`.E.J.f.i x N S F P { >.3.5.5.5.5.5.5.6.8.9.{.{.9.0.}.|.}.[.8.<.O.T 2 .                     ",
"                            r i..X%X_.Y.M.a.9 ; D / G P ;.5.5.5.5.5.5.5.5.5.5.8.[.{.9.9.{.}.|.}.0.8.6.' 4 .                     ",
"                        . r k.S.!._.(.Y.M.a.9 ; D / G P ;.5.5.5.5.5.5.5.5.5.5.6.8.9.{.{.9.0.}.|.}.[.8.' 4 .                     ",
"                        . 8 h.B.B.B.B.c.s.q.6 ; D / G P ;.5.5.5.5.5.5.5.5.5.5.5.5.8.[.{.9.9.{.}.|.}.0.o.s .                     ",
"                        . # 8 t t t t q 0 6 @ ; D / G P ;.5.5.5.5.5.5.5.5.5.5.5.5.6.8.9.{.{.9.0.}.|.}.#.h .                     ",
"                        - > , s h h s , > & O ; D / G P ;.5.5.5.5.5.5.5.5.5.5.5.5.5.5.8.[.{.9.9.{.}.|.&.k .                     ",
"                    . - m Y Q o.#.#.o.Q Y n & ; D / G P ;.5.5.5.5.5.5.5.5.5.5.5.5.5.5.6.8.9.{.{.9.0.}.&.k .                     ",
"                    . & n Y Q o.#.#.o.Q Y n & ; D / G P ;.5.5.5.5.5.5.5.5.5.5.5.5.5.5.5.5.8.[.{.9.9.{.#.h .                     ",
"                    . O & > , s h h s , > & O ; D / G P ;.5.5.5.5.5.5.5.5.5.5.5.5.5.5.5.5.6.8.9.{.{.9.o.s .                     ",
"                    . . . @ 6 9 9 9 9 9 9 6 @ ; D / G P ;.5.5.5.5.5.5.5.5.5.5.5.5.5.5.5.5.5.5.8.[.{.9.o.s .                     ",
"                        . 6 q.a.a.a.a.a.a.q.6 ; D / G P ;.5.5.5.5.5.5.5.5.5.5.5.5.5.5.5.5.5.5.6.8.9.{.#.h .                     ",
"                        . 9 a.n.m.M.M.m.n.a.9 ; D / G K } 1.4.5.5.5.5.3.>.;.;.;.;.;.;.;.;.>.3.5.5.7.].@.d .                     ",
"                        . 9 a.m.P.Y.Y.P.m.a.9 ; D / G H _ =.1.5.5.5.5.>._ P P P P P P P P _ >.5.5.2.:.R , .                     ",
"                        . 9 a.M.Y././.E.J.f.i x N S F J U ` -.,.,.,.,.=.! G G G G G G G G ! =.,.,.+.^ m - .                     ",
"                        . 9 a.M.Y././.Q.E.Z.f.t.x 5 S U J L ` [ [ [ [ ] ( / / / / / / / / ( ] [ [ ^ b -                         ",
"                        . 7 e.f.Z.E.Q././.E.J.f.i x N A C C A D D D D D D D D D D D D D D D D D D m - .                         ",
"                            7 i f.J.E././.Q.E.Z.f.t.x ; * * ; ; ; ; ; ; ; ; ; ; ; ; ; ; ; ; ; ; ; -                             ",
"                            . 7 e.f.Z.Y.Y.E.Q.E.J.f.i 9 9 9 9 9 9 9 9 9 9 9 9 9 9 9 9 9 9 9 9 6 @ .                             ",
"                                7 i f.M.M.J.E.Q.E.Z.f.a.a.a.a.a.a.a.a.a.a.a.a.a.a.a.a.a.a.a.a.q.6 .                             ",
"                                . 7 e.a.a.g.U././.E.J.M.M.M.M.G.L.T.T.T.T.T.T.I.K.H.F.b.d.a.a.e.7 .                             ",
"                                    7 9 9 w.V././.Q.E.Y.Y.Y.Y.~.*X:X:X:X:X:X:X=X$XoXW.N.a 9 9 7                                 ",
"                                    . . . t B././././././././.+X-X,X,X,X,X,X,X>X;X%X_.B.t . . .                                 ",
"                                        . t B././././././././.).+X#X#X#X#X#X#X@XOX_.(.B.t .                                     ",
"                                        r u.C././././././././././.).+X#X#X@XOX_.(././.C.u.r                                     ",
"                                    . r k.C.R././././././././././.+X-X,X,X>X;X%X_././.R.C.k.r .                                 ",
"                                    r u.C././././././././././././.+X-X,X,X>X;X%X_././././.B.t .                                 ",
"                                . r k.C.R././././././././././././.).+X#X#X@XOX_.(././././.B.t . . .                             ",
"                                r u.C././.Q.E.E.Q././././././././././.(._._.(././././././.B.t @ 6 7                             ",
"                            . r k.C.R././.E.J.J.E././././././././././._.%X%X_././././././.B.t 6 q.e.7 .                         ",
"                            . 8 h.B.B.V.U.Z.f.g.U././././././././././._.%X%X_././././././.B.t w j.j.w .                         ",
"                            . # 8 t t w.g.f.i w.V././././././././././.(._._.(././././././.B.t g X.X.g .                         ",
"                            . $ f z j v y.r.p u.C././././././././././././././././././././.C.u.V  .W 2 .                         ",
"                            . f ..'.%.| v p l.C.R././././././././././././././././././././.R.C.z.V 2 + .                         ",
"                            . l $.'.%.| v w.V././././.R.C.B.B.B.B.B.B.B.B.B.B.B.B.C.R././././.B.t . . .                         ",
"                                l z j v y.g.U././././.C.u.t t t t t t t t t t t t u.C././././.B.t .                             ",
"                                . . . 9 a.M.Y././././.B.t . . . . . . . . . . @ 6 w.V././.Q.E.c.q .                             ",
"                                    . 9 a.M.Y././././.B.t .                 . 6 q.g.U././.E.J.s.0 .                             ",
"                                    . 9 a.M.Y././.R.C.k.r .                 . 9 a.m.P.Y.Y.Z.f.e.7 .                             ",
"                                    . 9 a.M.Y././.C.u.r                     . 9 a.n.m.M.M.f.i 7                                 ",
"                                    . 9 a.M.Y.Q.E.c.q .                     . 7 e.a.a.a.a.e.7 .                                 ",
"                                    . 9 a.M.Y.E.J.s.0 .                         7 9 9 9 9 7                                     ",
"                                    . 9 a.m.P.Z.f.e.7 .                         . . . . . .                                     ",
"                                    . 9 a.n.m.f.i 7                                                                             ",
"                                    . 7 e.a.a.e.7 .                                                                             ",
"                                        7 9 9 7                                                                                 ",
"                                        . . . .                                                                                 "
};
