/* XPM */
static const char *cHVuZW5wZ3Jl_679a6436b07b0[] = {
/* columns rows colors chars-per-pixel */
"32 32 232 2 ",
"   c #1C192C",
".  c #1E1A2D",
"X  c #1F1F31",
"o  c #1C283E",
"O  c #2C212F",
"+  c #2F2431",
"@  c #2D2533",
"#  c #2E2433",
"$  c #312633",
"%  c #302734",
"&  c #312934",
"*  c #322A35",
"=  c #302B36",
"-  c #332B36",
";  c #332D37",
":  c #3F2A34",
">  c #332E3A",
",  c #342D38",
"<  c #342E39",
"1  c #36313C",
"2  c #402D34",
"3  c #44373B",
"4  c #1C2940",
"5  c #1C2B41",
"6  c #1F2B40",
"7  c #1D2C42",
"8  c #1C2C43",
"9  c #1F3C54",
"0  c #232E41",
"q  c #233145",
"w  c #243145",
"e  c #253246",
"r  c #263246",
"t  c #2A3142",
"y  c #2F3346",
"u  c #2B3445",
"i  c #2F3444",
"p  c #2C3446",
"a  c #2C3546",
"s  c #253448",
"d  c #303344",
"f  c #303544",
"g  c #313647",
"h  c #343A48",
"j  c #353C4A",
"k  c #343D4B",
"l  c #383A49",
"z  c #393F4A",
"x  c #37424F",
"c  c #3B404B",
"v  c #3B424D",
"b  c #3C424D",
"n  c #3D444E",
"m  c #3D444F",
"M  c #254259",
"N  c #274259",
"B  c #2A4358",
"V  c #2C465A",
"C  c #2D475B",
"Z  c #2E485C",
"A  c #3D4551",
"S  c #3E4550",
"D  c #3F4852",
"F  c #3F4853",
"G  c #314458",
"H  c #354B5C",
"J  c #364B5C",
"K  c #39495A",
"L  c #3B4C5C",
"P  c #30566D",
"I  c #3C5B6C",
"U  c #31647D",
"Y  c #43444C",
"T  c #404953",
"R  c #404A58",
"E  c #405360",
"W  c #425763",
"Q  c #994C45",
"!  c #875648",
"~  c #895748",
"^  c #94564A",
"/  c #94574A",
"(  c #9D5549",
")  c #96594B",
"_  c #A85147",
"`  c #AB5449",
"'  c #AB5549",
"]  c #AA5649",
"[  c #A45F4C",
"{  c #AF5E4D",
"}  c #9C624E",
"|  c #A4604D",
" . c #A6654F",
".. c #A06B54",
"X. c #A86951",
"o. c #A96A52",
"O. c #A47E5F",
"+. c #B97055",
"@. c #99876E",
"#. c #AC8461",
"$. c #AC8E6D",
"%. c #B58661",
"&. c #BA8F66",
"*. c #BC936A",
"=. c #BE986E",
"-. c #B19776",
";. c #C68C64",
":. c #C78F66",
">. c #C99166",
",. c #CA9367",
"<. c #C89368",
"1. c #CA9468",
"2. c #CA9569",
"3. c #CD996A",
"4. c #CF9D6D",
"5. c #CF9E6D",
"6. c #CF9E6E",
"7. c #D09F6E",
"8. c #C09B72",
"9. c #C4A37C",
"0. c #C6A77E",
"q. c #D1A675",
"w. c #D3A775",
"e. c #D3A776",
"r. c #D7B07E",
"t. c #397E99",
"y. c #257DA2",
"u. c #318AAC",
"i. c #278CB3",
"p. c #288CB3",
"a. c #288DB5",
"s. c #2E90B5",
"d. c #2D93B9",
"f. c #2E92B8",
"g. c #2E94B9",
"h. c #3395B9",
"j. c #3498BB",
"k. c #379ABD",
"l. c #349ABE",
"z. c #389BBD",
"x. c #539EB4",
"c. c #549FB4",
"v. c #7AAFB9",
"b. c #319EC5",
"n. c #309FC8",
"m. c #31A0C8",
"M. c #33A1C8",
"N. c #36A6CD",
"B. c #37A7CD",
"V. c #3AA3C9",
"C. c #38A7CD",
"Z. c #3EAED2",
"A. c #42A4CA",
"S. c #43A5CA",
"D. c #45A5CA",
"F. c #5BB3C9",
"G. c #5EB3C8",
"H. c #5BB5CC",
"J. c #5CB5CC",
"K. c #5CBED6",
"L. c #5CBED7",
"P. c #5DC1DA",
"I. c #67C2D6",
"U. c #61C2D8",
"Y. c #62C3D9",
"T. c #63C3D9",
"R. c #61C2DA",
"E. c #62C5DB",
"W. c #63C5DC",
"Q. c #64C6DC",
"!. c #68C5D9",
"~. c #6AC6D9",
"^. c #6EC6D8",
"/. c #63C8DE",
"(. c #69C8DC",
"). c #6AC8DC",
"_. c #56C8E7",
"`. c #5DCBE7",
"'. c #5CCCE9",
"]. c #5DCDE9",
"[. c #5ECEEA",
"{. c #5DCFEC",
"}. c #5ECFEC",
"|. c #60CEEA",
" X c #63D1EB",
".X c #63D3EE",
"XX c #64D2EC",
"oX c #64D4EE",
"OX c #65D4EE",
"+X c #66D5EF",
"@X c #6BD2EA",
"#X c #69D6ED",
"$X c #6AD7EE",
"%X c #6CD7EF",
"&X c #72D7EF",
"*X c #76DBEF",
"=X c #77DCEF",
"-X c #6AD8F0",
";X c #6BD9F0",
":X c #6CDAF1",
">X c #6DDAF1",
",X c #6EDAF1",
"<X c #72DCF1",
"1X c #76DDF1",
"2X c #7ADDF2",
"3X c #7DDEF2",
"4X c #7EDEF2",
"5X c #B19C81",
"6X c #C9AC83",
"7X c #CAAF86",
"8X c #DCB887",
"9X c #E0C08E",
"0X c #E0C08F",
"qX c #82C4CE",
"wX c #87C6CF",
"eX c #88C7CF",
"rX c #84C7D1",
"tX c #8DD6DE",
"yX c #8ED9E1",
"uX c #83E1F3",
"iX c #86E1F3",
"pX c #8EE2F3",
"aX c #8FE3F4",
"sX c #91EAF6",
"dX c #96E8F4",
"fX c #9EEDF7",
"gX c #C5ECF6",
"hX c #CBEFF7",
"jX c #CDF2F9",
"kX c #D3F0F8",
"lX c #D3F4FA",
"zX c None",
/* pixels */
"zXzXzXzXzXzXzXzXzXzXzXzXzXzXzXzXzXzXzXzXzXzXzXzXzXzXzXzXzXzXzXzX",
"zXzXzXzXzXzXzXzXzXzXzXzXzXzXzXzXzXzXzXzXzXzXzXzXzXzXzXzXzXzXzXzX",
"zXzXzXzXzXzXzXzXzXzXzXzXzXzXzXzXzXzXzXzXzXzXzXzXzXzXzXzXzXzXzXzX",
"zXzXzXzXzXzXzXzXzXzXzXzXzXzXzXzXzXzXzXzXzXzXzXzXzXzXzXzXzXzXzXzX",
"zXzXzXzXzXzXzXzXzXzXzXzXp p r r r r r r r p p zXzXzXzXzXzXzXzXzX",
"zXzXzXzXzXzXzXzXzXzXu J wXtX!.Y.Y.Y.Y.Y.!.tXeXL zXzXzXzXzXzXzXzX",
"zXzXzXzXzXzXzXzXzXL qX).@X).Y.Y.Y.Y.Y.Y.Y.!.^.v.t zXzXzXzXzXzXzX",
"zXzXzXzXzXzXzXzXL rX*X|.z.K l b m m m D A D T Y ; zXzXzXzXzXzXzX",
"zXzXzXzXzXzXzXp eX=X|.k.R / ( %.&.&.*.0.8.6X7X=.#.3 zXzXzXzXzXzX",
"zXzXzXzXzXzXzXJ yX%XB.G ) ] ;.4.7.7.7.q.8Xr.9X9Xq.#.= zXzXzXzXzX",
"zXzXzXzXzXzX0 c.I.K.s.d [ ] 1.7.7.7.7.7.q.8Xr.9X9X=.= zXzXzXzXzX",
"zXzXzXzXzXzX% c D v f $ [ ] 1.7.7.7.7.7.7.q.8Xr.9X7X< zXzXzXzXzX",
"zXzXzXzXzXO ~ O.-.O.! : [ ] 1.7.7.7.7.7.7.7.q.8Xr.6X< zXzXzXzXzX",
"zXzXzXzXzX  @ h x k p $ [ ] 1.7.7.7.7.7.7.7.7.q.8X8.= zXzXzXzXzX",
"zXzXzXzXzXzX4 i.n.n.i.d [ ] ;.4.7.4.1.1.1.1.1.4.q.9.< zXzXzXzXzX",
"zXzXzXzXzXzX8 n.}.}.B.G ) _ +.,.3.,.{ ] ] ] { ,.<...@ zXzXzXzXzX",
"zXzXzXzXzXzX4 g.].;X].k.R / Q  .o.o.| [ [ [ | o.} 2 zXzXzXzXzXzX",
"zXzXzXzXzXzXzX9 k.].oX].k.G y f f f f f f f f d @ zXzXzXzXzXzXzX",
"zXzXzXzXzXzXzXzX9 g.C. X].B.m.m.A.D.D.A.V.b.p.y.o zXzXzXzXzXzXzX",
"zXzXzXzXzXzXzXzXzX4 N E.;XoXoX&XgXkXkXhXdXY.N 4 zXzXzXzXzXzXzXzX",
"zXzXzXzXzXzXzXzXzXzXV W.:X:X:X:X4XpXaXiX1XQ.V zXzXzXzXzXzXzXzXzX",
"zXzXzXzXzXzXzXzXzXV J.$X:X:X:X:X2XjXlXfX<X$XF.r zXzXzXzXzXzXzXzX",
"zXzXzXzXzXzXzXzXV J.$XoX;X:X:X:X:X4XuX1X:X:XY.s o zXzXzXzXzXzXzX",
"zXzXzXzXzXzXzX0 x.Y.`.Z.XX:X:X:X:X<XsX<X:X:XY.B t.4 zXzXzXzXzXzX",
"zXzXzXzXzXzXzXX A E u.U /.:X:X:X:X:X<X:X:X:XW.W @.= zXzXzXzXzXzX",
"zXzXzXzXzXzXzX> 5X$.I H.$X$XW.Y.Y.Y.Y.Y.W.$X$XG.z   zXzXzXzXzXzX",
"zXzXzXzXzXzXzXzX1 k h. X:XW.Z r r r r s P /.;XK.q zXzXzXzXzXzXzX",
"zXzXzXzXzXzXzXzXzX8 m.oX$XF.r zXzXzXzX4 d.].].j.8 zXzXzXzXzXzXzX",
"zXzXzXzXzXzXzXzXzX8 m..XP.V zXzXzXzXzX4 a.n.g.9 zXzXzXzXzXzXzXzX",
"zXzXzXzXzXzXzXzXzX8 n._.j.8 zXzXzXzXzXzX4 8 4 zXzXzXzXzXzXzXzXzX",
"zXzXzXzXzXzXzXzXzX4 a.d.9 zXzXzXzXzXzXzXzXzXzXzXzXzXzXzXzXzXzXzX",
"zXzXzXzXzXzXzXzXzXzX4 4 zXzXzXzXzXzXzXzXzXzXzXzXzXzXzXzXzXzXzXzX"
};
