/* XPM */
static const char *cWJqYXlibnEtZXJmdm1ydWJicS5wYnooMSk__679a6af3ac44f[] = {
/* columns rows colors chars-per-pixel */
"32 32 94 2 ",
"   c #191E3C",
".  c #47133E",
"X  c #4A133B",
"o  c #4A143B",
"O  c #4B143B",
"+  c #4B133C",
"@  c #4B143C",
"#  c #1E105D",
"$  c #3F1344",
"%  c #3C1246",
"&  c #3C1247",
"*  c #30114F",
"=  c #34124C",
"-  c #3C184C",
";  c #261056",
":  c #291155",
">  c #1B2945",
",  c #1F2C46",
"<  c #1A375F",
"1  c #3C2358",
"2  c #3D295D",
"3  c #0F0F69",
"4  c #120F65",
"5  c #120F66",
"6  c #1A0F60",
"7  c #0F146E",
"8  c #1A1566",
"9  c #0F1F79",
"0  c #161E70",
"q  c #1E216E",
"w  c #1B2071",
"e  c #1B2677",
"r  c #10257F",
"t  c #323371",
"y  c #323977",
"u  c #471944",
"i  c #451B48",
"p  c #402355",
"a  c #234C62",
"s  c #274E63",
"d  c #335665",
"f  c #113690",
"g  c #143D91",
"h  c #11419B",
"j  c #2B4B87",
"k  c #204290",
"l  c #1247A1",
"z  c #1E53A4",
"x  c #1652A9",
"c  c #1252AC",
"v  c #1358B2",
"b  c #2153A1",
"n  c #1761AA",
"m  c #1B6CB5",
"M  c #1763BA",
"N  c #1363BD",
"B  c #2E7DB9",
"V  c #1469C3",
"C  c #166FC4",
"Z  c #1A72C4",
"A  c #1C7DC6",
"S  c #39B4B9",
"D  c #3DB6BA",
"F  c #4F96AC",
"G  c #45BBBB",
"H  c #1F84C8",
"J  c #2885C8",
"K  c #2F8ECA",
"L  c #2799CB",
"P  c #2B9BCC",
"I  c #2DA6CE",
"U  c #35BBD2",
"Y  c #38C2D3",
"T  c #3ED0D5",
"R  c #41D7D7",
"E  c #45D9D7",
"W  c #4DDED8",
"Q  c #5AD2D7",
"!  c #62CDC0",
"~  c #65C8C8",
"^  c #6ED4C2",
"/  c #6CD2CA",
"(  c #66D9D9",
")  c #51E1D9",
"_  c #5DE8DB",
"`  c #69E0DA",
"'  c #6DE2DB",
"]  c #65EDDC",
"[  c #71F5DE",
"{  c #75F7DF",
"}  c #7BF5DF",
"|  c #7DFCE0",
" . c #82FFE1",
".. c None",
/* pixels */
"....................@ @ ........................................",
"..................+ @ @ + + @ O ..+ + ..........................",
"................. 1 3 3 3 3 6 & & ..O ..........................",
"............@ ; 6 c c 9 3 3 3 3 4 4 @ + @ O ....................",
"..........O * 9 r v V V V V V f r r r r 2 - O ..................",
"..........: c t y V V V V V V I U U V V U m # & @ ..............",
"........2 V ..p V v 7 r V V L R R R R R R R r 7 & @ O ..........",
"......O ..i p M r 7 r V U U a a a a R ] ] R I v 4 & @ O ........",
"..........p N 9 j / C n                 ! E Y C 9 3 & @ O ......",
"........O q 9 F  ._ < >                 , s ] H c 3 4 & @ ......",
"......@ * 3 0 / [ a                         s P V r 3 3 @ ......",
"......+ 3 3 B  .G >                         , ! I v 3 3 : ......",
"......6 7 v | W                                 Y C 9 3 # ......",
"..O & 3 v V W R                                 R H c 3 4 & O ..",
"..& 3 9 V V R a                                 a R c 6 O @ @ ..",
"O # 3 c V V R a                                 a R c & X O @ ..",
"& 3 r V V V Y a                                 a R ~ 7 @ ..@ ..",
"& 3 v V V V H a                                 a ] ( r @ ......",
"O # c c V V V U                                 E { ( r # @ ....",
"..k 9 9 V V V Q                                 )  .( v # @ ....",
"..@ 6 3 V r H R ^ ,                         > S _ ' r V # @ ....",
"..O . 6 V r g Y _ d                         a R ' Z r V # @ ....",
"....O : 9 N r I R R s ,                 , d T U V r r V # ......",
"..O ..O & w l v L R E !                 D ) A V V r r V # ......",
"..@ ....@ + e r V I U U Y R a a a a R R U m V V V r f r # @ ....",
"..@ O O @ ..u 8 r r V V ` [ ] R R R H H r 7 V V V r v 7 & @ ....",
"..@ @ @ . . ..6 3 3 f V J ( '  .} J 3 3 3 9 V V h 6 X 4 + ......",
"........& 6 6 3 3 3 V V V V Z K J f 3 3 3 c v r 6 . ..= ........",
"..........; w z b b b x 9 c h 3 3 3 3 3 3 3 3 3 : O ..O ..O ....",
"............. . ......& & 6 3 * 3 3 3 3 3 3 3 * O ..O ....@ ....",
"..........................+ @ @ & & # & @ @ @ O O O ............",
"..................................O @ ....@ O .................."
};
