/* XPM */
static char *_86afdc7c5dc4fcd93d817b1683a97e4[] = {
/* columns rows colors chars-per-pixel */
"64 64 227 2 ",
"   c None",
".  c #3B1725",
"X  c #391B26",
"o  c #3C1C29",
"O  c #371F28",
"+  c #391D34",
"@  c #3C242A",
"#  c #3F2B2E",
"$  c #33282B",
"%  c #3C2635",
"&  c #2D3932",
"*  c #3D3B34",
"=  c #343A35",
"-  c #30322F",
";  c #423934",
":  c #413637",
">  c #274D3A",
",  c #2C4B39",
"<  c #2A4437",
"1  c #364236",
"2  c #24533B",
"3  c #255A3B",
"4  c #1D6B3C",
"5  c #1F653C",
"6  c #1B743D",
"7  c #1A7B3D",
"8  c #20613C",
"9  c #29613A",
"0  c #287737",
"q  c #3E3949",
"w  c #3D365C",
"e  c #3C3556",
"r  c #3F2E47",
"t  c #3B3967",
"y  c #373C72",
"u  c #413747",
"i  c #403353",
"p  c #403B58",
"a  c #423D60",
"s  c #2C4945",
"d  c #2C594A",
"f  c #255548",
"g  c #355D54",
"h  c #2F4D54",
"j  c #1B7949",
"k  c #1C7B52",
"l  c #366253",
"z  c #2C704E",
"x  c #25556C",
"c  c #36437E",
"v  c #394577",
"b  c #265775",
"n  c #354568",
"m  c #37666B",
"M  c #2B6C73",
"N  c #444344",
"B  c #424B4C",
"V  c #42455A",
"C  c #48555F",
"Z  c #464965",
"A  c #425661",
"S  c #465667",
"D  c #4B5A7B",
"F  c #456475",
"G  c #45727B",
"H  c #4C6E6B",
"J  c #149D2E",
"K  c #168C36",
"L  c #188439",
"P  c #178838",
"I  c #198934",
"U  c #159333",
"Y  c #149A30",
"T  c #159A39",
"R  c #14A02E",
"E  c #24A53E",
"W  c #189C48",
"Q  c #318655",
"!  c #2CA648",
"~  c #3AA75E",
"^  c #1B906D",
"/  c #3F8A6A",
"(  c #1EA345",
")  c #4F8F7B",
"_  c #51AC7A",
"`  c #364482",
"'  c #324A8E",
"]  c #364E89",
"[  c #36548D",
"{  c #2F4E9E",
"}  c #314B96",
"|  c #314C99",
" . c #275994",
".. c #2D558D",
"X. c #256C8D",
"o. c #2B55A7",
"O. c #2A57B6",
"+. c #2959BD",
"@. c #285AB5",
"#. c #3358A8",
"$. c #2765A7",
"%. c #3A6AB7",
"&. c #3276AD",
"*. c #1E7A80",
"=. c #495986",
"-. c #4C6A88",
";. c #477D85",
":. c #497F8B",
">. c #467588",
",. c #5B7A83",
"<. c #4C7C99",
"1. c #517497",
"2. c #4F6C97",
"3. c #4779B8",
"4. c #4E7CA6",
"5. c #666E9E",
"6. c #275DC4",
"7. c #285CC4",
"8. c #2763C6",
"9. c #2967C7",
"0. c #3367C2",
"q. c #3A6EC1",
"w. c #396CC9",
"e. c #2673CD",
"r. c #2876CA",
"t. c #3B73C4",
"y. c #467AC0",
"u. c #4577C3",
"i. c #1E9B9D",
"p. c #24869F",
"a. c #2092A7",
"s. c #2C92B4",
"d. c #24A0A5",
"f. c #4C8299",
"g. c #5A8B87",
"h. c #6B888D",
"j. c #5285AB",
"k. c #5085A5",
"l. c #4D82BC",
"z. c #558AB5",
"x. c #568BBC",
"c. c #588DBE",
"v. c #5386BA",
"b. c #758EA4",
"n. c #749FAC",
"m. c #6FAB9E",
"M. c #2498CA",
"N. c #248DD6",
"B. c #2584D3",
"V. c #249DD5",
"C. c #2496DA",
"Z. c #249FDE",
"A. c #2A9AD9",
"S. c #3592D3",
"D. c #2BA1DF",
"F. c #26A0DE",
"G. c #2FA1E0",
"H. c #35A3E1",
"J. c #39A6E2",
"K. c #3EA8E2",
"L. c #578CC1",
"P. c #5B93C4",
"I. c #4D8ECF",
"U. c #6595C5",
"Y. c #6998C6",
"T. c #6899CA",
"R. c #789DD2",
"E. c #6D94CD",
"W. c #4CA3D9",
"Q. c #73A7CB",
"!. c #46A6E4",
"~. c #4CABE5",
"^. c #52ACE6",
"/. c #5CABE8",
"(. c #68AEEA",
"). c #62B3E9",
"_. c #6BB7EA",
"`. c #75B0ED",
"'. c #79B9EB",
"]. c #8496B4",
"[. c #888CAB",
"{. c #94AFBE",
"}. c #85C6A0",
"|. c #96A5CE",
" X c #8DAED6",
".X c #85A7D7",
"XX c #95AFDC",
"oX c #99ADE9",
"OX c #81B3F0",
"+X c #8AB6F1",
"@X c #8CBAF1",
"#X c #96B7F4",
"$X c #8DAEE8",
"%X c #A7AEE4",
"&X c #A4B9E3",
"*X c #A6BBF7",
"=X c #ACBBF6",
"-X c #B6BEF9",
";X c #B4BEE1",
":X c #A5B4CF",
">X c #8CC5F0",
",X c #9BC7F3",
"<X c #99C3EA",
"1X c #AEC4E6",
"2X c #B7C7E8",
"3X c #A8C4F6",
"4X c #BEC3FB",
"5X c #B9C8F8",
"6X c #BBD2F8",
"7X c #BBD0E3",
"8X c #B3D0D0",
"9X c #C2D1EF",
"0X c #C9DAE5",
"qX c #D2DBEF",
"wX c #C3C8FB",
"eX c #C8CDFC",
"rX c #CAD1FC",
"tX c #CBDDFA",
"yX c #CBD6F7",
"uX c #D1DBF6",
"iX c #D2D7FD",
"pX c #D5DBFD",
"aX c #D9DCFE",
"sX c #D5D9F5",
"dX c #DDE1FE",
"fX c #D4E0FC",
"gX c #E3E6FF",
/* pixels */
"                                                  R R R R R R R R R R R R X.7.                                                  ",
"                                        R R R R R R R R R R R R R U P P P X.7.7.6.7.7.6.                                        ",
"                                        R R R R R Y U U J Y U U U L 7 j ^ $.7.7.7.7.7.7.                                        ",
"                                  R R R R R R R R K 7 7 Y L 7 7 7 7 7 k M.r.8.8.6.7.7.7.7.7.7.                                  ",
"                              R R R R R R R R R R J K 7 7 7 7 7 7 7 7 k M.C.C.N.8.7.7.7.7.7.7.7.7.                              ",
"                            R R R R R R R R R J K P L 7 7 7 6 8 8 6 7 k M.Z.Z.Z.N.9.7.7.7.7.7.7.7.6.                            ",
"                          R R J U Y R J U U U K 7 7 6 4 4 4 8 2 2 8 4 k M.Z.C.N.Z.B.e.e.6.7.7.7.7.7.6.                          ",
"                        R R R Y 7 K Y Y 7 6 6 6 7 6 5 2 2 d g g g f f x M.Z.B.8.N.Z.Z.C.9.6.7.7.7.7.7.7.                        ",
"                  R R R R R R Y 7 7 7 7 7 5 3 3 6 5 3 2 2 b.%X%X%XG M M.Z.Z.B.6.8.N.Z.Z.C.e.7.7.7.7.7.O.t i i                   ",
"                R R R R R U P L 7 7 4 8 8 g.].b.z 3 2 d b.%X|.,.,.l M Z.Z.Z.C.B.8.&.s.s.V.e.7.7.7.7.7.+.{ y i i                 ",
"                _ ! R J U L 7 7 7 6 z ,.,.|.%Xb.d 2 l h.2XeX:Xh.,.M p.Z.Z.F.Z.C.t.4.<.&.V.e.7.7.7.7.7.7.7.c i i                 ",
"                4Xm.! ! 7 7 7 6 6 z h.4X4X4X].2 g l h.wXdXgXgXdXwX/.Z.Z.Z.F.D.!.T.P.y.8.N.e.7.7.7.7.7.7.7.c i i                 ",
"              gXdXqX0X8XQ 7 4 3 3 b.2XdXdXeX].g |.2XqXdXgXgXgXgXdX_.Z.Z.Z.Z.).tXuX.X3.7.8.6.7.7.7.7.7.7.7.c i Z %X              ",
"            gXgXgXgXaX1XQ 4 H ].].;XaXgXgXaX7X{.yXdXgXgXgXgXgXgXgX3X/.H.>X,X6XgXeX(.B.7.7.7.7.7.7.7.7.+.` ' c Z %X.X            ",
"          gXgXgXgXaX1Xn.j 8 g.eXeXaXgXgXgXgXgXgXgXgXdXiXiXiXaXgXpX,X/.J.tXgXdXrX+X!.S.I.I.w.$.X.X.X.X.X.` ' ' =.%XR.c.          ",
"        gXgXgXgXgXeX{.Q Q z b.gXgXgXgXgXgXgXgXgXgXdXrX*X*X*X5XyX=X^.Z.J.6XtX6X#XH.G.(.-X&XL.*.J L 7 7 j $.v c u.oXR.c.c.        ",
"        gXgXgXgXgXeX5X0X0X0XqXgXgXgXgXgXgXgXgXgXgXrX+XH.H.H.J.J.H.D.Z.F.J.J.J.H.Z.`.=X&X~ W T J J L 7 7 j h 5.oXE.P.c.c.        ",
"      [.sXgXgXgXgXaXaXgXgXiXiXgXgXgXgXgXgXgXgXgXgXeX*XOXOX!.Z.Z.Z.Z.Z.Z.Z.Z.Z.G.`.*XwX7X! R R R R P 7 7 7 z G R.P.c.c.x.:.      ",
"      5.sXgXgXgXgXgXgXgXgXeXeXgXgXgXgXgXgXgXgXgXgXiXwX-X+X!.Z.Z.Z.Z.Z.Z.Z.Z.K.'.5XeX7X}.E R Y U J P 7 7 7 7 z -.-.j.c.z.:.      ",
"      w.6XpXdXdXdXgXgXgXgXrXeXdXdXdXpXtXdXgXgXgXgXfX6X#XH.Z.Z.Z.Z.Z.Z.Z.Z.V.).0X0X0X}.R R R U L Y L 7 7 7 7 9 ; N 1.c.z.:.      ",
"  6.e.C.J.@X4X4X4XpXgXgXgXdXiX4X4X4X@X~.3XpXgXgXgX'.J.H.Z.Z.Z.Z.Z.Z.Z.Z.Z.^ ( ! ! ! E R R R J Y L 7 7 7 7 7 9 N <.z.c.z.:.;.;.  ",
"  7.e.Z.Z.!./././.)._._._.3XwX=X(./.!.H.*XwXeXeXeX).Z.Z.Z.Z.Z.Z.F.F.Z.Z.Z.^ R R R R R R R R R Y 7 7 7 7 7 g.].[.c.c.c.z.:.;.;.  ",
"  7.e.Z.F.F.Z.V.a.a.s././.`.OX`.G.Z.Z.G.`.*X-X-X-X'.!.Z.Z.Z.Z.Z.F.F.F.F.Z.i.W R R R Y U U Y Y K 7 6 4 z ) Q.oXXXU.c.z.k.:.;.;.  ",
"  7.e.Z.F.Z.V.s.k 7 ) %X*X^.Z.Z.Z.Z.Z.Z.Z.`.*X*X*X*X`.Z.Z.Z.Z.Z.F.F.F.F.F.F.i.J J J U 7 7 K K 7 7 5 3 l |.R.c.c.z.z.k.;.;.;.;.  ",
"  7.e.Z.Z.Z.a.k j K 0 C S.D.Z.Z.Z.Z.Z.Z.Z.G.H.H.H.H.G.Z.Z.Z.Z.Z.Z.Z.Z.Z.Z.Z.i.J L U J Y 7 7 7 7 7 6 6 j l <.c.z.f.:.:.;.;.;.;.  ",
"7.7.8.r.C.Z.p.3 I 0 H ].<X@XOX`.G.Z.Z.Z.Z.Z.Z.Z.Z.Z.Z.H.>X^.Z.Z.Z.Z.Z.Z.Z.Z.i.L 7 U Y L 7 7 7 7 7 7 / n.:.j.c.x.j.j.f.;.;.F Z i ",
"7.7.7.8.C.Z.s.m 0 H [.rXgXiX3X`.G.Z.Z.Z.Z.Z.Z.Z.Z.Z.J.(.>X^.Z.Z.Z.Z.Z.Z.Z.Z.i.L 7 K K 7 7 7 6 4 7 / n.=X.XU.c.c.c.c.4.F F V i i ",
"7.7.7.8.N.Z.Z.M.h ].5XtXtXtX>XZ.Z.Z.Z.Z.Z.Z.Z.Z.Z.H.(.*XH.Z.Z.Z.Z.Z.Z.Z.Z.G.d.W L 7 7 6 7 7 4 3 6 n.=X=X=XR.z.j.j.j.-.i i i i i ",
"7.7.7.6.8.N.Z.A.z.XX+XJ.J.J.H.Z.Z.Z.Z.Z.Z.Z.Z.Z.Z.>XeX*XH.Z.Z.Z.Z.Z.Z.Z.Z.`.`.d.W L 4 3 6 7 4 2 3 :.U.U.U.P.1.N N N u i i i i i ",
"7.7.7.7.7.9.B.A.L.oXOXZ.Z.Z.Z.Z.Z.Z.Z.Z.Z.Z.Z.Z.Z.^.).^.D.Z.!.OXOX!.Z.G.`.(.!.V.d.^ 6 4 5 8 3 2 2 g >.c.c.y.[ ; ; ; : i i i i i ",
"7.7.7.7.7.9.B.A.I.$X#X^.D.Z.Z.Z.Z.Z.Z.Z.Z.Z.Z.Z.Z.Z.Z.Z.Z.!.(.OXOX!.Z.H.*X'.!.Z.Z.a.^ 6 3 2 2 2 2 , g 1.z.y.#.n u : u i i i i i ",
"7.7.7.6.8.N.Z.Z.Z.`.=X3X~.D.Z.Z.Z.Z.Z.Z.Z.Z.Z.Z.Z.G.G.Z.Z.OX+XJ.J.D.Z.H.#X5X+XH.Z.Z.a.k 3 3 3 2 , 1 ; N <.j.3.O.t i i i i i i i ",
"7.7.7.8.N.Z.Z.Z.Z.D.'.dXtX).Z.Z.Z.Z.Z.Z.Z.Z.Z.Z.Z.`.`.Z.Z.OX5XtXtX).Z.Z.H.,XrX#XH.Z.V.s.k 6 5 > * ; ; ; N N v O.t i i i i i i i ",
"7.7.7.8.C.Z.^.>XH.Z.K._._.K.Z.Z.Z.Z.Z.Z.Z.Z.Z.G.`.(.!.G.`.5XaXgXgX3X/.H.>XtXdX6XJ.Z.N.&.k 4 3 > * ; ; ; ; ; q v e i i i i i i i ",
"7.7.7.8.C.A.'.fX'.).!.Z.Z.!./././.J.Z.Z.Z.Z.J.(.'.(.).'.5XaXgXgXgXiX3X'.fXgXdX6XJ.N.e.@.M f > , * ; ; ; ; ; q v e i i i i i i i ",
"7.7.7.8.C.I. XgXgXrX+XH.H.+X5X*X*X^.Z.Z.Z.G.(.=X!.+XrXgXgXgXgXgXgXgXgXgXgXgXiX*XH.e.7.6.8.b s * ; ; ; ; q : n o.w i i i i i i i ",
"7.7.7.8.C.I. XgXgXdXrX*X*XrX,XH.H.D.Z.Z.Z.`.5XpX=XrXdXgXgXgXgXgXgXgXgXgXgXgXiX*Xw.6.7.8.N.r..., * ; ; u o.v e w e i i i i i i i ",
"7.7.7.6.e.S.W.XXaXgXdXiXiXdXtX,XOXOX/.G.`.5XaXgXpXdXgXgXgXgXgXgXgXgXgXgXgXgX2XR.y.0.7.6.e.8.@. .' ' ' ] c ' c i i i i i i i i i ",
"7.7.7.7.7.e.S.I.&XuXgXgXgX9X9XdXrXeX3X'.5XaXgXgXgXgXgXgXgXgXgXdX2XuXgXdX2X1X Xc.c.q.7.7.6.6.7.7.7.7.O.} ` #.[ i i i i i i i i i ",
"  7.7.7.7.7.e.A.L.&XuXuXuX.X XgXgXdXdXgXgXgXgXgXgXgXgXgXuXdXdX9XU.&XuX9XU.c.c.c.c.q.7.7.7.6.6.7.O.+.| t O.3.2.i i i i i i i i   ",
"  7.7.7.7.7.6.8.9.L.Y.Y.Y.P. XgXgXrXrXgXgXgXgXgXgXgXgXuXR.2X2XU.c.U.Y.U.c.c.c.c.c.q.7.7.7.7.7.O.y { | a 4.x.2.i i i i i i i i   ",
"  7.7.7.7.7.7.7.7.0.y.x.t.l.Y. X X.X&XgXgXgXgXgXgXgX9X.XW.I.E.c.c.c.c.c.c.c.c.z.m $.7.7.7.7.o.` } %.3.2.x.k.>.S p i i i i i i   ",
"  7.7.7.7.7.7.7.7.7.0.u.7.&.:.-.-.j.R.1X1XuXgXdX2X1X XL.S.r.0.y.y.v.c.c.c.c.j.>.f x  . .%.#.[ =.%.l.c.c.c.f.;.>.S p i i i i i   ",
"  6.7.7.7.7.7.7.7.7.7.7.O.M 3 * ; -.x.c.c.&XuX9XU.c.c.c.c.q.7.7.7.3.j.j.j.j.>.2 2 2 f g <.D =.c.c.c.x.z.z.f.;.;.G Z i i i i i   ",
"      7.7.7.7.7.7.7.7.O.h , 2 , * [ t.c.c.U.Y.U.c.c.c.c.c.q.7.7.7.b d d d d f 2 2 2 m <.u =.z.c.c.c.j.:.:.;.;.G V i i i i       ",
"      7.7.7.7.7.7.7.7.+.} h 1 s ] @.q.c.c.c.c.x.t.q.y.c.c.q.7.@.b f 2 2 2 2 2 2 2 m X.m -.4.c.c.c.c.j.;.;.;.G Z i i i i i       ",
"      7.7.7.7.7.7.7.7.7.7.] n v %.q.y.x.3.y.y.u.7.7.0.y.y.0.7.@.f 2 2 2 2 , , , , >.<.m z.z.j.j.j.j.f.;.F F Z i i i i i i       ",
"        7.7.7.7.7.7.7.7.7.7.7.9.l.x.c.v.0.7.7.7.7.7.7.7.7.7.7.@.f 2 2 2 , 1 ; N ; F z.c.c.f.:.:.;.G G G p i i i i i i i         ",
"        7.7.7.7.7.7.7.7.7.7.7.7.9.3.c.c.v.q.7.7.7.7.7.7.7.7.7.@.f 2 2 > * ; S <.N % Z c.c.x.z.z.:.B r p i i i i i i i i         ",
"          6.7.7.7.7.7.7.7.7.7.7.7.0.y.c.c.l.y.u.7. .x x x o.7.@.f 2 2 > * S D V ; S 1.c.c.c.z.f.;.F S F F V i i i i i           ",
"            6.7.7.7.7.7.7.7.7.7.7.7.0.y.y.y.y.3. .h 2 2 2 x o.O.h > 2 > * -.1.V S <.z.j.x.z.f.;.;.;.G A A V i i i i             ",
"              7.O.+.+.O.7.7.7.7.7.7.7.7.7.7.+.o.f 2 2 2 2 2 x o.w s 2 > N 1.c.c.c.c.j.:.z.f.;.;.;.;.A . . % r r e               ",
"                t { { y O.7.7.7.7.7.6.6.7.6. .f 2 2 2 2 2 2 f f e s 2 d <.z.c.c.c.c.k.;.:.;.;.;.;.;.A . . o o o                 ",
"                i y ` } ` o.o.` +.} } O.y n h 2 2 2 , 1 1 1 , 2 s = & d j.c.c.x.f.f.f.;.;.;.;.;.;.A % . . . . .                 ",
"                i i y } ` ' ' ` } t w ..= & < 2 2 , = # : : = > & - - < >.>.1.k.:.;.;.;.;.F A A A % . . . . . .                 ",
"                  i i w o.y y { e % - > > - - > > = # o : @ $ < $ & & O < = B G G G G G G q . . . . . . . . .                   ",
"                        + + + + o & & O O & & @ * @ @ : o # # $ < - . . O O o % % % % % % o . . . . . .                         ",
"                          . . . . $ $ . . $ $ . @ . @ : . # # . $ O . . . . . . . . . . . . . . . . .                           ",
"                            . . . . . . . . . . . . o # . @ @ . . . . . . . . . . . . . . . . . . .                             ",
"                              . . . . . . . . . . . . . . . . . . . . . . . . . . . . . . . . . .                               ",
"                                  . . . . . . . . . . . . . . . . . . . . . . . . . . . . . .                                   ",
"                                        . . . . . . . . . . . . . . . . . . . . . . . .                                         ",
"                                        . . . . . . . . . . . . . . . . . . . . . . . .                                         ",
"                                                  . . . . . . . . . . . . . .                                                   "
};
