/* XPM */
static char *result[] = {
/* columns rows colors chars-per-pixel */
"64 64 75 1 ",
"  c #000000",
". c #07080B",
"X c #090A0D",
"o c #0C0D12",
"O c #0F1017",
"+ c #0F121A",
"@ c #13151D",
"# c #141721",
"$ c #171A24",
"% c #181C26",
"& c #1B1F29",
"* c #1C202C",
"= c #1F2432",
"- c #20242F",
"; c #212632",
": c #242936",
"> c #252B3D",
", c #282E3F",
"< c #2A303E",
"1 c #272D41",
"2 c #282F43",
"3 c #2A3145",
"4 c #2D344A",
"5 c #30374C",
"6 c #31394E",
"7 c #353D54",
"8 c #383F53",
"9 c #384156",
"0 c #374059",
"q c #3A435C",
"w c #3D4660",
"e c #3F4863",
"r c #40495F",
"t c #414B66",
"y c #444E6A",
"u c #4C5466",
"i c #46506C",
"p c #48536F",
"a c #565D6C",
"s c #4A5572",
"d c #4D5875",
"f c #4F5A78",
"g c #525C75",
"h c #515D7B",
"j c #54607F",
"k c #59637D",
"l c #566282",
"z c #596585",
"x c #5D6986",
"c c #5B6788",
"v c #5E6B8C",
"b c #636D85",
"n c #606E8E",
"m c #66728F",
"M c #6A758F",
"N c #626F91",
"B c #647294",
"V c #6A7695",
"C c #6D7894",
"Z c #677598",
"A c #697799",
"S c #6C7A9B",
"D c #707B97",
"F c #717E9D",
"G c #74809E",
"H c #7B869D",
"J c #7D889F",
"K c #7683A1",
"L c #7A86A3",
"P c #7D89A5",
"I c #808CA7",
"U c #828EA8",
"Y c #8590AA",
"T c #8A95AD",
"R c None",
/* pixels */
"RRR     RRR    R     RR    RR       R      R    RRR          RRR",
"RR$:>:;$RRO%%%@R:>>:*O$:,*@RR@*,:>-$R*,>>*@R:,=$RR$>:*%%:>>:>$RR",
"R >AZZc9X %ttt1ozZZmi%>ZZg<  >fZAZzq.rABZf>OzZl9. :AZfeiBZZZA: R",
" 3dAZZvdo%qzzzi5vZZBz9rAZv7.:ivZAAnh4dAAAvi4nVmdX,dAZfdcZZZZAg4 ",
" rZZZZZc$5jZAZcsBZZZZffZZZy@tzZZZZZBdxZZZZzyNZZv$yZZZhhZZZZZZZr ",
" rZZZZZnqdBZZZBnVAZZZffZZZhqzBZZZZZBnBZZZZziNZZvqjZZZNNZZZZZZZr ",
" 8xZZZZnqjZZZZAAGSZZZiwzBZhqmZZZZZZZZFFZZZhqhnZNqhAZlvZZZZZZZZr ",
" 3hZZZZv4dZZAAZSYGAZZw7pBZd4vZZAAAAAZPPAZZf3wcZv5gZvpcZSAAAAZZr ",
" 9vZZZZvqjZAPPKZxGPGkdhzBlpeBZKPUPUPAvMUPngdznZBhdfflBGPUPUPAZt ",
" yFFFSZNizSGUYPVexHHkmSZZlpeBSPPYYYUKdgHHbbFFFFFFziyBSKYYYYUFSr ",
" aTTTKZNizGYSSGJ6wsfJYPZZBliBLPSSSSSYu7ipCYTTTTTTFliBLPSSSSSYGr ",
" uLPLSct7imKSSSD446wGHGZBle7fZSZZZZSHt376xLPLLLLLzw9gAGZZZZALk3 ",
" rZBBBd1>0fZZZBz51>4vZZBBw>1wzZZZBBBBw1>3gZZZZZBBq>3wzZZZZBBZw% ",
" rvdddy71ivZZlddf77lBZvfde63lBZZZldddfe3dvZZZZvddw63jBZZZlddsf6 ",
" 9htyeew1dBccstizwwZZNleee74vnvvcsttthi3vZZZcchtet93vZZBvpttth9 ",
" 1tttttw1dzyyttte4wZZfepee74vleeyettty04vZZBiyttyy74vZZBpttttt3 ",
" ,tttttw1elleeeee77lllseeew2lldeeeeeee73fllledfeee03dvnfyeyeye2 ",
" ,tttttq17dvpeeee44wwlleew717lleeseeee71weeeelzeyw71qlleeyeeee> ",
" ,tttyq3>17seeew4114wseee71>1weeeseee03>20eeespee71>2epeyeeet:o ",
" %47774>>>40dlfd7111770w71>>>4wwslfffw3>>407007073>>167qdflff*  ",
"  @>11>>11>4cBBne41111111>>>>>14vBBBBd7>>>1>1>>>111>>>>3cBBBB:  ",
"  *psiq>=16dBzlfz717edesssw>>16dBZcllle27essssssspq>>>7dBchlBp: ",
" o5ZZZh413evvfiivw7sBZAZZZl4>2eNNBleezd4ecZZZZABZZf413yvvdtyxBr ",
" 6cZZZBj3ilppzlesesNZZZZZBNl4eldeelnepeevBZZZZABZZBh2ylipyttivr ",
" rBzzzvv3ifeeffyeszZZvzcccnv4eleeesleedlBZNczzcczcvv4ifteyyeyf7 ",
" rztyefv47eyyeyeezZZBleeeelv47eeeseeeelZZZzeeeyeetfv37ttyeeyey1 ",
" 5pteyis37yeeyee6lvllseeeees17eeeeeee7eBhfdeyeeyttis37ttettett, ",
" >ttyew916qqqqq71edweeeeeew016wwewwww37lieeyeyyettw717qtttyet0* ",
" <tttt9211333331>3weeeeeee01114133222116eyeetteytt02:17tttttt=. ",
" $6hhjsteeew1>17eeellsw77ldeeeeee4>14weeffde77efhhdtttq77qihhq* ",
" .<ZZZBBBBBn414iBZBBBl711lBBBBBBZe11ezAABBze21wZZBBBBZh>>qhZABq ",
" 3gZZjddddlBl70vBZvdsle3snBBlsdfBce3lBZBfdhl3ecZZldddvvs3ivZZz5 ",
".eZBvfeeeelNvqwZvvleeli4vnvceeedcce6nnczeelc4lZvvleeszvc4dZvvl1.",
" wceesesellee4wZdiieee04vliieelvde04nleeeeee4eveeeeeNlee2dNeee1 ",
" 7heeeeeellee74eeeeeew42dpeieisleew2eeeeeew41eleeeedleew10eete1 ",
" >eeseeeeeeee4>1wewee4>1weeieeeeee0>3qeeww7>>7qeeeeeeeeq1>4ewq> ",
" o:yeeeeeeee421>444441>12weeeeeee72>1344444>>40edeeeeew4>>134=o ",
" @4dddewweefq007>>>17000000weilsde0004>>100q00edle00efe0q0qqq&. ",
" qBBNBs110lBNNNz4>>2cNNvNw>2wlBBZBnnnw>>1eBNNNZBBw>2elBNNNNNNq$ ",
" rvhlle71evZBzllp66dNZvlle42lNZZZzldlsw1ecZZZZNllw43lnZZZchhhd4 ",
" qlttttw1sBBNlelvqwZZBleyeq4vBNNNleeenl4vZZZZNlett73vZZZNdyeylq ",
" 4pttttw>lcseeeep7wZZlpeey74vlsdeeeeeeq4vZZNleeety74vZZBdyeyei4 ",
" ,tttttw1elseeeee40cllseye72llieeeedee03lczledlett73hNNlyeyett< ",
" <ttttyq>7lvseese66eecceee71wlzedeeeee71weeeellett71wzlteyeytt, ",
" 1tytyq414wleeee7217eleee74>4ydeeeeeew4>4qeeeldet7414ydtttttt3@ ",
" :7qqq71>>4qsele4>>1qwwww41>16wweldee01>>7qqqqqww4>>>7qwippps%  ",
" .$2321>>>27cNccw4>>242231>>1136cNnnBe01>124242431>>>136cvnnn:  ",
"  $ttw7>>>4eNclll727weeeee7>1=4iBZnlzle24qeeeeeeew7>>>4ynvllBt& ",
"  :AZZd>>>wZZdtiNe4iNZZZZZd1>>wZZZceezd1wzZZZZZZZZd11=eZZfyiBZw ",
" ,dAZZvp3wdfflfydeevBZZZZZvy2eddffsyesyqlNZZZZZZZZvi2edffieydve ",
" rBvcvBv3ijyehheeslZZvvvvcnv4ileeyeeeyyfNBBcvcvvvvnv4ileeeyethq ",
" rcyiihv40yeyyyyelBZZliiiylv3wieeeyeyefBZZciiiiiiyhv3wyyeyeyty3 ",
" 7ftttsf37eyeyee7lvzlsyeeesf37eeieyeeqiBzlfettttttsf37yetttttt3 ",
" ,tttteq27eeeeew1sleeyeyyeew17eeeeeee4qvieyettttttew27eetttttw: ",
" >ttttq41244434316eeeyeeeew313444464413qeeeytttttew4137ettttt:o ",
" *9dddy00007112470eddpe7wyyq7q0q73>1470wsfseq0wdddy77q7q0wydd5$ ",
" .,NNBNvvvvl3>4ecvnnNdq21dnvvvvvvw11qlvvNNlw31wNNBnvvvs120dNNv8 ",
" -yZZchjllcNs67lBZnllle2ecZBllllBf73fvZNljld30hZZcjjlvce1tcZZc6 ",
" rZnNdtttyfNNqwZnNltels3vZNvyttsvNs4vNNvytdc3dZNNdttylNc4dZNBd, ",
" rvssyttthlds7wBfsptepw3vlssttdcfsw3vlssytyi2dcssytychsi1dcssy, ",
" 8htttttthhte47fyttttq63hdttttdlyt72dpeettw71ihttttylstw1wsttt, ",
" 3tttttttttty414wtttt412wttttteyyt7127eytt71>0ttttttyytw2>7ttt, ",
"R$***********#++&*&=&#+@%=&&****&*$++%=***$++$*********%@+#***$R",
"R                                                              R"
};
