/* XPM */
static char * character_e_xpm[] = {
"64 64 469 2",
"  	c #755338",
". 	c #704F35",
"+ 	c #674830",
"@ 	c #5D402C",
"# 	c #543927",
"$ 	c #76633A",
"% 	c #7A7D40",
"& 	c #768045",
"* 	c #6D7448",
"= 	c #6A6D4B",
"- 	c #6D6847",
"; 	c #725B3E",
"> 	c #84B24F",
", 	c #78BA59",
"' 	c #5BA161",
") 	c #4F9465",
"! 	c #5A875C",
"~ 	c #7B9E4B",
"{ 	c #7AC05B",
"] 	c #6AC465",
"^ 	c #4BAE6C",
"/ 	c #3EA36F",
"( 	c #43A36E",
"_ 	c #4A9868",
": 	c #617E57",
"< 	c #5FB665",
"[ 	c #41A66E",
"} 	c #53A46A",
"| 	c #419E6D",
"1 	c #7C8843",
"2 	c #89C755",
"3 	c #7ACF61",
"4 	c #50B16B",
"5 	c #4BA06C",
"6 	c #569A6A",
"7 	c #725036",
"8 	c #745237",
"9 	c #7A8742",
"0 	c #88C654",
"a 	c #4C866C",
"b 	c #6C4C33",
"c 	c #64452F",
"d 	c #5C3F2B",
"e 	c #684931",
"f 	c #6F4E35",
"g 	c #695B33",
"h 	c #70783C",
"i 	c #779C49",
"j 	c #79C05B",
"k 	c #6DC464",
"l 	c #53AE6A",
"m 	c #4B9F6B",
"n 	c #559667",
"o 	c #528766",
"p 	c #43726A",
"q 	c #43746B",
"r 	c #538C69",
"s 	c #519966",
"t 	c #627E55",
"u 	c #6F593C",
"v 	c #583C29",
"w 	c #523826",
"x 	c #60432D",
"y 	c #664730",
"z 	c #687539",
"A 	c #7DAF4C",
"B 	c #77BF5A",
"C 	c #5EB565",
"D 	c #58A869",
"E 	c #497863",
"F 	c #406662",
"G 	c #3B5F63",
"H 	c #3C6466",
"I 	c #57A068",
"J 	c #6B6646",
"K 	c #503625",
"L 	c #667F3A",
"M 	c #84C553",
"N 	c #439E6D",
"O 	c #529667",
"P 	c #518162",
"Q 	c #3F605E",
"R 	c #36505B",
"S 	c #37565F",
"T 	c #3A6267",
"U 	c #539A6A",
"V 	c #43A06E",
"W 	c #666B4A",
"X 	c #3D946C",
"Y 	c #417865",
"Z 	c #374D56",
"` 	c #334453",
" .	c #344A57",
"..	c #44856E",
"+.	c #3E996F",
"@.	c #736038",
"#.	c #787C3F",
"$.	c #768640",
"%.	c #72843F",
"&.	c #6A7639",
"*.	c #605530",
"=.	c #5E5330",
"-.	c #606B38",
";.	c #698D42",
">.	c #78B44E",
",.	c #6CB758",
"'.	c #489C61",
").	c #367E61",
"!.	c #345D5B",
"~.	c #324753",
"{.	c #2F3D4C",
"].	c #2E3849",
"^.	c #34525B",
"/.	c #365C61",
"(.	c #376D65",
"_.	c #378465",
":.	c #42865E",
"<.	c #546E4F",
"[.	c #5A5940",
"}.	c #594836",
"|.	c #583E2E",
"1.	c #5B3E2C",
"2.	c #83B14F",
"3.	c #87C654",
"4.	c #80B04D",
"5.	c #6F783B",
"6.	c #666E39",
"7.	c #5A7B3F",
"8.	c #4D703C",
"9.	c #4F763E",
"0.	c #457241",
"a.	c #316145",
"b.	c #294F45",
"c.	c #283C42",
"d.	c #27313E",
"e.	c #262C3B",
"f.	c #25293A",
"g.	c #283642",
"h.	c #293C45",
"i.	c #294547",
"j.	c #295347",
"k.	c #2B5746",
"l.	c #2E5443",
"m.	c #344A3F",
"n.	c #3B3A36",
"o.	c #4A3630",
"p.	c #5F4230",
"q.	c #7B8843",
"r.	c #8BD85B",
"s.	c #83CB57",
"t.	c #78AF4D",
"u.	c #6A773E",
"v.	c #626F47",
"w.	c #54735C",
"x.	c #435562",
"y.	c #3F5361",
"z.	c #374F60",
"A.	c #334D60",
"B.	c #4C5058",
"C.	c #5C4840",
"D.	c #674934",
"E.	c #6D4D35",
"F.	c #649B48",
"G.	c #4D6D3C",
"H.	c #464C35",
"I.	c #505E5A",
"J.	c #75A3A5",
"K.	c #89C1C7",
"L.	c #7DBBC5",
"M.	c #65B0C2",
"N.	c #59AAC0",
"O.	c #749DA5",
"P.	c #4D5158",
"Q.	c #533C34",
"R.	c #6B4C37",
"S.	c #777A3F",
"T.	c #79A34B",
"U.	c #6E9E51",
"V.	c #4D7686",
"W.	c #81C7D1",
"X.	c #9CEFF7",
"Y.	c #90E9F6",
"Z.	c #78DEF2",
"`.	c #6CD9F1",
" +	c #85C8D2",
".+	c #597B87",
"++	c #604B42",
"@+	c #725138",
"#+	c #6C5B38",
"$+	c #565838",
"%+	c #759FA5",
"&+	c #61B8CD",
"*+	c #73D3E6",
"=+	c #7CE0F3",
"-+	c #70DAF1",
";+	c #7FD8E8",
">+	c #68D6EF",
",+	c #60D0EC",
"'+	c #5BC4E0",
")+	c #5AB3CB",
"!+	c #6F98A1",
"~+	c #3B4755",
"{+	c #433232",
"]+	c #684A36",
"^+	c #49BFE4",
"/+	c #3B9CBF",
"(+	c #366780",
"_+	c #292C3C",
":+	c #50BCDC",
"<+	c #379ABE",
"[+	c #327391",
"}+	c #404856",
"|+	c #453038",
"1+	c #422B36",
"2+	c #432E37",
"3+	c #49393C",
"4+	c #4C3E3F",
"5+	c #4D4142",
"6+	c #504647",
"7+	c #514949",
"8+	c #53413D",
"9+	c #614638",
"0+	c #2A5F7B",
"a+	c #77544E",
"b+	c #8E5248",
"c+	c #854442",
"d+	c #894D46",
"e+	c #9A6D56",
"f+	c #A37E5E",
"g+	c #A78666",
"h+	c #AF9675",
"i+	c #B39E7D",
"j+	c #886A53",
"k+	c #623F3E",
"l+	c #98574A",
"m+	c #B1624F",
"n+	c #AE5E4E",
"o+	c #B56D56",
"p+	c #C68D66",
"q+	c #CF9E6E",
"r+	c #D2A675",
"s+	c #DAB685",
"t+	c #DCB887",
"u+	c #D6AE7D",
"v+	c #E0C08F",
"w+	c #E2C694",
"x+	c #D8B07F",
"y+	c #D0A070",
"z+	c #AE8662",
"A+	c #6D564B",
"B+	c #A25348",
"C+	c #BC7A5C",
"D+	c #CC986B",
"E+	c #C4966A",
"F+	c #5E4942",
"G+	c #444C57",
"H+	c #5CCDEB",
"I+	c #3EB7DF",
"J+	c #2B88AF",
"K+	c #24425A",
"L+	c #473239",
"M+	c #935A4B",
"N+	c #B36450",
"O+	c #A75048",
"P+	c #AC5C4E",
"Q+	c #C38863",
"R+	c #518B9F",
"S+	c #2F4154",
"T+	c #4B879C",
"U+	c #4DA2BC",
"V+	c #3691B3",
"W+	c #286E8F",
"X+	c #23394F",
"Y+	c #634634",
"Z+	c #403031",
"`+	c #252A3C",
" @	c #2F4A5E",
".@	c #28455B",
"+@	c #21273A",
"@@	c #644630",
"#@	c #563D32",
"$@	c #4C3636",
"%@	c #48353A",
"&@	c #4B3B3D",
"*@	c #3D2D36",
"=@	c #2A2332",
"-@	c #563B2D",
";@	c #43302E",
">@	c #493435",
",@	c #7A4D44",
"'@	c #97634F",
")@	c #9F7559",
"!@	c #764B44",
"~@	c #4B332A",
"{@	c #33272E",
"]@	c #553A2C",
"^@	c #32282F",
"/@	c #272230",
"(@	c #62432F",
"_@	c #513A30",
":@	c #362A30",
"<@	c #32AEDB",
"[@	c #3AB4DE",
"}@	c #AB594C",
"|@	c #BF7F5E",
"1@	c #CA9569",
"2@	c #CD9B6C",
"3@	c #D1A374",
"4@	c #D6AD80",
"5@	c #AB8D70",
"6@	c #4F4345",
"7@	c #51C5E6",
"8@	c #A85349",
"9@	c #B76D54",
"0@	c #C2835F",
"a@	c #CC976B",
"b@	c #C68B67",
"c@	c #9B6B57",
"d@	c #49383D",
"e@	c #AA554A",
"f@	c #B05F4E",
"g@	c #B86F55",
"h@	c #C38661",
"i@	c #C99267",
"j@	c #C0815F",
"k@	c #AF614F",
"l@	c #BB8460",
"m@	c #A06852",
"n@	c #7C4E44",
"o@	c #503937",
"p@	c #AC5B4C",
"q@	c #BE7A5A",
"r@	c #BB7457",
"s@	c #B56952",
"t@	c #644441",
"u@	c #604437",
"v@	c #3E4351",
"w@	c #327191",
"x@	c #5C473F",
"y@	c #47B9E0",
"z@	c #59BEE2",
"A@	c #63C0E3",
"B@	c #5DC0E2",
"C@	c #53BFE2",
"D@	c #4ABCE1",
"E@	c #42B9E0",
"F@	c #39ABD3",
"G@	c #3094BB",
"H@	c #78D4ED",
"I@	c #AFE3F3",
"J@	c #CBEAF5",
"K@	c #BBE8F4",
"L@	c #9CE5F2",
"M@	c #80DEF0",
"N@	c #68D3EC",
"O@	c #4EAAC7",
"P@	c #32657E",
"Q@	c #417084",
"R@	c #5DB6CC",
"S@	c #87E0F3",
"T@	c #BEEEF8",
"U@	c #DAF5FB",
"V@	c #CAF4FA",
"W@	c #ABF1F8",
"X@	c #3C2E32",
"Y@	c #5C4235",
"Z@	c #67CDE4",
"`@	c #75DBF1",
" #	c #90E2F4",
".#	c #8BE2F4",
"+#	c #81E1F3",
"@#	c #2C2531",
"##	c #6A4B36",
"$#	c #317191",
"%#	c #3C4251",
"&#	c #503A32",
"*#	c #694A33",
"=#	c #664834",
"-#	c #604637",
";#	c #59463F",
">#	c #565F62",
",#	c #5891A1",
"'#	c #357894",
")#	c #4A565E",
"!#	c #56443E",
"~#	c #584134",
"{#	c #5E4130",
"]#	c #4D3831",
"^#	c #58463F",
"/#	c #9C7B5C",
"(#	c #9B8267",
"_#	c #978066",
":#	c #9B7A5C",
"<#	c #53423E",
"[#	c #553C2E",
"}#	c #3C2E30",
"|#	c #554846",
"1#	c #BF9B74",
"2#	c #CDA77C",
"3#	c #7E6C5E",
"4#	c #564C4D",
"5#	c #2D799B",
"6#	c #315C74",
"7#	c #2E2834",
"8#	c #483C3E",
"9#	c #7C6352",
"0#	c #CA9E6F",
"a#	c #BD946A",
"b#	c #554643",
"c#	c #C2A887",
"d#	c #EBCC9F",
"e#	c #D1B895",
"f#	c #4C90A7",
"g#	c #96775B",
"h#	c #E4B279",
"i#	c #5A4C4A",
"j#	c #A18F7A",
"k#	c #C4AF90",
"l#	c #52423D",
"m#	c #42302E",
"n#	c #60473C",
"o#	c #5B4D4A",
"p#	c #574F50",
"q#	c #513B32",
"r#	c #5C402F",
"s#	c #282330",
"t#	c #32272F",
"u#	c #372B30",
"v#	c #4C362E",
"w#	c #4E362B",
"x#	c #654731",
"y#	c #3E2F31",
"z#	c #5B3F30",
"A#	c #604433",
"B#	c #304033",
"C#	c #47693B",
"D#	c #486E40",
"E#	c #385843",
"F#	c #507A3F",
"G#	c #527B3F",
"H#	c #567D40",
"I#	c #52713E",
"J#	c #3B4A36",
"K#	c #413132",
"L#	c #654735",
"M#	c #415036",
"N#	c #6DA049",
"O#	c #79BE55",
"P#	c #70B257",
"Q#	c #7EC455",
"R#	c #89C957",
"S#	c #9ED45D",
"T#	c #8FBD55",
"U#	c #8BCD57",
"V#	c #8ED85B",
"W#	c #8FDE5D",
"X#	c #9BE460",
"Y#	c #B3F067",
"Z#	c #81A44A",
"`#	c #93E05E",
" $	c #7DB650",
".$	c #608B43",
"+$	c #446355",
"@$	c #337491",
"#$	c #798442",
"$$	c #727C40",
"%$	c #606543",
"&$	c #3E4752",
"*$	c #211F30",
"                                                                                            . + @ # # @ + .                     ",
"                                                          $ % & * = = = = - ;               . + @ # # @ + .                     ",
"                                                          % > , ' ) ) ) ) ! -               . + @ # # @ + .                     ",
"                                                      $ % ~ { ] ^ / ( ( / _ : - ;           . + @ # # @ + .                     ",
"                                                      % > { < ^ [ ( } } ( | _ ! -           . + @ # # @ + .                     ",
"                                                      1 2 3 4 / ( 5 6 6 5 ( / ) =           . + @ # # @ + .                     ",
". . . . . . . . . . . . . . . 7 7 8 8 7 7 . . . . . . 9 0 3 4 ( } 6 a a 6 } ( ) =   8 7 7 . b c d # # d c b . . . . . . . . . . ",
"+ + + + + + + + + + + + + + e b f 7 7 f b e + + + g h i j k l m n o p q r 6 5 s t - u f b e c @ v w w v @ c + + + + + + + + + + ",
"@ @ @ @ @ @ @ @ @ @ @ @ @ @ x y b 7 7 b y x @ @ @ z A B C l D n E F G H q a 6 I s ! J b y x d v # K K # v d @ @ @ @ @ @ @ @ @ @ ",
"# # # # # # # # # # # # # # v x e . . e x v # # # L M 3 4 N O P Q R R S T q r U V ) W e x v # w K K K K w # # # # # # # # # # # ",
"# # # # # # # # # # # # # # v x e . . e x v # # # L M 3 4 X Y Q Z ` `  .S H q ..+.) W e x v # # # # # # # # # # # # # # # # # # ",
"@ @ @ @ @ @ @ @ @ @ @ @ @ @ x y b @.#.$.%.&.*.=.-.;.>.,.'.).!.~.{.].].{.~.^./.(._.:.<.[.}.|.1.@ @ @ @ @ @ @ @ @ @ @ @ @ @ @ @ @ ",
"+ + + + + + + + + + + + + + e b f #.2.0 3.4.5.6.7.8.9.0.a.b.c.d.e.f.f.e.d.g.h.i.j.k.l.m.n.o.p.+ + + + + + + + + + + + + + + + + ",
". . . . . . . . . . . . . . . 7 7 q.2 r.s.t.u.v.w.x.x.y.z.A.A.A.A.A.A.A.A.A.A.A.A.z.y.x.x.B.C.D.E.. . . . . . . . . . . . . . . ",
"                                  1 2 s.F.G.H.I.J.K.K.L.M.N.N.N.N.N.N.N.N.N.N.N.N.M.L.K.K.O.P.Q.R.                              ",
"                                  S.T.U.w.y.z.V.W.X.X.Y.Z.`.`.`.`.`.`.`.`.`.`.`.`.Z.Y.X.X. +.+P.++R.@+                          ",
"                                  #+$+I.%+L.M.&+*+=+=+Z.-+`.`.`.`.`.`.`.`.`.`.`.`.-+Z.=+=+;+ +O.P.Q.R.                          ",
"                              @+R.++P..+ +Y.Z.>+,+'+)+N.N.N.N.N.N.N.N.N.N.N.N.N.N.N.N.N.N.M.L.!+~+{+]+                          ",
"                              R.Q.P.O. +;+Z.-+,+^+/+(+A.A.A.A.A.A.A.A.A.A.A.A.A.A.A.A.A.A.z.y.~+_+{+]+                          ",
"                          @+R.++P..+ +Y.Z.>+,+:+<+[+}+|+1+2+3+4+4+4+4+4+4+5+6+6+5+5+6+7+7+6+5+4+4+8+9+R.@+                      ",
"                          R.Q.P.O. +;+Z.-+,+^+<+0+}+a+b+c+d+e+f+f+f+f+f+f+g+h+h+g+g+h+i+i+h+g+f+f+j+8+Q.R.                      ",
"                          ]+{+x.K.X.=+>+,+:+<+[+}+k+l+m+n+o+p+q+q+q+q+q+q+r+s+t+u+u+t+v+w+v+x+r+y+z+A+8+9+R.@+                  ",
"                          ]+{+x.K.X.=+,+^+<+0+}+a+l+B+n+C+p+D+q+q+q+q+q+q+y+r+u+t+t+u+x+v+w+v+s+r+E+z+j+8+Q.R.                  ",
"                      @+R.F+G+V.W.Y.Z.H+I+J+K+L+M+N+O+P+Q+q+q+q+q+q+q+q+q+q+q+r+s+t+u+u+t+v+w+v+x+r+y+f+4+{+]+                  ",
"                      R.Q.G+R+&+*+Z.-+H+I+J+K+L+M+N+O+P+Q+q+q+q+q+q+q+q+q+q+q+y+r+u+t+t+u+x+v+w+v+s+r+f+4+{+]+                  ",
"                      ]+{+S+T+N.N.N.N.U+V+W+X+L+M+N+O+P+Q+q+q+q+q+q+q+q+q+q+q+q+q+r+s+t+u+u+t+v+w+v+x+g+5+{+]+                  ",
". . . . . . . . . . . Y+Z+`+S+A.A.A.A. @.@X++@L+M+N+O+P+Q+q+q+q+q+q+q+q+q+q+q+q+q+y+r+u+t+t+u+x+v+w+v+h+6+{+]+      8 7 7 . . . ",
"+ + + + + + + + + @@p.#@$@%@&@5+6+6+5+&@%@*@=@L+M+N+O+P+Q+q+q+q+q+q+q+q+q+q+q+q+q+q+q+r+s+t+u+u+t+v+w+i+7+{+]+      7 f b e + + ",
"@ @ @ @ @ @ @ @ @ -@;@>@,@'@)@g+h+h+g+)@'@!@*@L+M+N+O+P+Q+q+q+q+q+q+q+q+q+q+q+q+q+q+q+y+r+u+t+t+u+x+v+i+7+{+]+      7 b y x @ @ ",
"# # # # # # # # # ~@{@*@!@'@)@g+h+h+g+)@'@!@*@L+M+N+O+P+Q+q+q+q+q+q+q+q+q+q+q+q+q+q+q+q+q+r+s+t+u+u+t+h+6+{+]+      . e x v # # ",
"# # # w K K K K w ~@{@=@*@%@&@5+6+6+5+&@%@*@=@L+M+N+O+P+Q+q+q+q+q+q+q+q+q+q+q+q+q+q+q+q+q+y+r+u+t+t+u+g+5+{+]+      . e x v # # ",
"@ @ d v # K K # v ]@;@^@/@+@X+K+K+K+K+K+K+X++@L+M+N+O+P+Q+q+q+q+q+q+q+q+q+q+q+q+q+q+q+q+q+q+q+r+s+t+u+g+5+{+]+      7 b y x @ @ ",
"+ + c @ v w w v @ (@p._@:@X+W+J+J+J+J+J+J+W+X+L+M+N+O+P+Q+q+q+q+q+q+q+q+q+q+q+q+q+q+q+q+q+q+q+y+r+u+t+h+6+{+]+      7 f b e + + ",
". . b c d # # d c b . Y+Z+K+J+<@[@I+I+[@<@J+K+L+M+N+O+}@|@1@2@q+q+q+q+D+p+Q+Q+Q+Q+Q+Q+Q+Q+p+D+q+q+3@4@5@6@{+]+      8 7 7 . . . ",
"    . e x v v x e .   ]+{+K+J+[@7@H+H+7@[@J+K+L+M+N+O+8@9@0@1@q+q+q+q+p+o+P+P+P+P+P+P+P+P+o+p+q+q+a@b@c@d@{+]+                  ",
"    7 b y x x y b 7   ]+{+K+J+I+H+`.`.,+^+<+0+}+a+l+B+e@f@g@h@i@i@i@i@j@k@O+O+O+O+O+O+O+O+k@j@i@i@l@m@n@o@Q.R.                  ",
"    7 f b e e b f 7   ]+{+K+J+I+H+`.`.>+,+:+<+[+}+k+l+f@e@p@g@q@q@q@q@r@s@N+N+N+N+N+N+N+N+s@r@q@q@m@t@o@u@R.@+                  ",
"    8 7 7 . . 7 7 8   R.Q.v@w@<+:+,+>+`.`.,+^+<+0+}+a+b+c+c+b+M+M+M+M+M+M+M+M+M+M+M+M+M+M+M+M+M+M+n@o@Q.R.                      ",
"                      @+R.x@v@0+<+^+,+`.`.>+,+:+<+[+}+|+1+1+|+L+L+L+L+L+L+L+L+L+L+L+L+L+L+L+L+L+L+o@u@R.@+                      ",
"                          R.Q.v@w@<+:+H+H+,+>+,+^+<+0+K+K+K+K+K+K+K+K+K+K+K+K+K+K+K+K+K+K+K+K+X++@{+]+                          ",
"                          @+R.x@v@0+<+I+I+^+,+>+,+:+<+J+J+J+J+J+J+J+J+J+J+J+J+J+J+J+J+J+J+J+J+W+X+{+]+                          ",
"                              R.Q.v@w@J+J+/+'+`.`.,+^+I+I+I+I+y@z@A@A@A@A@A@A@B@C@D@E@F@G@J+J+w@v@Q.R.                          ",
"                              @+R.x@v@K+K+(+)+`.`.>+,+H+H+H+H+H@I@J@J@J@J@J@J@K@L@M@N@O@P@K+K+v@x@R.@+                          ",
"                              @+R.F+G+A.A.Q@R@`.`.`.`.`.`.`.`.S@T@U@U@U@U@U@U@V@W@Y.Z.R@Q@S+`+X@Y@R.@+                          ",
"                              R.Q.G+R+N.N.R@Z@`.`.`.`.`.`.`.`.`@S@ # # # # # #.#+#Z.-+Z@R@T+S+@#X@Q.R.                          ",
"                          @+R.F+G+Q@R@`.`.>+,+,+>+`.`.`.`.`.`.`.`.`@S@ # #.#+#Z.-+`.`.`.`.N.A.+@X+v@x@R.@+                      ",
". . . . . . . . . . . 7 7 ##Q.G+R+R@Z@`.`.,+^+^+,+`.`.`.`.`.`.`.`.S@T@U@U@V@W@Y.Z.`.`.`.`.N.A.X+W+$#%#&#D.. . . . . . . . . . . ",
"+ + + + + + + + + + e *#=#-#;#>#,#N.N.)+'+:+<+/+'+`.`.`.`.`.`.`.`.S@T@U@U@V@W@Y.Z.`.`.`.`.N.A.X+W+'#)#!#~#p.@@+ + + + + + + + + ",
"@ @ @ @ @ @ @ @ @ @ x {#]#^#/#(#>#A.A.(+/+<+0+(+)+`.`.`.`.`.`.`.`.`@S@ # #.#+#Z.-+`.`.`.`.N.A.+@X+)#_#:#<#;@-@@ @ @ @ @ @ @ @ @ ",
"# # # # # # # # # # v [#}#|#1#2#3#4#|#)#'#5#6#Q@R@`.`.`.`.`.`.`.`.`.`.-+Z.Z.-+`.`.`.`.`.`.N.A.7#8#9#0#a#b#{@~@# # # # # # # # # ",
"# # # # # # # # # # v [#}#4#c#d#e#c#1#_#)#6#f#R@Z@`.`.`.`.`.`.`.`.`.`.Z.Y.Y.Z.`.`.`.`.`.`.N.A.8#g#0#h#a#b#{@~@# # # # # # # # # ",
"@ @ @ @ @ @ @ @ @ @ x {#]#i#j#k#k#c#1#_#)#(+)+`.`.`.`.`.`.`.`.`.`.`.`.Z.Y.Y.Z.`.`.`.`.`.`.N.A.8#g#a#a#:#l#m#-@@ @ @ @ @ @ @ @ @ ",
"+ + + + + + + + + + e *#=#n#o#p#p#4#|#)#'#/+'+`.`.`.`.`.`.`.`.`.`.`.`.-+Z.Z.-+`.`.`.`.`.`.N.A.7#8#b#b#l#q#r#@@+ + + + + + + + + ",
". . . . . . . . . . . 7 7 ##Q.{+{+X@@#K+J+I+H+`.`.`.`.`.`.`.`.`.`.`.`.`.`.`.`.`.`.`.`.`.`.N.A.s#t#{@{@m#r#b . . . . . . . . . . ",
"                          @+R.]+]+Y@X@K+J+I+H+`.`.`.`.`.`.`.`.`.`.`.`.`.`.`.`.`.`.`.`.`.`.N.A.u#v#w#w#|.x#.                     ",
"                                  ]+{+K+J+I+H+`.`.Z@R@N.N.N.N.N.N.N.N.N.N.N.N.N.N.R@Z@`.`.N.A.y#z#x x y b 7                     ",
"                                  ]+{+K+J+I+H+`.`.R@Q@A.A.A.A.A.A.A.A.A.A.A.A.A.A.Q@R@`.`.N.A.Z+A#e e b f 7                     ",
"                                  ]+{+K+J+I+H+>+,+U+ @B#C#D#E#E#D#F#F#G#H#I#J#+@X+(+)+>+,+U+ @K#L#. . 7 7 8                     ",
"                                  ]+{+K+J+I+H+,+^+V+.@M#N#O#P#P#O#Q#Q#R#S#T#I#X+W+/+'+,+^+V+.@{+]+                              ",
"                                  ]+{+K+J+[@7@:+<+w@v@$+T.U#V#W#W#W#W#X#Y#S#H#K+J+[@7@:+<+w@v@Q.R.                              ",
"                                  ]+{+K+J+<@[@<+0+v@x@#+S.Z#U#W#W#W#W#`#X#R#G#K+J+<@[@<+0+v@x@R.@+                              ",
"                                  R.Q.v@w@J+J+w@v@Q.R.    % > 2 2 2 2 2 2  $.$+$@$J+J+w@v@Q.R.                                  ",
"                                  @+R.x@v@K+K+v@x@R.@+    $ % 1 1 1 1 1 1 #$$$%$&$K+K+v@x@R.@+                                  ",
"                                      ]+{+*$*${+]+                            ]+{+*$*${+]+                                      "};
