/* XPM */
static char * exit (copy)_xpm[] = {
"64 64 314 2",
"  	c #755338",
". 	c #4B143C",
"+ 	c #704F35",
"@ 	c #674830",
"# 	c #5D402C",
"$ 	c #543927",
"% 	c #431341",
"& 	c #1D105E",
"* 	c #150F64",
"= 	c #381249",
"- 	c #34124C",
"; 	c #26256D",
"> 	c #294387",
", 	c #12166D",
"' 	c #0F0F69",
") 	c #261057",
"! 	c #3C1246",
"~ 	c #10318B",
"{ 	c #1363BD",
"] 	c #113791",
"^ 	c #10247E",
"/ 	c #2C1153",
"( 	c #725036",
"_ 	c #6C4C33",
": 	c #64452F",
"< 	c #5C3F2B",
"[ 	c #46133F",
"} 	c #1469C3",
"| 	c #124BA5",
"1 	c #0F1A74",
"2 	c #0F1670",
"3 	c #684931",
"4 	c #583C29",
"5 	c #523826",
"6 	c #135DB7",
"7 	c #201E30",
"8 	c #503625",
"9 	c #1247A1",
"0 	c #1253AD",
"a 	c #40505E",
"b 	c #435562",
"c 	c #3F5361",
"d 	c #374F60",
"e 	c #334D60",
"f 	c #301352",
"g 	c #112C86",
"h 	c #19398C",
"i 	c #284990",
"j 	c #1A5EB2",
"k 	c #74A0A9",
"l 	c #89C1C7",
"m 	c #7DBBC5",
"n 	c #65B0C2",
"o 	c #59AAC0",
"p 	c #441D4A",
"q 	c #331D5A",
"r 	c #0F237D",
"s 	c #254B95",
"t 	c #1367C1",
"u 	c #4D7686",
"v 	c #81C7D1",
"w 	c #9CEFF7",
"x 	c #90E9F6",
"y 	c #78DEF2",
"z 	c #6CD9F1",
"A 	c #85C8D2",
"B 	c #597B87",
"C 	c #2A468C",
"D 	c #402455",
"E 	c #461A46",
"F 	c #2055A3",
"G 	c #61B8CD",
"H 	c #73D3E6",
"I 	c #7CE0F3",
"J 	c #70DAF1",
"K 	c #7FD8E8",
"L 	c #3E275B",
"M 	c #68D6EF",
"N 	c #60D0EC",
"O 	c #5BC4E0",
"P 	c #5AB3CB",
"Q 	c #6F98A1",
"R 	c #3B4755",
"S 	c #22519F",
"T 	c #49BFE4",
"U 	c #3B9CBF",
"V 	c #366780",
"W 	c #292C3C",
"X 	c #50BCDC",
"Y 	c #379ABE",
"Z 	c #327391",
"` 	c #404856",
" .	c #453038",
"..	c #422B36",
"+.	c #432E37",
"@.	c #49393C",
"#.	c #4C3E3F",
"$.	c #4D4142",
"%.	c #504647",
"&.	c #514949",
"*.	c #483C3E",
"=.	c #231059",
"-.	c #2A5F7B",
";.	c #77544E",
">.	c #8E5248",
",.	c #854442",
"'.	c #894D46",
").	c #9A6D56",
"!.	c #A37E5E",
"~.	c #A78666",
"{.	c #AF9675",
"].	c #B39E7D",
"^.	c #896B54",
"/.	c #11429C",
"(.	c #623F3E",
"_.	c #98574A",
":.	c #B1624F",
"<.	c #AC5C4E",
"[.	c #B56D56",
"}.	c #C68D66",
"|.	c #CF9E6E",
"1.	c #D2A675",
"2.	c #DAB685",
"3.	c #DCB887",
"4.	c #D6AE7D",
"5.	c #E0C08F",
"6.	c #E2C694",
"7.	c #D8B07F",
"8.	c #D0A070",
"9.	c #AE8662",
"0.	c #6D564B",
"a.	c #372B65",
"b.	c #A25348",
"c.	c #BC7A5C",
"d.	c #CC986B",
"e.	c #C4966A",
"f.	c #314A5C",
"g.	c #5CCDEB",
"h.	c #3EB7DF",
"i.	c #2B88AF",
"j.	c #24425A",
"k.	c #935A4B",
"l.	c #B36450",
"m.	c #A75048",
"n.	c #C38863",
"o.	c #4E8EA3",
"p.	c #2F4154",
"q.	c #4B879C",
"r.	c #4DA2BC",
"s.	c #3691B3",
"t.	c #286E8F",
"u.	c #23394F",
"v.	c #0F126C",
"w.	c #252A3C",
"x.	c #2F4A5E",
"y.	c #28455B",
"z.	c #21273A",
"A.	c #443137",
"B.	c #48353A",
"C.	c #3D2D36",
"D.	c #2A2332",
"E.	c #7C4E45",
"F.	c #97634F",
"G.	c #9F7559",
"H.	c #764B44",
"I.	c #1975C5",
"J.	c #60432D",
"K.	c #32AEDB",
"L.	c #3AB4DE",
"M.	c #AB594C",
"N.	c #BF7F5E",
"O.	c #CA9569",
"P.	c #CD9B6C",
"Q.	c #D1A374",
"R.	c #D6AD80",
"S.	c #AB8D70",
"T.	c #4F4345",
"U.	c #51C5E6",
"V.	c #A85349",
"W.	c #C2835F",
"X.	c #CC976B",
"Y.	c #C68B67",
"Z.	c #9B6B57",
"`.	c #AA554A",
" +	c #B05F4E",
".+	c #B86F55",
"++	c #C38661",
"@+	c #C99267",
"#+	c #AF614F",
"$+	c #BB8460",
"%+	c #A06852",
"&+	c #AC5B4C",
"*+	c #BE7A5A",
"=+	c #BB7457",
"-+	c #B56952",
";+	c #644441",
">+	c #6BEBDC",
",+	c #346194",
"'+	c #6F4E35",
")+	c #243F56",
"!+	c #297395",
"~+	c #79FADF",
"{+	c #3187B2",
"]+	c #30ADCF",
"^+	c #49DCD8",
"/+	c #5EE9DB",
"(+	c #7DFCE0",
"_+	c #3DA2CE",
":+	c #2CA4CC",
"<+	c #59E6DA",
"[+	c #82FFE1",
"}+	c #1771C4",
"|+	c #2994C6",
"1+	c #37ABB2",
"2+	c #2492CA",
"3+	c #3CBFC3",
"4+	c #47B9E0",
"5+	c #59BEE2",
"6+	c #63C0E3",
"7+	c #5DC0E2",
"8+	c #53BFE2",
"9+	c #4ABCE1",
"0+	c #42B9E0",
"a+	c #39ABD3",
"b+	c #3094BB",
"c+	c #72F3DD",
"d+	c #299ACC",
"e+	c #51CDC6",
"f+	c #23374F",
"g+	c #191E3C",
"h+	c #78D4ED",
"i+	c #AFE3F3",
"j+	c #CBEAF5",
"k+	c #BBE8F4",
"l+	c #9CE5F2",
"m+	c #80DEF0",
"n+	c #68D3EC",
"o+	c #4EAAC7",
"p+	c #32657E",
"q+	c #6AF0DD",
"r+	c #1954A8",
"s+	c #101A73",
"t+	c #135FB9",
"u+	c #6FE2CD",
"v+	c #315262",
"w+	c #1D2843",
"x+	c #87E0F3",
"y+	c #BEEEF8",
"z+	c #DAF5FB",
"A+	c #CAF4FA",
"B+	c #ABF1F8",
"C+	c #3CC2C6",
"D+	c #80FBDF",
"E+	c #76E6CE",
"F+	c #3796C8",
"G+	c #481742",
"H+	c #3D1C50",
"I+	c #151065",
"J+	c #41D7D7",
"K+	c #4EDCD6",
"L+	c #3B6772",
"M+	c #75DBF1",
"N+	c #90E2F4",
"O+	c #8BE2F4",
"P+	c #81E1F3",
"Q+	c #265A6E",
"R+	c #1653A7",
"S+	c #69CABA",
"T+	c #42757C",
"U+	c #417084",
"V+	c #5DB6CC",
"W+	c #46D9D6",
"X+	c #64ECDC",
"Y+	c #68DBD9",
"Z+	c #378EC1",
"`+	c #152374",
" @	c #2487BE",
".@	c #36BDD2",
"+@	c #67CDE4",
"@@	c #389ACC",
"#@	c #1B78C5",
"$@	c #1D2774",
"%@	c #113E98",
"&@	c #15196D",
"*@	c #304354",
"=@	c #508B9E",
"-@	c #494549",
";@	c #99917B",
">@	c #2E2B38",
",@	c #494348",
"'@	c #564C4D",
")@	c #554846",
"!@	c #4A565E",
"~@	c #357894",
"{@	c #2D799B",
"]@	c #315C74",
"^@	c #565F62",
"/@	c #9B8267",
"(@	c #96775B",
"_@	c #353570",
":@	c #9B8B78",
"<@	c #C2A887",
"[@	c #BF9B74",
"}@	c #978066",
"|@	c #4C90A7",
"1@	c #5891A1",
"2@	c #2E2834",
"3@	c #664730",
"4@	c #534B4E",
"5@	c #A3927D",
"6@	c #58C6D5",
"7@	c #2D8CCA",
"8@	c #1E3281",
"9@	c #36336E",
"                                        . . . .                                             + @ # $ $ # @ +                     ",
"                                      . . . . . .     . . .           . .                   + @ # $ $ # @ +                     ",
"                                    . . . . . . . . . . . . .       . . . .                 + @ # $ $ # @ +                     ",
"                                  . . . % % % % % % % % % . . .   . . . . . .               + @ # $ $ # @ +                     ",
"                                . . . % & * * * * * * * * = . . .       .                   + @ # $ $ # @ +                     ",
"                              . . - ; > , ' ' ' ' ' ' ' ' & ) ) ) =           . . .         + @ # $ $ # @ +                     ",
"+ + + + + + + + + + + + + + ! - - & ~ { ] ~ ^ ' ' ' ' ' ' ' ' ' ' ) /       . . . . . ( ( + _ : < $ $ < : _ + + + + + + + + + + ",
"@ @ @ @ @ @ @ @ @ @ @ @ . [ / ' ' ' ~ } } } | 1 1 1 1 1 1 1 2 ' ' ' ' * ! % % % . . . . _ 3 : # 4 5 5 4 # : @ @ @ @ @ @ @ @ @ @ ",
"# # # # # # # # # # # . . / * ' ' ' ~ } } } { 6 7 7 7 7 7 7 7 7 7 7 7 7 7 7 7 7 7 7 7 7 7 7 < 4 $ 8 8 $ 4 < # # # # # # # # # # ",
"$ $ $ $ $ $ $ $ $ $ . [ / * ^ 9 9 9 0 } } } } } a b b c d e e e e e e e e e e e e d c b b a . . 8 8 8 8 5 $ $ $ $ $ $ $ $ $ $ $ ",
"$ $ $ $ $ $ $ $ $ . % f g ~ h i i j } } 7 7 7 a k l l m n o o o o o o o o o o o o n m l l k a 7 $ $ $ $ $ $ $ $ $ $ $ $ $ $ $ $ ",
"# # # # # # # # # p q r 6 { > . p s } t a c d u v w w x y z z z z z z z z z z z z y x w w A B a . . . # # # # # # # # # # # # # ",
"@ @ @ @ @ @ @ @ . C j 6 @ D E p F { 7 a k m n G H I I y J z z z z z z z z z z z z J y I I K A k a 7 . . . @ @ @ @ @ @ @ @ @ @ @ ",
"+ + + + + + + + . i } + E . L s { } a B A x y M N O P o o o o o o o o o o o o o o o o o o n m Q R 7 . . . . + + + + + + + + + + ",
"                . i S   . L C { 7 a k A K y J N T U V e e e e e e e e e e e e e e e e e e d c R W 7 ! . . . .                   ",
"              .       . p s { 0 a B A x y M N X Y Z `  ...+.@.#.#.#.#.#.#.$.%.%.$.$.%.&.&.%.$.#.#.*.=.% . . . .                 ",
"                  . . p F { 7 a k A K y J N T Y -.` ;.>.,.'.).!.!.!.!.!.!.~.{.{.~.~.{.].].{.~.!.!.^.*.7 % . . . .               ",
"                  . L s { /.7 b l w I M N X Y Z ` (._.:.<.[.}.|.|.|.|.|.|.1.2.3.4.4.3.5.6.5.7.1.8.9.0.*.=.! . . . .             ",
"                  . a.9 9 ^ 7 b l w I N T Y -.` ;._.b.<.c.}.d.|.|.|.|.|.|.8.1.4.3.3.4.7.5.6.5.2.1.e.9.^.*.7 ! . . . .           ",
"                . [ / ' ' ' f.u v x y g.h.i.j. .k.l.m.<.n.|.|.|.|.|.|.|.|.|.|.1.2.3.4.4.3.5.6.5.7.1.8.!.#.7 =.% . . .           ",
"              . . / * ' 7 f.o.G H y J g.h.i.j. .k.l.m.<.n.|.|.|.|.|.|.|.|.|.|.8.1.4.3.3.4.7.5.6.5.2.1.!.#.7 * & % . .           ",
"              [ / * ' ' 7 p.q.o o o o r.s.t.u. .k.l.m.<.n.|.|.|.|.|.|.|.|.|.|.|.|.1.2.3.4.4.3.5.6.5.7.~.$.7 ' * % . .           ",
"            . % * ' ' v.7 w.p.e e e e x.y.u.z. .k.l.m.<.n.|.|.|.|.|.|.|.|.|.|.|.|.8.1.4.3.3.4.7.5.6.5.{.%.7 ' * / % .           ",
"          . . ! * ' v.^ A.B.@.$.%.%.$.@.B.C.D. .k.l.m.<.n.|.|.|.|.|.|.|.|.|.|.|.|.|.|.1.2.3.4.4.3.5.6.].&.7 ' ' ' - .           ",
"          . = * ' ' 7 A.E.F.G.~.{.{.~.G.F.H.C. .k.l.m.<.n.|.|.|.|.|.|.|.|.|.|.|.|.|.|.8.1.4.3.3.4.7.5.].&.7 ' ' ' - .           ",
"        . f & ' ' ~ 7 C.H.F.G.~.{.{.~.G.F.H.C. .k.l.m.<.n.|.|.|.|.|.|.|.|.|.|.|.|.|.|.|.|.1.2.3.4.4.3.{.%.7 ' ' ' - . .         ",
"+ + + + . ) ' v.g 0 7 D.C.B.@.$.%.%.$.@.B.C.D. .k.l.m.<.n.|.|.|.|.|.|.|.|.|.|.|.|.|.|.|.|.8.1.4.3.3.4.~.$.7 ' ' ' ) ! . ( + + + ",
"@ @ @ . % =.' 1 6 } 7 7 7 z.u.j.j.j.j.j.j.u.z. .k.l.m.<.n.|.|.|.|.|.|.|.|.|.|.|.|.|.|.|.|.|.|.1.2.3.4.~.$.7 ' ' * * / . . 3 @ @ ",
"# . . % & * ' 1 6 } } I.7 u.t.i.i.i.i.i.i.t.u. .k.l.m.<.n.|.|.|.|.|.|.|.|.|.|.|.|.|.|.|.|.|.|.8.1.4.3.{.%.7 ' * ! % [ . . J.# # ",
"$ . ! =.* ' ^ | { } } I.7 j.i.K.L.h.h.L.K.i.j. .k.l.m.M.N.O.P.|.|.|.|.d.}.n.n.n.n.n.n.n.n.}.d.|.|.Q.R.S.T.7 & -   . . . . 4 $ $ ",
"$ . - ' ' ' ~ } } } } I.7 j.i.L.U.g.g.U.L.i.j. .k.l.m.V.[.W.O.|.|.|.|.}.[.<.<.<.<.<.<.<.<.[.}.|.|.X.Y.Z.@.7 ) .   . . . . 4 $ $ ",
". [ / ' ' 2 ] } } } } I.7 j.i.h.g.z z N T Y -.` ;._.b.`. +.+++@+@+@+@+W.#+m.m.m.m.m.m.m.m.#+W.@+@+$+%+E.A.7 =.% .   ( . . J.# # ",
". / * ' ' /.{ } } } } I.7 j.i.h.g.z z M N X Y Z ` (._. +`.&+.+*+*+*+*+=+-+l.l.l.l.l.l.l.l.-+=+*+*+%+;+A.>+,+* & % . . '+. 3 @ @ ",
". ) ' ' ' 9 } } } } } } 7 )+!+Y X N M z z N T Y -.` ;.>.,.,.>.k.k.k.k.k.k.k.k.k.k.k.k.k.k.k.k.k.k.E.A.7 ~+{+~ * % . . ( . + + + ",
". ) ' v.g 0 } } } } } } } ]+)+-.Y T N z z M N X Y Z `  ..... . . . . . . . . . . . . . . . . . . .A.^+/+(+_+9 * % . .   .       ",
". / * 1 6 { { } } } } } } :+7 )+!+Y X g.g.N M N T Y -.j.j.j.j.j.j.j.j.j.j.j.j.j.j.j.j.j.j.j.j.u.z.7 <+[+[+_+9 * ! . .           ",
". [ / 1 6 ] ] } } } } } } }+|+1+)+-.Y h.h.T N M N X Y i.i.i.i.i.i.i.i.i.i.i.i.i.i.i.i.i.i.i.i.t.u.7 <+[+[+_+9 ' * = . .         ",
"  . - 1 6 ~ ~ } } } } } } } 2+3+7 )+!+i.i.U O z z N T h.h.h.h.4+5+6+6+6+6+6+6+7+8+9+0+a+b+i.i.!+)+7 c+[+[+_+9 ' ' - . .         ",
"  . q ~ /.^ ^ | { } } } } } d+e+f+g+)+j.j.V P z z M N g.g.g.g.h+i+j+j+j+j+j+j+k+l+m+n+o+p+j.j.)+3+q+[+[+[+_+0 g v.- . .         ",
"  . a.r+s+' ' 1 6 } { t+t }+_+u+v+w+7 7 7 e o z z z z z z z z x+y+z+z+z+z+z+z+A+B+x y o e 7 7 7 C+q+[+D+E+F+} 6 1 - . .   . .   ",
"  . G+H+I+' ' 1 6 } | ^ t+:+J+K+u+L+g+g+7 e o z z z z z z z z M+x+N+N+N+N+N+N+O+P+y J o e 7 Q+C+J+q+[+E+> R+} 6 1 - . .   . .   ",
"  . . . = & ' 1 6 } 9 1 6 ]+J+^+~+S+T+g+f.U+V+z z z z z z z z z z M+x+N+N+O+P+y J z z V+U+f.1+W+X+~+Y+Z+`+9 } 6 1 - . .   . .   ",
"    . . . - & 1 6 } 9 2 /. @.@W+X+~+7 f.o.V++@z z z z z z z z z z x+y+z+z+A+B+x y z z +@V+o.f.7 ~+Y+_+6 1 9 } 6 1 - . .         ",
"      . . . - 1 0 { | 1 v.9 2+J+J+X+f.U+V+z z z z z z z z z z z z x+y+z+z+A+B+x y z z z z o e 7 >+@@{ 0 1 9 } 6 1 - . .         ",
"        . . - v.1 | { 0 1 9 2+J+7 f.o.V++@z z z z z z z z z z z z M+x+N+N+O+P+y J z z z z o e 7 7 7 | 1 v.9 } 6 1 - .           ",
"          . % / * ^ /.6 1 9 #@d+f.U+V+z z M N N M z z z z z z z z z z J y y J z z z z z z o e z.u.)+9 ' ' 9 } 6 1 - .           ",
"+ + + + + + . [ / ) $@/.~ %@7 f.o.V++@z z N T T N z z z z z z z z z z y x x y z z z z z z o e u.t.!+)+7 ' 9 } 6 1 - . + + + + + ",
"@ @ @ . @ @ @ . . . = &@0 ~ 7 p.q.o o P O X Y U O z z z z z z z z z z y x x y z z z z z z o e *@=@=@*@7 ' 9 { 0 1 - . @ @ @ @ @ ",
"# . . . # # # # . . . ! &@/.7 w.p.e e V U Y -.V P z z z z z z z z z z J y y J z z z z z z o e -@;@;@-@7 ' 9 | 1 v.- . . # # # # ",
"$ . . . $ $ $ $ $ $ . . = s 7 >@,@'@)@!@~@{@]@U+V+z z z z z z z z z z z z z z z z z z z z V+U+^@/@(@*.7 /.6 9 ' ' - . . $ $ $ $ ",
"$ . . . $ $ $ $ $ $ 4 . . _@7 ,@:@<@[@}@!@]@|@V++@z z z z z z z z z z z z z z z z z z z z +@V+1@^@*.2@7 6 0 ~ * =.! . . $ $ $ $ ",
"# . . . . # # . . . . 3@. . 7 4@5@<@[@}@!@V P z z z z +@V+o o o o o o o o o o o o V++@z z z z o e 7 7 7 r+g ' * % . . . # # # # ",
"@ @ @ . . @ @ . . . . . '+. - ' 4@'@)@!@~@U O z z z z V+U+e e e e e e e e e e e e U+V+z z z z o e 7 2 I+H+: @ * % . . @ @ @ @ @ ",
"+ + + . . + + . . - - . . f & ' 7 7 7 j.i.h.g.z z z z o e 7 7 7 7 7 7 7 7 7 7 z.u.V P z z M N r.x.7 & - : . / * % . + + + + + + ",
"      . .     . . ) & - - & ' ' ' ' 7 j.i.h.g.z z z z o e 7 6@6@6@7@6 /.2 ' 7 u.t.U O z z N T s.y.7 - . 3 - / / %               ",
"                . / * ' ' 2 1 1 1 1 7 j.i.h.g.z z +@V+o.f.7 6 6 6 6 /.' ' ' 7 j.i.L.U.g.g.X Y !+)+7 . . _ * / .                 ",
"                  % / ' ' /.6 6 6 6 7 j.i.h.g.z z V+U+f.} ] 1 1 1 1 2 ' ' ' 7 j.i.K.L.h.h.Y -.)+' - . . '+% [ .       .         ",
"                    ! - - $@8@9@9@9@7 j.i.h.g.M N r.x.7 ~ 1 ' ' ' ' ' ' ' ' 7 )+!+i.i.i.i.!+)+7 / % . ( . . .       . . .       ",
"                      . . - - . . . 7 j.i.h.g.N T s.y.7 ' ' * =.* ' ' ' ' ' ' ' )+j.j.j.j.)+* / [ .     . .       . . . .       ",
"                        . . . .     7 j.i.L.U.X Y !+)+7 * * / % & * * * ' ' * * 7 7 7 7 7 7 / . .       .         . . .         ",
"                                    7 j.i.K.L.Y -.)+. % % % [ . % =.=.! * ' =.% % % % % % % [ . .     .                         ",
"                                    7 )+!+i.i.!+)+7 . . . . . .   = ! . = - ! . . . . . . . .                                   ",
"                                        )+j.j.)+      . . . . .     . . . . . . . . . . . .                                     ",
"                                        7 7 7 7                       . . . .     . . . .                                       "};
