/* XPM */
static char * character_xpm[] = {
"64 64 209 2",
"  	c #755338",
". 	c #704F35",
"+ 	c #674830",
"@ 	c #5D402C",
"# 	c #543927",
"$ 	c #725036",
"% 	c #745237",
"& 	c #6C4C33",
"* 	c #64452F",
"= 	c #5C3F2B",
"- 	c #684931",
"; 	c #6F4E35",
"> 	c #583C29",
", 	c #523826",
"' 	c #60432D",
") 	c #664730",
"! 	c #201E30",
"~ 	c #503625",
"{ 	c #40505E",
"] 	c #435562",
"^ 	c #3F5361",
"/ 	c #374F60",
"( 	c #334D60",
"_ 	c #74A0A9",
": 	c #89C1C7",
"< 	c #7DBBC5",
"[ 	c #65B0C2",
"} 	c #59AAC0",
"| 	c #4D7686",
"1 	c #81C7D1",
"2 	c #9CEFF7",
"3 	c #90E9F6",
"4 	c #78DEF2",
"5 	c #6CD9F1",
"6 	c #85C8D2",
"7 	c #597B87",
"8 	c #61B8CD",
"9 	c #73D3E6",
"0 	c #7CE0F3",
"a 	c #70DAF1",
"b 	c #7FD8E8",
"c 	c #68D6EF",
"d 	c #60D0EC",
"e 	c #5BC4E0",
"f 	c #5AB3CB",
"g 	c #6F98A1",
"h 	c #3B4755",
"i 	c #49BFE4",
"j 	c #3B9CBF",
"k 	c #366780",
"l 	c #292C3C",
"m 	c #50BCDC",
"n 	c #379ABE",
"o 	c #327391",
"p 	c #404856",
"q 	c #453038",
"r 	c #422B36",
"s 	c #432E37",
"t 	c #49393C",
"u 	c #4C3E3F",
"v 	c #4D4142",
"w 	c #504647",
"x 	c #514949",
"y 	c #483C3E",
"z 	c #2A5F7B",
"A 	c #77544E",
"B 	c #8E5248",
"C 	c #854442",
"D 	c #894D46",
"E 	c #9A6D56",
"F 	c #A37E5E",
"G 	c #A78666",
"H 	c #AF9675",
"I 	c #B39E7D",
"J 	c #896B54",
"K 	c #623F3E",
"L 	c #98574A",
"M 	c #B1624F",
"N 	c #AC5C4E",
"O 	c #B56D56",
"P 	c #C68D66",
"Q 	c #CF9E6E",
"R 	c #D2A675",
"S 	c #DAB685",
"T 	c #DCB887",
"U 	c #D6AE7D",
"V 	c #E0C08F",
"W 	c #E2C694",
"X 	c #D8B07F",
"Y 	c #D0A070",
"Z 	c #AE8662",
"` 	c #6D564B",
" .	c #A25348",
"..	c #BC7A5C",
"+.	c #CC986B",
"@.	c #C4966A",
"#.	c #314A5C",
"$.	c #5CCDEB",
"%.	c #3EB7DF",
"&.	c #2B88AF",
"*.	c #24425A",
"=.	c #935A4B",
"-.	c #B36450",
";.	c #A75048",
">.	c #C38863",
",.	c #4E8EA3",
"'.	c #2F4154",
").	c #4B879C",
"!.	c #4DA2BC",
"~.	c #3691B3",
"{.	c #286E8F",
"].	c #23394F",
"^.	c #252A3C",
"/.	c #2F4A5E",
"(.	c #28455B",
"_.	c #21273A",
":.	c #443137",
"<.	c #48353A",
"[.	c #3D2D36",
"}.	c #2A2332",
"|.	c #7C4E45",
"1.	c #97634F",
"2.	c #9F7559",
"3.	c #764B44",
"4.	c #32AEDB",
"5.	c #3AB4DE",
"6.	c #AB594C",
"7.	c #BF7F5E",
"8.	c #CA9569",
"9.	c #CD9B6C",
"0.	c #D1A374",
"a.	c #D6AD80",
"b.	c #AB8D70",
"c.	c #4F4345",
"d.	c #51C5E6",
"e.	c #A85349",
"f.	c #C2835F",
"g.	c #CC976B",
"h.	c #C68B67",
"i.	c #9B6B57",
"j.	c #AA554A",
"k.	c #B05F4E",
"l.	c #B86F55",
"m.	c #C38661",
"n.	c #C99267",
"o.	c #AF614F",
"p.	c #BB8460",
"q.	c #A06852",
"r.	c #AC5B4C",
"s.	c #BE7A5A",
"t.	c #BB7457",
"u.	c #B56952",
"v.	c #644441",
"w.	c #243F56",
"x.	c #297395",
"y.	c #47B9E0",
"z.	c #59BEE2",
"A.	c #63C0E3",
"B.	c #5DC0E2",
"C.	c #53BFE2",
"D.	c #4ABCE1",
"E.	c #42B9E0",
"F.	c #39ABD3",
"G.	c #3094BB",
"H.	c #78D4ED",
"I.	c #AFE3F3",
"J.	c #CBEAF5",
"K.	c #BBE8F4",
"L.	c #9CE5F2",
"M.	c #80DEF0",
"N.	c #68D3EC",
"O.	c #4EAAC7",
"P.	c #32657E",
"Q.	c #87E0F3",
"R.	c #BEEEF8",
"S.	c #DAF5FB",
"T.	c #CAF4FA",
"U.	c #ABF1F8",
"V.	c #75DBF1",
"W.	c #90E2F4",
"X.	c #8BE2F4",
"Y.	c #81E1F3",
"Z.	c #417084",
"`.	c #5DB6CC",
" +	c #67CDE4",
".+	c #304354",
"++	c #508B9E",
"@+	c #494549",
"#+	c #99917B",
"$+	c #2E2B38",
"%+	c #494348",
"&+	c #564C4D",
"*+	c #554846",
"=+	c #4A565E",
"-+	c #357894",
";+	c #2D799B",
">+	c #315C74",
",+	c #565F62",
"'+	c #9B8267",
")+	c #96775B",
"!+	c #9B8B78",
"~+	c #C2A887",
"{+	c #BF9B74",
"]+	c #978066",
"^+	c #4C90A7",
"/+	c #5891A1",
"(+	c #2E2834",
"_+	c #534B4E",
":+	c #A3927D",
"                                                                                            . + @ # # @ + .                     ",
"                                                                                            . + @ # # @ + .                     ",
"                                                                                            . + @ # # @ + .                     ",
"                                                                                            . + @ # # @ + .                     ",
"                                                                                            . + @ # # @ + .                     ",
"                                                                                            . + @ # # @ + .                     ",
". . . . . . . . . . . . . . . $ $ % % $ $ . . . . . . $ $ %                         % $ $ . & * = # # = * & . . . . . . . . . . ",
"+ + + + + + + + + + + + + + - & ; $ $ ; & - + + + + - & ; $                         $ ; & - * @ > , , > @ * + + + + + + + + + + ",
"@ @ @ @ @ @ @ @ @ @ @ @ @ @ ' ) & $ $ & ) ' @ @ ! ! ! ! ! ! ! ! ! ! ! ! ! ! ! ! ! ! ! ! ! ! = > # ~ ~ # > = @ @ @ @ @ @ @ @ @ @ ",
"# # # # # # # # # # # # # # > ' - . . - ' > # # { ] ] ^ / ( ( ( ( ( ( ( ( ( ( ( ( / ^ ] ] { # , ~ ~ ~ ~ , # # # # # # # # # # # ",
"# # # # # # # # # # # # # # > ' - . . - ! ! ! { _ : : < [ } } } } } } } } } } } } [ < : : _ { ! # # # # # # # # # # # # # # # # ",
"@ @ @ @ @ @ @ @ @ @ @ @ @ @ ' ) & $ $ & { ^ / | 1 2 2 3 4 5 5 5 5 5 5 5 5 5 5 5 5 4 3 2 2 6 7 { @ @ @ @ @ @ @ @ @ @ @ @ @ @ @ @ ",
"+ + + + + + + + + + + + + + - & ; $ ! { _ < [ 8 9 0 0 4 a 5 5 5 5 5 5 5 5 5 5 5 5 a 4 0 0 b 6 _ { ! + + + + + + + + + + + + + + ",
". . . . . . . . . . . . . . . $ $ % { 7 6 3 4 c d e f } } } } } } } } } } } } } } } } } } [ < g h ! . . . . . . . . . . . . . . ",
"                                ! { _ 6 b 4 a d i j k ( ( ( ( ( ( ( ( ( ( ( ( ( ( ( ( ( ( / ^ h l !                             ",
"                                { 7 6 3 4 c d m n o p q r s t u u u u u u v w w v v w x x w v u u y                             ",
"                            ! { _ 6 b 4 a d i n z p A B C D E F F F F F F G H H G G H I I H G F F J y !                         ",
"                            ! ] : 2 0 c d m n o p K L M N O P Q Q Q Q Q Q R S T U U T V W V X R Y Z ` y                         ",
"                            ! ] : 2 0 d i n z p A L  .N ..P +.Q Q Q Q Q Q Y R U T T U X V W V S R @.Z J y !                     ",
"                            #.| 1 3 4 $.%.&.*.q =.-.;.N >.Q Q Q Q Q Q Q Q Q Q R S T U U T V W V X R Y F u !                     ",
"                        ! #.,.8 9 4 a $.%.&.*.q =.-.;.N >.Q Q Q Q Q Q Q Q Q Q Y R U T T U X V W V S R F u !                     ",
"                        ! '.).} } } } !.~.{.].q =.-.;.N >.Q Q Q Q Q Q Q Q Q Q Q Q R S T U U T V W V X G v !                     ",
"                        ! ^.'.( ( ( ( /.(.]._.q =.-.;.N >.Q Q Q Q Q Q Q Q Q Q Q Q Y R U T T U X V W V H w !                     ",
"                        :.<.t v w w v t <.[.}.q =.-.;.N >.Q Q Q Q Q Q Q Q Q Q Q Q Q Q R S T U U T V W I x !                     ",
"                    ! :.|.1.2.G H H G 2.1.3.[.q =.-.;.N >.Q Q Q Q Q Q Q Q Q Q Q Q Q Q Y R U T T U X V I x !                     ",
"                    ! [.3.1.2.G H H G 2.1.3.[.q =.-.;.N >.Q Q Q Q Q Q Q Q Q Q Q Q Q Q Q Q R S T U U T H w !                     ",
". . . . . . . . . . ! }.[.<.t v w w v t <.[.}.q =.-.;.N >.Q Q Q Q Q Q Q Q Q Q Q Q Q Q Q Q Y R U T T U G v !         % $ $ . . . ",
"+ + + + + + + + + + ! ! ! _.].*.*.*.*.*.*.]._.q =.-.;.N >.Q Q Q Q Q Q Q Q Q Q Q Q Q Q Q Q Q Q R S T U G v !         $ ; & - + + ",
"@ @ @ @ @ @ @ @ @ @ @ @ ! ].{.&.&.&.&.&.&.{.].q =.-.;.N >.Q Q Q Q Q Q Q Q Q Q Q Q Q Q Q Q Q Q Y R U T H w !         $ & ) ' @ @ ",
"# # # # # # # # # # # # ! *.&.4.5.%.%.5.4.&.*.q =.-.;.6.7.8.9.Q Q Q Q +.P >.>.>.>.>.>.>.>.P +.Q Q 0.a.b.c.!         . - ' > # # ",
"# # # , ~ ~ ~ ~ , # # # ! *.&.5.d.$.$.d.5.&.*.q =.-.;.e.O f.8.Q Q Q Q P O N N N N N N N N O P Q Q g.h.i.t !         . - ' > # # ",
"@ @ = > # ~ ~ # > = @ @ ! *.&.%.$.5 5 d i n z p A L  .j.k.l.m.n.n.n.n.f.o.;.;.;.;.;.;.;.;.o.f.n.n.p.q.|.:.!         $ & ) ' @ @ ",
"+ + * @ > , , > @ * + + ! *.&.%.$.5 5 c d m n o p K L k.j.r.l.s.s.s.s.t.u.-.-.-.-.-.-.-.-.u.t.s.s.q.v.:.            $ ; & - + + ",
". . & * = # # = * & . . ! w.x.n m d c 5 5 d i n z p A B C C B =.=.=.=.=.=.=.=.=.=.=.=.=.=.=.=.=.=.|.:.!             % $ $ . . . ",
"    . - ' > > ' - .         w.z n i d 5 5 c d m n o p q r r q q q q q q q q q q q q q q q q q q q :.                            ",
"    $ & ) ' ' ) & $         ! w.x.n m $.$.d c d i n z *.*.*.*.*.*.*.*.*.*.*.*.*.*.*.*.*.*.*.*.]._.!                             ",
"    $ ; & - - & ; $             w.z n %.%.i d c d m n &.&.&.&.&.&.&.&.&.&.&.&.&.&.&.&.&.&.&.&.{.].!                             ",
"    % $ $ . . $ $ %             ! w.x.&.&.j e 5 5 d i %.%.%.%.y.z.A.A.A.A.A.A.B.C.D.E.F.G.&.&.x.w.!                             ",
"                                    w.*.*.k f 5 5 c d $.$.$.$.H.I.J.J.J.J.J.J.K.L.M.N.O.P.*.*.w.                                ",
"                                    ! ! ! ( } 5 5 5 5 5 5 5 5 Q.R.S.S.S.S.S.S.T.U.3 4 } ( ! ! !                                 ",
"                                        ! ( } 5 5 5 5 5 5 5 5 V.Q.W.W.W.W.W.W.X.Y.4 a } ( !                                     ",
"                                        #.Z.`.5 5 5 5 5 5 5 5 5 5 V.Q.W.W.X.Y.4 a 5 5 `.Z.#.                                    ",
"                                    ! #.,.`. +5 5 5 5 5 5 5 5 5 5 Q.R.S.S.T.U.3 4 5 5  +`.,.#.!                                 ",
"                                    #.Z.`.5 5 5 5 5 5 5 5 5 5 5 5 Q.R.S.S.T.U.3 4 5 5 5 5 } ( !                                 ",
"                                ! #.,.`. +5 5 5 5 5 5 5 5 5 5 5 5 V.Q.W.W.X.Y.4 a 5 5 5 5 } ( ! ! !                             ",
"                                #.Z.`.5 5 c d d c 5 5 5 5 5 5 5 5 5 5 a 4 4 a 5 5 5 5 5 5 } ( _.].w.                            ",
". . . . . . . . . . . $ $ % ! #.,.`. +5 5 d i i d 5 5 5 5 5 5 5 5 5 5 4 3 3 4 5 5 5 5 5 5 } ( ].{.x.w.! . . . . . . . . . . . . ",
"+ + + + + + + + + + - & ; $ ! '.).} } f e m n j e 5 5 5 5 5 5 5 5 5 5 4 3 3 4 5 5 5 5 5 5 } ( .+++++.+! + + + + + + + + + + + + ",
"@ @ @ @ @ @ @ @ @ @ ' ) & $ ! ^.'.( ( k j n z k f 5 5 5 5 5 5 5 5 5 5 a 4 4 a 5 5 5 5 5 5 } ( @+#+#+@+! @ @ @ @ @ @ @ @ @ @ @ @ ",
"# # # # # # # # # # > ' - . ! $+%+&+*+=+-+;+>+Z.`.5 5 5 5 5 5 5 5 5 5 5 5 5 5 5 5 5 5 5 5 `.Z.,+'+)+y ! # # # # # # # # # # # # ",
"# # # # # # # # # # > ' - . ! %+!+~+{+]+=+>+^+`. +5 5 5 5 5 5 5 5 5 5 5 5 5 5 5 5 5 5 5 5  +`./+,+y (+! , # # # # # # # # # # # ",
"@ @ @ @ @ @ @ @ @ @ ' ) & $ ! _+:+~+{+]+=+k f 5 5 5 5  +`.} } } } } } } } } } } } `. +5 5 5 5 } ( ! ! ! > = @ @ @ @ @ @ @ @ @ @ ",
"+ + + + + + + + + + - & ; $     _+&+*+=+-+j e 5 5 5 5 `.Z.( ( ( ( ( ( ( ( ( ( ( ( Z.`.5 5 5 5 } ( ! , > @ * + + + + + + + + + + ",
". . . . . . . . . . . $ $ %     ! ! ! *.&.%.$.5 5 5 5 } ( ! ! ! ! ! ! ! ! ! ! _.].k f 5 5 c d !./.! # = * & . . . . . . . . . . ",
"                                    ! *.&.%.$.5 5 5 5 } ( !                 ! ].{.j e 5 5 d i ~.(.! > ' - .                     ",
"                                    ! *.&.%.$.5 5  +`.,.#.!                 ! *.&.5.d.$.$.m n x.w.! ' ) & $                     ",
"                                    ! *.&.%.$.5 5 `.Z.#.                    ! *.&.4.5.%.%.n z w.& - - & ; $                     ",
"                                    ! *.&.%.$.c d !./.!                     ! w.x.&.&.&.&.x.w.! $ . . $ $ %                     ",
"                                    ! *.&.%.$.d i ~.(.!                         w.*.*.*.*.w.                                    ",
"                                    ! *.&.5.d.m n x.w.!                         ! ! ! ! ! !                                     ",
"                                    ! *.&.4.5.n z w.                                                                            ",
"                                    ! w.x.&.&.x.w.!                                                                             ",
"                                        w.*.*.w.                                                                                ",
"                                        ! ! ! !                                                                                 "};
