/* XPM */
static char * exit_xpm[] = {
"64 64 174 2",
"  	c #755338",
". 	c #4B143C",
"+ 	c #704F35",
"@ 	c #674830",
"# 	c #5D402C",
"$ 	c #543927",
"% 	c #431341",
"& 	c #1D105E",
"* 	c #150F64",
"= 	c #381249",
"- 	c #34124C",
"; 	c #26256D",
"> 	c #294387",
", 	c #12166D",
"' 	c #0F0F69",
") 	c #261057",
"! 	c #3C1246",
"~ 	c #10318B",
"{ 	c #1363BD",
"] 	c #113791",
"^ 	c #10247E",
"/ 	c #2C1153",
"( 	c #725036",
"_ 	c #6C4C33",
": 	c #64452F",
"< 	c #5C3F2B",
"[ 	c #46133F",
"} 	c #1469C3",
"| 	c #124BA5",
"1 	c #0F1A74",
"2 	c #0F1670",
"3 	c #684931",
"4 	c #583C29",
"5 	c #523826",
"6 	c #135DB7",
"7 	c #11429C",
"8 	c #60432D",
"9 	c #503625",
"0 	c #1247A1",
"a 	c #1253AD",
"b 	c #284990",
"c 	c #28337A",
"d 	c #301352",
"e 	c #112C86",
"f 	c #19398C",
"g 	c #1A5EB2",
"h 	c #1B78C5",
"i 	c #2492CA",
"j 	c #228DC9",
"k 	c #1A68B4",
"l 	c #441D4A",
"m 	c #331D5A",
"n 	c #0F237D",
"o 	c #254B95",
"p 	c #1367C1",
"q 	c #135FB9",
"r 	c #1771C4",
"s 	c #299ACC",
"t 	c #41D7D7",
"u 	c #3CCBD4",
"v 	c #1E82C7",
"w 	c #1975C5",
"x 	c #33B3D0",
"y 	c #1C6CBB",
"z 	c #101A73",
"A 	c #231059",
"B 	c #2A468C",
"C 	c #402455",
"D 	c #461A46",
"E 	c #2055A3",
"F 	c #2CA4CC",
"G 	c #3ED1D6",
"H 	c #36B3C5",
"I 	c #152374",
"J 	c #3E275B",
"K 	c #0F126C",
"L 	c #3AC6D3",
"M 	c #1759A7",
"N 	c #22519F",
"O 	c #2994C6",
"P 	c #3091A2",
"Q 	c #32919C",
"R 	c #349AA4",
"S 	c #3FCECF",
"T 	c #49DCD8",
"U 	c #59E6DA",
"V 	c #15196D",
"W 	c #1D2774",
"X 	c #3CBFC3",
"Y 	c #37ABB2",
"Z 	c #1D334D",
"` 	c #191E3C",
" .	c #51CDC6",
"..	c #76E6CE",
"+.	c #80FBDF",
"@.	c #345D90",
"#.	c #67D0CE",
"$.	c #1C3B5D",
"%.	c #19203E",
"&.	c #23374F",
"*.	c #315262",
"=.	c #4D92AA",
"-.	c #4EADB5",
";.	c #67C6C4",
">.	c #75E9D8",
",.	c #217AC6",
"'.	c #3187B2",
").	c #173668",
"!.	c #1A2543",
"~.	c #1D2843",
"{.	c #3B6772",
"].	c #5AC0B7",
"^.	c #36BDD2",
"/.	c #372B65",
"(.	c #1F3079",
"_.	c #437B9F",
":.	c #82FFE1",
"<.	c #79FADF",
"[.	c #57DBD6",
"}.	c #206199",
"|.	c #277798",
"1.	c #286678",
"2.	c #42757C",
"3.	c #4BA1A0",
"4.	c #389DA4",
"5.	c #30ADCF",
"6.	c #3A6A96",
"7.	c #7DFCE0",
"8.	c #62E6D8",
"9.	c #69CABA",
"0.	c #5EE9DB",
"a.	c #57B1C0",
"b.	c #6AF0DD",
"c.	c #4EDCD6",
"d.	c #5DCDD7",
"e.	c #72F3DD",
"f.	c #43C7C7",
"g.	c #265A6E",
"h.	c #6FE2CD",
"i.	c #46D9D6",
"j.	c #68DBD9",
"k.	c #7CF7DF",
"l.	c #224960",
"m.	c #294D61",
"n.	c #3CC2C6",
"o.	c #64ECDC",
"p.	c #52E1D9",
"q.	c #2587C8",
"r.	c #6BEBDC",
"s.	c #346194",
"t.	c #6F4E35",
"u.	c #3DA2CE",
"v.	c #1954A8",
"w.	c #3796C8",
"x.	c #481742",
"y.	c #3D1C50",
"z.	c #151065",
"A.	c #1653A7",
"B.	c #378EC1",
"C.	c #2487BE",
"D.	c #5AAAA3",
"E.	c #57B0A9",
"F.	c #389ACC",
"G.	c #2FACCF",
"H.	c #113E98",
"I.	c #51BBB6",
"J.	c #353570",
"K.	c #1E3281",
"L.	c #4ECCD6",
"M.	c #664730",
"N.	c #56C6D5",
"O.	c #2D8CCA",
"P.	c #58C6D5",
"Q.	c #36336E",
"                                        . . . .                                             + @ # $ $ # @ +                     ",
"                                      . . . . . .     . . .           . .                   + @ # $ $ # @ +                     ",
"                                    . . . . . . . . . . . . .       . . . .                 + @ # $ $ # @ +                     ",
"                                  . . . % % % % % % % % % . . .   . . . . . .               + @ # $ $ # @ +                     ",
"                                . . . % & * * * * * * * * = . . .       .                   + @ # $ $ # @ +                     ",
"                              . . - ; > , ' ' ' ' ' ' ' ' & ) ) ) =           . . .         + @ # $ $ # @ +                     ",
"+ + + + + + + + + + + + + + ! - - & ~ { ] ~ ^ ' ' ' ' ' ' ' ' ' ' ) /       . . . . . ( ( + _ : < $ $ < : _ + + + + + + + + + + ",
"@ @ @ @ @ @ @ @ @ @ @ @ . [ / ' ' ' ~ } } } | 1 1 1 1 1 1 1 2 ' ' ' ' * ! % % % . . . . _ 3 : # 4 5 5 4 # : @ @ @ @ @ @ @ @ @ @ ",
"# # # # # # # # # # # . . / * ' ' ' ~ } } } { 6 6 6 6 6 6 6 7 ' ' ' ' ' * * * & % . . . . 8 < 4 $ 9 9 $ 4 < # # # # # # # # # # ",
"$ $ $ $ $ $ $ $ $ $ . [ / * ^ 0 0 0 a } } } } } } } } } } } 6 0 0 0 0 0 0 0 0 7 b b c / [ . . . 9 9 9 9 5 $ $ $ $ $ $ $ $ $ $ $ ",
"$ $ $ $ $ $ $ $ $ . % d e ~ f b b g } } } } } } } } } } } } h i i i i j } } } } j i k e d - ! . $ $ $ $ $ $ $ $ $ $ $ $ $ $ $ $ ",
"# # # # # # # # # l m n 6 { > . l o } p q 6 6 q p } } } } r s t t t t u v w w v u t x y z ' A % . . . # # # # # # # # # # # # # ",
"@ @ @ @ @ @ @ @ . B g 6 @ C D l E { } q ^ 1 1 ^ q } } } } F u t t t t t u u u u t t G H I ' * & % . . . . @ @ @ @ @ @ @ @ @ @ @ ",
"+ + + + + + + + . b } + D . J o { } a e K ~ 0 | { } } r F L t t t t t t t t t t t t t L M 0 ~ * A ! . . . . + + + + + + + + + + ",
"                . b N   . J B { | 0 ~ ' ' 0 } } j i i O P Q Q Q Q Q Q R S t T U U T t u s h a e K ) ! . . . .                   ",
"              .       . l o { a 1 ' V W z | } w H X X Y Z ` ` ` ` ` ` Z Y X  ...+.U t t t i } 6 1 ' A % . . . .                 ",
"                  . . l E { | 1 K ' @.#.y { } k $.Z Z Z %.` ` ` ` ` ` %.Z Z &.*...U t t t i } 6 1 ' * & % . . . .               ",
"                  . J o { 7 ^ I =.-.;.>.,.i '.).!.` ` ` ` ` ` ` ` ` ` ` ` ` ` ~.{.].U t t ^.i { | ^ ' * A ! . . . .             ",
"                  . /.0 0 ^ (._.>.:.<.[.}.|.1.` ` ` ` ` ` ` ` ` ` ` ` ` ` ` ` ` ` 2.3.4.[.T 5.} } ~ ' ' ' ) ! . . . .           ",
"                . [ / ' ' ' 6.:.:.7.8.Y Z ` ` ` ` ` ` ` ` ` ` ` ` ` ` ` ` ` ` ` ` ` ` &.9.[.5.} } ] 2 ' ' ' A % . . .           ",
"              . . / * ' ' ' 6.:.:.0.4.Z %.` ` ` ` ` ` ` ` ` ` ` ` ` ` ` ` ` ` ` ` ` ` %.&.4.5.} } { 7 ' ' ' * & % . .           ",
"              [ / * ' ' ' 6.;.:.:.U Q ` ` ` ` ` ` ` ` ` ` ` ` ` ` ` ` ` ` ` ` ` ` ` ` ` ` 3.[.F r } 0 ' ' ' ' * % . .           ",
"            . % * ' ' K e a.:.7.b.-.1.` ` ` ` ` ` ` ` ` ` ` ` ` ` ` ` ` ` ` ` ` ` ` ` ` ` 2.].c.s h a e K ' ' * / % .           ",
"          . . ! * ' K ^ y d.7.e.f.g.` ` ` ` ` ` ` ` ` ` ` ` ` ` ` ` ` ` ` ` ` ` ` ` ` ` ` ` {.h.i.i } 6 1 ' ' ' ' - .           ",
"          . = * ' ' e y j.k.b.f.l.!.` ` ` ` ` ` ` ` ` ` ` ` ` ` ` ` ` ` ` ` ` ` ` ` ` ` ` ` ~.m.n.i } 6 1 ' ' ' ' - .           ",
"        . d & ' ' ~ a ,.>.o.p.X Z ` ` ` ` ` ` ` ` ` ` ` ` ` ` ` ` ` ` ` ` ` ` ` ` ` ` ` ` ` ` Z X ^.i { | ^ ' ' ' - . .         ",
"+ + + + . ) ' K e a } h [.p.t X Z ` ` ` ` ` ` ` ` ` ` ` ` ` ` ` ` ` ` ` ` ` ` ` ` ` ` ` ` ` ` Z X t 5.} } ~ ' ' ' ) ! . ( + + + ",
"@ @ @ . % A ' 1 6 } } w u t S Y Z ` ` ` ` ` ` ` ` ` ` ` ` ` ` ` ` ` ` ` ` ` ` ` ` ` ` ` ` ` ` Z Y S x w } ~ ' ' * * / . . 3 @ @ ",
"# . . % & * ' 1 6 } } w u t R Z %.` ` ` ` ` ` ` ` ` ` ` ` ` ` ` ` ` ` ` ` ` ` ` ` ` ` ` ` ` ` %.Z R G ^.w ~ ' * ! % [ . . 8 # # ",
"$ . ! A * ' ^ | { } } w u t Q ` ` ` ` ` ` ` ` ` ` ` ` ` ` ` ` ` ` ` ` ` ` ` ` ` ` ` ` ` ` ` ` ` ` Q t u w ~ & -   . . . . 4 $ $ ",
"$ . - ' ' ' ~ } } } } w u t Q ` ` ` ` ` ` ` ` ` ` ` ` ` ` ` ` ` ` ` ` ` ` ` ` ` ` ` ` ` ` ` ` ` ` Q t u w ~ ) .   . . . . 4 $ $ ",
". [ / ' ' 2 ] } } } } w u t Q ` ` ` ` ` ` ` ` ` ` ` ` ` ` ` ` ` ` ` ` ` ` ` ` ` ` ` ` ` ` ` ` ` ` Q t u q.f A % .   ( . . 8 # # ",
". / * ' ' 7 { } } } } w u t Q ` ` ` ` ` ` ` ` ` ` ` ` ` ` ` ` ` ` ` ` ` ` ` ` ` ` ` ` ` ` ` ` ` ` Q t i.r.s.* & % . . t.. 3 @ @ ",
". ) ' ' ' 0 } } } } } } j ^.Q ` ` ` ` ` ` ` ` ` ` ` ` ` ` ` ` ` ` ` ` ` ` ` ` ` ` ` ` ` ` ` ` ` ` Q t T <.'.~ * % . . ( . + + + ",
". ) ' K e a } } } } } } } 5.Q ` ` ` ` ` ` ` ` ` ` ` ` ` ` ` ` ` ` ` ` ` ` ` ` ` ` ` ` ` ` ` ` ` ` Q T 0.7.u.0 * % . .   .       ",
". / * 1 6 { { } } } } } } F P Z %.` ` ` ` ` ` ` ` ` ` ` ` ` ` ` ` ` ` ` ` ` ` ` ` ` ` ` ` ` ` %.Z R U :.:.u.0 * ! . .           ",
". [ / 1 6 ] ] } } } } } } r O Y Z ` ` ` ` ` ` ` ` ` ` ` ` ` ` ` ` ` ` ` ` ` ` ` ` ` ` ` ` ` ` Z Y S U :.:.u.0 ' * = . .         ",
"  . - 1 6 ~ ~ } } } } } } } i X Z ` ` ` ` ` ` ` ` ` ` ` ` ` ` ` ` ` ` ` ` ` ` ` ` ` ` ` ` ` ` Z X U e.:.:.u.0 ' ' - . .         ",
"  . m ~ 7 ^ ^ | { } } } } } s  .&.` ` ` ` ` ` ` ` ` ` ` ` ` ` ` ` ` ` ` ` ` ` ` ` ` ` ` ` ` ` Z X b.:.:.:.u.a e K - . .         ",
"  . /.v.z ' ' 1 6 } { q p r u.h.*.~.` ` ` ` ` ` ` ` ` ` ` ` ` ` ` ` ` ` ` ` ` ` ` ` ` ` ` ` !.l.n.b.:.+...w.} 6 1 - . .   . .   ",
"  . x.y.z.' ' 1 6 } | ^ q F t c.h.{.` ` ` ` ` ` ` ` ` ` ` ` ` ` ` ` ` ` ` ` ` ` ` ` ` ` ` ` g.n.t b.:...> A.} 6 1 - . .   . .   ",
"  . . . = & ' 1 6 } 0 1 6 5.t T <.9.2.` ` ` ` ` ` ` ` ` ` ` ` ` ` ` ` ` ` ` ` ` ` ` ` ` ` 1.Y i.o.<.j.B.I 0 } 6 1 - . .   . .   ",
"    . . . - & 1 6 } 0 2 7 C.^.i.o.<.D.` ` ` ` ` ` ` ` ` ` ` ` ` ` ` ` ` ` ` ` ` ` ` ` ` ` Q t T <.j.u.6 1 0 } 6 1 - . .         ",
"      . . . - 1 a { | 1 K 0 i t t o.E.Z %.` ` ` ` ` ` ` ` ` ` ` ` ` ` ` ` ` ` ` ` ` ` %.Z R t i.r.F.{ a 1 0 } 6 1 - . .         ",
"        . . - K 1 | { a 1 0 i t t i.t Y Z ` ` ` ` ` ` ` ` ` ` ` ` ` ` ` ` ` ` ` ` ` ` Z Y S t u q.r | 1 K 0 } 6 1 - .           ",
"          . % / * ^ 7 6 1 0 h s u t t S R 3.2.` ` ` ` ` ` ` ` ` ` ` ` ` ` ` ` ` ` 2.D.E.t G.i j } } 0 ' ' 0 } 6 1 - .           ",
"+ + + + + + . [ / ) W 7 ~ H.a r F L t t t U ].{.~.` ` ` ` ` ` ` ` ` ` ` ` ` ` !.g.I.b.8.x v } } } } 0 ' ' 0 } 6 1 - . + + + + + ",
"@ @ @ . @ @ @ . . . = V a ~ ~ q p F u t t t U h.m.Z Z Z %.` ` ` ` ` ` %.Z Z Z l.n.t G ^.w } } } } } 0 ' ' 0 { a 1 - . @ @ @ @ @ ",
"# . . . # # # # . . . ! V 7 7 ^ q r s t t t i.i.n.X X Y Z ` ` ` ` ` ` Z Y X X n.t t x w } } } } } } 0 ' ' 0 | 1 K - . . # # # # ",
"$ . . . $ $ $ $ $ $ . . = o 0 1 6 } h i i i i i i ^.t S R Q Q Q Q Q Q R S t t u s i k ] { } } } } } 0 2 7 6 0 ' ' - . . $ $ $ $ ",
"$ . . . $ $ $ $ $ $ 4 . . J.K.2 7 0 0 | { } } r F.L.U U U T t t t t t G x 5.5.F A.0 ~ 1 6 } } } } } 0 1 6 a ~ * A ! . . $ $ $ $ ",
"# . . . . # # . . . . M.. . - ' ' ' ' 1 a { } ,.j.k.:.:.:.0.T T T T t ^.y 6 6 a 1 ' ' 1 6 } } } } { 7 z v.e ' * % . . . # # # # ",
"@ @ @ . . @ @ . . . . . t.. - ' ' ' ' K 1 | } } ,.d.:.:.:.7.<.<.<.<.N.y ^ 1 1 1 K ' ' 1 6 } } } } ] 2 z.y.: @ * % . . @ @ @ @ @ ",
"+ + + . . + + . . - - . . d & ' ' ' ' 2 7 6 } } } O.u.u.u.j.:.:.:.N.O.6 1 ' ' ' ' ' ^ | { } } { ] 1 & - : . / * % . + + + + + + ",
"      . .     . . ) & - - & ' ' ' ' ' 1 6 } } } } } } } } u.P.P.P.O.6 7 2 ' ' ' ' ' ~ } } a 0 7 2 & - . 3 - / / %               ",
"                . / * ' ' 2 1 1 1 1 1 ^ q } } p q { } } } { 6 6 6 6 7 ' ' ' ' ' ' ' e 6 6 e ' ' ' - . . _ * / .                 ",
"                  % / ' ' 7 6 6 6 6 6 q p } } q ^ | } } } ] 1 1 1 1 2 ' ' ' ' ' ' ' K 1 1 K ' ' ' - . . t.% [ .       .         ",
"                    ! - - W K.Q.Q.Q.Q.Q.Q.Q.c e K ^ ~ ~ ~ 1 ' ' ' ' ' ' ' ' ' ' ' ' ' ' ' ' ' * / % . ( . . .       . . .       ",
"                      . . - - . . . . . . . ! ) ) ) & ' ' ' * A * ' ' ' ' ' ' ' ' ' ' ' ' ' * / [ .     . .       . . . .       ",
"                        . . . .           . . . . . = * * * / % & * * * ' ' * * * * * * * * / . .       .         . . .         ",
"                                                  . . % % % [ . % A A ! * ' A % % % % % % % [ . .     .                         ",
"                                                    . . . . . .   = ! . = - ! . . . . . . . .                                   ",
"                                                      . . . . .     . . . . . . . . . . . .                                     ",
"                                                                      . . . .     . . . .                                       "};
