/* XPM */
static char * floor (copy)_xpm[] = {
"64 64 321 2",
"  	c #755338",
". 	c #704F35",
"+ 	c #674830",
"@ 	c #5D402C",
"# 	c #543927",
"$ 	c #76633A",
"% 	c #7A7D40",
"& 	c #768045",
"* 	c #6D7448",
"= 	c #6A6D4B",
"- 	c #6D6847",
"; 	c #725B3E",
"> 	c #84B24F",
", 	c #78BA59",
"' 	c #5BA161",
") 	c #4F9465",
"! 	c #5A875C",
"~ 	c #7B9E4B",
"{ 	c #7AC05B",
"] 	c #6AC465",
"^ 	c #4BAE6C",
"/ 	c #3EA36F",
"( 	c #43A36E",
"_ 	c #4A9868",
": 	c #617E57",
"< 	c #5FB665",
"[ 	c #41A66E",
"} 	c #53A46A",
"| 	c #419E6D",
"1 	c #7C8843",
"2 	c #89C755",
"3 	c #7ACF61",
"4 	c #50B16B",
"5 	c #4BA06C",
"6 	c #569A6A",
"7 	c #725036",
"8 	c #745237",
"9 	c #7A8742",
"0 	c #88C654",
"a 	c #4C866C",
"b 	c #6C4C33",
"c 	c #64452F",
"d 	c #5C3F2B",
"e 	c #684931",
"f 	c #6F4E35",
"g 	c #695B33",
"h 	c #70783C",
"i 	c #779C49",
"j 	c #79C05B",
"k 	c #6DC464",
"l 	c #53AE6A",
"m 	c #4B9F6B",
"n 	c #559667",
"o 	c #528766",
"p 	c #43726A",
"q 	c #43746B",
"r 	c #538C69",
"s 	c #519966",
"t 	c #627E55",
"u 	c #6F593C",
"v 	c #583C29",
"w 	c #523826",
"x 	c #60432D",
"y 	c #664730",
"z 	c #687539",
"A 	c #7DAF4C",
"B 	c #77BF5A",
"C 	c #5EB565",
"D 	c #58A869",
"E 	c #497863",
"F 	c #406662",
"G 	c #3B5F63",
"H 	c #3C6466",
"I 	c #57A068",
"J 	c #6B6646",
"K 	c #503625",
"L 	c #667F3A",
"M 	c #84C553",
"N 	c #439E6D",
"O 	c #529667",
"P 	c #518162",
"Q 	c #3F605E",
"R 	c #36505B",
"S 	c #37565F",
"T 	c #3A6267",
"U 	c #539A6A",
"V 	c #43A06E",
"W 	c #666B4A",
"X 	c #3D946C",
"Y 	c #417865",
"Z 	c #374D56",
"` 	c #334453",
" .	c #344A57",
"..	c #44856E",
"+.	c #3E996F",
"@.	c #736038",
"#.	c #787C3F",
"$.	c #768640",
"%.	c #72843F",
"&.	c #6A7639",
"*.	c #605530",
"=.	c #76A046",
"-.	c #88CC55",
";.	c #3B8F6C",
">.	c #396964",
",.	c #323E4F",
"'.	c #395C64",
").	c #3B686C",
"!.	c #3C7B70",
"~.	c #3C9570",
"{.	c #5F7D56",
"].	c #656444",
"^.	c #645137",
"/.	c #83B14F",
"(.	c #87C654",
"_.	c #80B04D",
":.	c #6F783B",
"<.	c #7FB04D",
"[.	c #89CC56",
"}.	c #8DD85B",
"|.	c #499868",
"1.	c #57855C",
"2.	c #7B8843",
"3.	c #8FDE5D",
"4.	c #788742",
"5.	c #89DA5E",
"6.	c #7FD260",
"7.	c #42906A",
"8.	c #3B6963",
"9.	c #385A63",
"0.	c #3A6369",
"a.	c #3E766C",
"b.	c #43946D",
"c.	c #4E9465",
"d.	c #686C4A",
"e.	c #60BC67",
"f.	c #529166",
"g.	c #406962",
"h.	c #385761",
"i.	c #416E65",
"j.	c #529267",
"k.	c #354B58",
"l.	c #334252",
"m.	c #36515C",
"n.	c #37545E",
"o.	c #323F50",
"p.	c #344856",
"q.	c #81A44A",
"r.	c #8BCD57",
"s.	c #3B766D",
"t.	c #3B946F",
"u.	c #8ED85B",
"v.	c #396D67",
"w.	c #3B916D",
"x.	c #3A8E6A",
"y.	c #376460",
"z.	c #385660",
"A.	c #398B68",
"B.	c #355B5A",
"C.	c #73843F",
"D.	c #398967",
"E.	c #345757",
"F.	c #6E823D",
"G.	c #85C553",
"H.	c #696545",
"I.	c #626243",
"J.	c #5E4E35",
"K.	c #69803B",
"L.	c #37484F",
"M.	c #435C51",
"N.	c #496652",
"O.	c #4A6A55",
"P.	c #4C735C",
"Q.	c #4E7C62",
"R.	c #508568",
"S.	c #4C906C",
"T.	c #419C6E",
"U.	c #55855B",
"V.	c #50835A",
"W.	c #575C40",
"X.	c #83C552",
"Y.	c #669856",
"Z.	c #77B659",
"`.	c #78B75A",
" +	c #78BA5C",
".+	c #79BD5E",
"++	c #7AC060",
"@+	c #6ABA65",
"#+	c #4BAA6C",
"$+	c #616142",
"%+	c #4C835A",
"&+	c #545B3F",
"*+	c #5E763B",
"=+	c #71B857",
"-+	c #5A8455",
";+	c #7DC05A",
">+	c #93E05E",
",+	c #9BE460",
"'+	c #9FE661",
")+	c #5AA061",
"!+	c #5B4C34",
"~+	c #524730",
"{+	c #50683E",
"]+	c #509E5F",
"^+	c #89D45C",
"/+	c #B3F067",
"(+	c #BFF66B",
"_+	c #77B959",
":+	c #4C6042",
"<+	c #429163",
"[+	c #499B66",
"}+	c #3B6D5C",
"|+	c #395A56",
"1+	c #446253",
"2+	c #ABEC65",
"3+	c #C3F86C",
"4+	c #CFFF70",
"5+	c #4F6143",
"6+	c #439164",
"7+	c #6ABD63",
"8+	c #499464",
"9+	c #68AA5D",
"0+	c #CBFC6E",
"a+	c #566445",
"b+	c #469264",
"c+	c #95CD59",
"d+	c #818C45",
"e+	c #5F6847",
"f+	c #4A9365",
"g+	c #B0DC61",
"h+	c #8C9448",
"i+	c #4D9465",
"j+	c #3CA370",
"k+	c #79C85F",
"l+	c #78BC5B",
"m+	c #BDE365",
"n+	c #92984B",
"o+	c #4E9E65",
"p+	c #4B7858",
"q+	c #BEE365",
"r+	c #3C9F70",
"s+	c #3C9970",
"t+	c #3A9069",
"u+	c #366A5D",
"v+	c #3C8570",
"w+	c #3B9C6D",
"x+	c #3C766F",
"y+	c #3B876D",
"z+	c #4A9F69",
"A+	c #6ABF64",
"B+	c #377661",
"C+	c #335055",
"D+	c #3C6C6D",
"E+	c #3A6A67",
"F+	c #3E7B65",
"G+	c #324451",
"H+	c #4EA46B",
"I+	c #49896D",
"J+	c #386463",
"K+	c #3A8169",
"L+	c #72C163",
"M+	c #63A567",
"N+	c #385A61",
"O+	c #82CF60",
"P+	c #68B366",
"Q+	c #4D785F",
"R+	c #79BC5D",
"S+	c #7CCF61",
"T+	c #58B269",
"U+	c #96CE59",
"V+	c #75BC5D",
"W+	c #4FAA6A",
"X+	c #B2EB65",
"Y+	c #97D35B",
"Z+	c #6C8D51",
"`+	c #4E9C66",
" @	c #86A64B",
".@	c #517A60",
"+@	c #85C261",
"@@	c #597E62",
"#@	c #9DCE68",
"$@	c #697246",
"%@	c #58A061",
"&@	c #3A5156",
"*@	c #476B5C",
"=@	c #6E9963",
"-@	c #AEDD6B",
";@	c #86C654",
">@	c #6F7E42",
",@	c #75B958",
"'@	c #68A15D",
")@	c #8ECC62",
"!@	c #B9EE6B",
"~@	c #6C813D",
"{@	c #53976A",
"]@	c #447B6E",
"^@	c #44966E",
"/@	c #3F7B6F",
"(@	c #788642",
"_@	c #5EB665",
":@	c #3C696D",
"<@	c #3A6067",
"[@	c #3F6765",
"}@	c #4B7E69",
"|@	c #609F67",
"1@	c #7FC960",
"2@	c #8ACD56",
"3@	c #83B14E",
"4@	c #767B3E",
"5@	c #3C6C6F",
"6@	c #6AAB64",
"7@	c #89D75E",
"8@	c #417E6E",
"9@	c #42756E",
"0@	c #4C836C",
"a@	c #518A6B",
"b@	c #6AB665",
"c@	c #6BAD65",
"d@	c #7AC261",
"e@	c #A7EA64",
"f@	c #B7F268",
"                                                                                            . + @ # # @ + .                     ",
"                                                          $ % & * = = = = - ;               . + @ # # @ + .                     ",
"                                                          % > , ' ) ) ) ) ! -               . + @ # # @ + .                     ",
"                                                      $ % ~ { ] ^ / ( ( / _ : - ;           . + @ # # @ + .                     ",
"                                                      % > { < ^ [ ( } } ( | _ ! -           . + @ # # @ + .                     ",
"                                                      1 2 3 4 / ( 5 6 6 5 ( / ) =           . + @ # # @ + .                     ",
". . . . . . . . . . . . . . . 7 7 8 8 7 7 . . . . . . 9 0 3 4 ( } 6 a a 6 } ( ) =   8 7 7 . b c d # # d c b . . . . . . . . . . ",
"+ + + + + + + + + + + + + + e b f 7 7 f b e + + + g h i j k l m n o p q r 6 5 s t - u f b e c @ v w w v @ c + + + + + + + + + + ",
"@ @ @ @ @ @ @ @ @ @ @ @ @ @ x y b 7 7 b y x @ @ @ z A B C l D n E F G H q a 6 I s ! J b y x d v # K K # v d @ @ @ @ @ @ @ @ @ @ ",
"# # # # # # # # # # # # # # v x e . . e x v # # # L M 3 4 N O P Q R R S T q r U V ) W e x v # w K K K K w # # # # # # # # # # # ",
"# # # # # # # # # # # # # # v x e . . e x v # # # L M 3 4 X Y Q Z ` `  .S H q ..+.) W e x v # # # # # # # # # # # # # # # # # # ",
"@ @ @ @ @ @ @ @ @ @ @ @ @ @ x y b @.#.$.%.&.*.*.z =.-.3 4 ;.>.R ` ,.,.` R '.).!.~._ {.].^.x @ @ @ @ @ @ @ @ @ @ @ @ @ @ @ @ @ @ ",
"+ + + + + + + + + + + + + + e b f #./.0 (._.:.:.<.[.}.3 4 ;.>.R ` ,.,.` R '.).!.~.| |.1.].e + + + + + + + + + + + + + + + + + + ",
". . . . . . . . . . . . . . . 7 7 2.2 3.3.0 4.4.0 5.6.k l 7.8.R ` ,.,.` R 9.0.a.b.( / c.d.. . . . . . . . . . . . . . . . . . . ",
"                                  1 2 3.3.2 1 1 2 6.e.l D f.g.R ` ,.,.` R h.9.i.j.} ( ) =                                       ",
"                                  % > 2 2 > % 1 2 3 4 N O P Q k.l.,.,.l.k.m.n.F o U V ) =                                       ",
"                                  $ % 1 1 % $ 1 2 3 4 X Y Q Z l.o.,.,.o.l.p.m.G p ..+.) =                                       ",
"                                              1 2 3 4 ;.>.R ` ,.,.,.,.,.,.` R '.).!.~.) =                                       ",
"                                              1 2 3 4 ;.>.R ` ,.,.,.,.,.,.` R '.).!.~.) =                                       ",
"                                          $ % q.r.3 4 ;.>.R ` ,.,.,.,.,.,.` R 9.0.s.t._ : - ;                                   ",
"                                          % > r.u.3 4 ;.>.R ` ,.,.,.,.,.,.` R h.9.v.w.| _ ! -                                   ",
"                                          1 2 3.3.3 4 x.y.k.l.,.,.,.,.,.,.` R z.z.8.7.( / ) = $ % % $                           ",
"                                    8 7 7 4.0 3.3.3 4 A.B.l.o.,.,.,.,.,.,.` R z.z.g.f.} ( ) = % > > %                           ",
"                                    7 f b C.(.3.3.3 4 D.E.,.,.,.,.,.,.,.,.l.k.m.n.F o U V ) = % > > %                           ",
"                                    7 b y F.G.3.3.3 4 D.E.,.,.,.,.,.,.,.,.o.l.p.m.G p ..+.) = $ % % $                           ",
"                                  ; H.I.J.K.M 3.3.3 4 D.E.,.,.,.,.,.,.L.M.N.N.O.P.Q.R.S.T.) =                                   ",
". . . . . . . . . . . . . . . . . H.U.V.W.L X.3.3.3 4 D.E.,.,.,.,.,.,.M.Y.Z.Z.`. +.+++@+#+) =                       8 7 7 . . . ",
"+ + + + + + + + + + + + + + + + + $+V.%+&+*+=+6.5.3 4 D.E.,.,.L.M.N.N.-+;+>+,+'+'+,+>+6.e.)+*                       7 f b e + + ",
"@ @ @ @ @ @ @ @ @ @ @ @ @ @ @ @ @ !+W.&+~+{+]+e.6.3 4 D.E.,.,.M.Y.Z.Z.;+^+,+/+(+(+/+,+5.6._+&                       7 b y x @ @ ",
"# # # # # # # # # # # # # # # # # # # w K :+<+4 3 6.e.[+}+|+1+-+;+>+,+'+'+2+3+4+4+3+2+,+>+0 1                       . e x v # # ",
"# # # w K K K K w # # # # # # # # # # # # 5+6+4 3 5.6.7+[+8+9+;+^+,+/+(+(+3+0+4+4+0+3+/+,+0 1                       . e x v # # ",
"@ @ d v # K K # v d @ @ @ @ @ @ @ @ @ @ @ a+b+^ ] 6.5.3 4 4 3 3.3.,+/+(+(+(+(+3+0+4+4+3+2+c+d+                      7 b y x @ @ ",
"+ + c @ v w w v @ c + + + + + + + + + + + e+f+[ ^ e.6.3 4 4 3 3.3.>+,+'+'+'+'+2+3+4+4+0+3+g+h+                      7 f b e + + ",
". . b c d # # d c b . . . . . . . . . . . W i+j+j+^ ] ] ^ ^ ] k+l+l+k+k+l+;+^+,+/+3+0+4+4+m+n+                      8 7 7 . . . ",
"    . e x v v x e .                       = ) j+j+[ ^ ^ [ [ ^ o+p+p+o+o+p+-+;+>+,+2+3+4+4+q+n+                                  ",
"    7 b y x x y b 7                       = ) r+s+s+r+[ ^ ^ [ t+u+u+t+D.E.M.Y.;+^+'+(+4+4+q+n+                                  ",
"    7 f b e e b f 7                       = ) s+v+v+s+^ ] ] ^ w+t+t+w+D.E.L.M.-+;+'+(+4+4+q+n+                                  ",
"    8 7 7 . . 7 7 8                       = ) ~.!.x+y+z+A+] ^ j+j+w+t+B+C+,.,.N.Z.'+(+4+4+q+n+                                  ",
"                                          = ) ~.!.D+E+F+z+^ [ j+j+t+u+C+G+,.,.N.Z.'+(+4+4+q+n+                                  ",
"                                          * ' H+I+p G J+K+x.A.D.D.B+C+,.,.o.l.O.`.'+(+4+4+q+n+                                  ",
"                                          & , L+M+o F N+J+y.B.E.E.C+G+,.,.l.k.P. +'+(+4+4+q+n+                                  ",
"                                          1 2 O+P+j.i.9.h.R ` ,.,.,.,.,.,.` R Q+R+'+(+0+3+g+h+                                  ",
"                                          1 2 S+T+b.a.0.9.R ` ,.,.,.,.,.,.` R Q+R+'+(+3+2+U+d+                                  ",
"                                          % > V+W+~.!.).'.R ` ,.,.,.,.,.,.` R Q+R+,+/+X+Y+> %                                   ",
"                                          $ % Z+`+~.!.).'.R ` ,.,.,.,.,.,.` R Q+R+>+,+Y+ @% $                                   ",
"                                              = ) ~.!.).'.R ` ,.,.,.,.,.,.` R .@+@,+>+2 1                                       ",
". . . . . . . . . . . 7 7 8                 8 d.c.~.!.).'.R ` ,.,.,.,.,.,.` R @@#@/+,+0 4.. . . . . . . . . . . . . . . . . . . ",
"+ + + + + + + + + + e b f 7                 7 $@%@H+I+q H S  .l.o.,.,.o.l.&@*@=@-@(+'+;@%.+ + + + + + + + + + + + + + + + + + + ",
"@ @ @ @ @ @ @ @ @ @ x y b 7                 7 >@,@L+M+r q T S k.l.,.,.l.k.*@'@)@!@(+'+G.~@@ @ @ @ @ @ @ @ @ @ @ @ @ @ @ @ @ @ @ ",
"# # # # # # # # # # v x e .                 . C.G.O+P+{@]@).'.R ` ,.,.` R Q+R+,+/+/+,+X.L # # # # # # # # # # # # # # # # # # # ",
"# # # # # # # # # # v x e .                 . C.G.S+T+^@/@).'.R ` ,.,.` R Q+R+>+,+,+>+X.L # # w K K K K w # # # # # # # # # # # ",
"@ @ @ @ @ @ @ @ @ @ x y b 7                 7 $.;@3 4 +...q H S  .` `  .S Q..+3.3.3.3.G.~@@ d v # K K # v d @ @ @ @ @ @ @ @ @ @ ",
"+ + + + + + + + + + e b f 7                 7 (@(.3 4 V U r q T S R R S T R.++3.3.3.3.;@%.+ c @ v w w v @ c + + + + + + + + + + ",
". . . . . . . . . . . 7 7 8                 8 #./.j _@l D {@]@:@<@'.'.[@}@|@1@3.3.}.2@3@4@. b c d # # d c b . . . . . . . . . . ",
"                                              $ % ~ { k l ^@/@5@:@).).}@6@1@7@3.3.r.q.% $   . e x v v x e .                     ",
"                                                  1 2 6.e.5 8@9@0@a@a@|@1@>+,+,+>+2 1       7 b y x x y b 7                     ",
"                                                  1 2 5.6.b@a 0@c@d@d@1@7@,+/+/+,+2 1       7 f b e e b f 7                     ",
"                                                  % > r.u.1@|@|@1@3.3.>+,+e@f@X+Y+> %       8 7 7 . . 7 7 8                     ",
"                                                  $ % q.r.7@1@1@7@3.3.,+/+f@e@Y+ @% $                                           ",
"                                                      % > r.u.3.3.3.3.,+/+/+,+2 1                                               ",
"                                                      $ % q.r.3.3.3.3.>+,+,+>+2 1                                               ",
"                                                          % > 2 2 2 2 2 2 2 2 > %                                               ",
"                                                          $ % 1 1 1 1 1 1 1 1 % $                                               ",
"                                                                                                                                "};
