/* XPM */
static const char *cWJqYXlibnEtZXJmdm1ydWJicS5wYnooMik__679a6b48eac84[] = {
/* columns rows colors chars-per-pixel */
"64 64 159 2 ",
"   c #191E3C",
".  c #19203E",
"X  c #46133F",
"o  c #4B143C",
"O  c #1D105E",
"+  c #3C1246",
"@  c #34124C",
"#  c #381249",
"$  c #261057",
"%  c #2C1153",
"&  c #231059",
"*  c #301352",
"=  c #3D1C50",
"-  c #331D5A",
";  c #1A2543",
":  c #1D2843",
">  c #1D334D",
",  c #1C3B5D",
"<  c #23374F",
"1  c #3E275B",
"2  c #0F0F69",
"3  c #150F64",
"4  c #0F126C",
"5  c #151065",
"6  c #15196D",
"7  c #12166D",
"8  c #0F1670",
"9  c #0F1A74",
"0  c #101A73",
"q  c #0F237D",
"w  c #152374",
"e  c #10247E",
"r  c #1D2774",
"t  c #1F3079",
"y  c #173668",
"u  c #372B65",
"i  c #36336E",
"p  c #28337A",
"a  c #353570",
"s  c #26256D",
"d  c #431341",
"f  c #461A46",
"g  c #441D4A",
"h  c #481742",
"j  c #402455",
"k  c #224960",
"l  c #294D61",
"z  c #265A6E",
"x  c #315262",
"c  c #286678",
"v  c #3B6772",
"b  c #42757C",
"n  c #112C86",
"m  c #1E3281",
"M  c #10318B",
"N  c #19398C",
"B  c #113791",
"V  c #113E98",
"C  c #11429C",
"Z  c #2A468C",
"A  c #294387",
"S  c #254B95",
"D  c #284990",
"F  c #22519F",
"G  c #345D90",
"H  c #206199",
"J  c #3A6A96",
"K  c #346194",
"L  c #277798",
"P  c #1247A1",
"I  c #124BA5",
"U  c #1653A7",
"Y  c #1253AD",
"T  c #1954A8",
"R  c #1759A7",
"E  c #135DB7",
"W  c #1A5EB2",
"Q  c #135FB9",
"!  c #2055A3",
"~  c #1363BD",
"^  c #1C6CBB",
"/  c #1A68B4",
"(  c #437B9F",
")  c #1367C1",
"_  c #1469C3",
"`  c #1771C4",
"'  c #1975C5",
"]  c #1B78C5",
"[  c #217AC6",
"{  c #32919C",
"}  c #3091A2",
"|  c #349AA4",
" . c #389DA4",
".. c #2487BE",
"X. c #3187B2",
"o. c #37ABB2",
"O. c #4D92AA",
"+. c #4BA1A0",
"@. c #5AAAA3",
"#. c #57B0A9",
"$. c #51BBB6",
"%. c #4EADB5",
"&. c #5AC0B7",
"*. c #69CABA",
"=. c #1E82C7",
"-. c #2587C8",
";. c #228DC9",
":. c #2D8CCA",
">. c #378EC1",
",. c #2492CA",
"<. c #299ACC",
"1. c #2994C6",
"2. c #389ACC",
"3. c #3796C8",
"4. c #2CA4CC",
"5. c #2FACCF",
"6. c #3DA2CE",
"7. c #30ADCF",
"8. c #36B3C5",
"9. c #3CBFC3",
"0. c #33B3D0",
"q. c #36BDD2",
"w. c #57B1C0",
"e. c #3CC2C6",
"r. c #3FCECF",
"t. c #3AC6D3",
"y. c #3CCBD4",
"u. c #3ED1D6",
"i. c #43C7C7",
"p. c #51CDC6",
"a. c #4ECCD6",
"s. c #58C6D5",
"d. c #5DCDD7",
"f. c #56C6D5",
"g. c #41D7D7",
"h. c #46D9D6",
"j. c #49DCD8",
"k. c #4EDCD6",
"l. c #57DBD6",
"z. c #67C6C4",
"x. c #67D0CE",
"c. c #68DBD9",
"v. c #52E1D9",
"b. c #59E6DA",
"n. c #5EE9DB",
"m. c #6FE2CD",
"M. c #76E6CE",
"N. c #64ECDC",
"B. c #6BEBDC",
"V. c #62E6D8",
"C. c #75E9D8",
"Z. c #6AF0DD",
"A. c #7CF7DF",
"S. c #79FADF",
"D. c #72F3DD",
"F. c #7DFCE0",
"G. c #80FBDF",
"H. c #82FFE1",
"J. c None",
/* pixels */
"J.J.J.J.J.J.J.J.J.J.J.J.J.J.J.J.J.J.J.J.o o o o J.J.J.J.J.J.J.J.J.J.J.J.J.J.J.J.J.J.J.J.J.J.J.J.J.J.J.J.J.J.J.J.J.J.J.J.J.J.J.J.",
"J.J.J.J.J.J.J.J.J.J.J.J.J.J.J.J.J.J.J.o o o o o o J.J.o o o J.J.J.J.J.o o J.J.J.J.J.J.J.J.J.J.J.J.J.J.J.J.J.J.J.J.J.J.J.J.J.J.J.",
"J.J.J.J.J.J.J.J.J.J.J.J.J.J.J.J.J.J.o o o o o o o o o o o o o J.J.J.o o o o J.J.J.J.J.J.J.J.J.J.J.J.J.J.J.J.J.J.J.J.J.J.J.J.J.J.",
"J.J.J.J.J.J.J.J.J.J.J.J.J.J.J.J.J.o o o d d d d d d d d d o o o J.o o o o o o J.J.J.J.J.J.J.J.J.J.J.J.J.J.J.J.J.J.J.J.J.J.J.J.J.",
"J.J.J.J.J.J.J.J.J.J.J.J.J.J.J.J.o o o d O 3 3 3 3 3 3 3 3 # o o o J.J.J.o J.J.J.J.J.J.J.J.J.J.J.J.J.J.J.J.J.J.J.J.J.J.J.J.J.J.J.",
"J.J.J.J.J.J.J.J.J.J.J.J.J.J.J.o o @ s A 7 2 2 2 2 2 2 2 2 O $ $ $ # J.J.J.J.J.o o o J.J.J.J.J.J.J.J.J.J.J.J.J.J.J.J.J.J.J.J.J.J.",
"J.J.J.J.J.J.J.J.J.J.J.J.J.J.+ @ @ O M ~ B M e 2 2 2 2 2 2 2 2 2 2 $ % J.J.J.o o o o o J.J.J.J.J.J.J.J.J.J.J.J.J.J.J.J.J.J.J.J.J.",
"J.J.J.J.J.J.J.J.J.J.J.J.o X % 2 2 2 M _ _ _ I 9 9 9 9 9 9 9 8 2 2 2 2 3 + d d d o o o o J.J.J.J.J.J.J.J.J.J.J.J.J.J.J.J.J.J.J.J.",
"J.J.J.J.J.J.J.J.J.J.J.o o % 3 2 2 2 M _ _ _ ~ E E E E E E E C 2 2 2 2 2 3 3 3 O d o o o o J.J.J.J.J.J.J.J.J.J.J.J.J.J.J.J.J.J.J.",
"J.J.J.J.J.J.J.J.J.J.o X % 3 e P P P Y _ _ _ _ _ _ _ _ _ _ _ E P P P P P P P P C D D p % X o o o J.J.J.J.J.J.J.J.J.J.J.J.J.J.J.J.",
"J.J.J.J.J.J.J.J.J.o d * n M N D D W _ _ _ _ _ _ _ _ _ _ _ _ ] ,.,.,.,.;._ _ _ _ ;.,./ n * @ + o J.J.J.J.J.J.J.J.J.J.J.J.J.J.J.J.",
"J.J.J.J.J.J.J.J.J.g - q E ~ A o g S _ ) Q E E Q ) _ _ _ _ ` <.g.g.g.g.y.=.' ' =.y.g.0.^ 0 2 & d o o o J.J.J.J.J.J.J.J.J.J.J.J.J.",
"J.J.J.J.J.J.J.J.o Z W E J.j f g ! ~ _ Q e 9 9 e Q _ _ _ _ 4.y.g.g.g.g.g.y.y.y.y.g.g.u.8.w 2 3 O d o o o o J.J.J.J.J.J.J.J.J.J.J.",
"J.J.J.J.J.J.J.J.o D _ J.f o 1 S ~ _ Y n 4 M P I ~ _ _ ` 4.t.g.g.g.g.g.g.g.g.g.g.g.g.g.t.R P M 3 & + o o o o J.J.J.J.J.J.J.J.J.J.",
"J.J.J.J.J.J.J.J.o D F J.o 1 Z ~ I P M 2 2 P _ _ ;.,.,.1.} { { { { { { | r.g.j.b.b.j.g.y.<.] Y n 4 $ + o o o o J.J.J.J.J.J.J.J.J.",
"J.J.J.J.J.J.J.o J.J.J.o g S ~ Y 9 2 6 r 0 I _ ' 8.9.9.o.>             > o.9.p.M.G.b.g.g.g.,._ E 9 2 & d o o o o J.J.J.J.J.J.J.J.",
"J.J.J.J.J.J.J.J.J.o o g ! ~ I 9 4 2 G x.^ ~ _ / , > > > .             . > > < x M.b.g.g.g.,._ E 9 2 3 O d o o o o J.J.J.J.J.J.J.",
"J.J.J.J.J.J.J.J.J.o 1 S ~ C e w O.%.z.C.[ ,.X.y ;                             : v &.b.g.g.q.,.~ I e 2 3 & + o o o o J.J.J.J.J.J.",
"J.J.J.J.J.J.J.J.J.o u P P e t ( C.H.S.l.H L c                                     b +. .l.j.7._ _ M 2 2 2 $ + o o o o J.J.J.J.J.",
"J.J.J.J.J.J.J.J.o X % 2 2 2 J H.H.F.V.o.>                                             < *.l.7._ _ B 8 2 2 2 & d o o o J.J.J.J.J.",
"J.J.J.J.J.J.J.o o % 3 2 2 2 J H.H.n. .> .                                             . <  .7._ _ ~ C 2 2 2 3 O d o o J.J.J.J.J.",
"J.J.J.J.J.J.J.X % 3 2 2 2 J z.H.H.b.{                                                     +.l.4.` _ P 2 2 2 2 3 d o o J.J.J.J.J.",
"J.J.J.J.J.J.o d 3 2 2 4 n w.H.F.Z.%.c                                                     b &.k.<.] Y n 4 2 2 3 % d o J.J.J.J.J.",
"J.J.J.J.J.o o + 3 2 4 e ^ d.F.D.i.z                                                         v m.h.,._ E 9 2 2 2 2 @ o J.J.J.J.J.",
"J.J.J.J.J.o # 3 2 2 n ^ c.A.Z.i.k ;                                                         : l e.,._ E 9 2 2 2 2 @ o J.J.J.J.J.",
"J.J.J.J.o * O 2 2 M Y [ C.N.v.9.>                                                             > 9.q.,.~ I e 2 2 2 @ o o J.J.J.J.",
"J.J.J.J.o $ 2 4 n Y _ ] l.v.g.9.>                                                             > 9.g.7._ _ M 2 2 2 $ + o J.J.J.J.",
"J.J.J.o d & 2 9 E _ _ ' y.g.r.o.>                                                             > o.r.0.' _ M 2 2 3 3 % o o J.J.J.",
"J.o o d O 3 2 9 E _ _ ' y.g.| > .                                                             . > | u.q.' M 2 3 + d X o o J.J.J.",
"J.o + & 3 2 e I ~ _ _ ' y.g.{                                                                     { g.y.' M O @ J.o o o o J.J.J.",
"J.o @ 2 2 2 M _ _ _ _ ' y.g.{                                                                     { g.y.' M $ o J.o o o o J.J.J.",
"o X % 2 2 8 B _ _ _ _ ' y.g.{                                                                     { g.y.-.N & d o J.J.o o J.J.J.",
"o % 3 2 2 C ~ _ _ _ _ ' y.g.{                                                                     { g.h.B.K 3 O d o o J.o J.J.J.",
"o $ 2 2 2 P _ _ _ _ _ _ ;.q.{                                                                     { g.j.S.X.M 3 d o o J.o J.J.J.",
"o $ 2 4 n Y _ _ _ _ _ _ _ 7.{                                                                     { j.n.F.6.P 3 d o o J.o J.J.J.",
"o % 3 9 E ~ ~ _ _ _ _ _ _ 4.} > .                                                             . > | b.H.H.6.P 3 + o o J.J.J.J.J.",
"o X % 9 E B B _ _ _ _ _ _ ` 1.o.>                                                             > o.r.b.H.H.6.P 2 3 # o o J.J.J.J.",
"J.o @ 9 E M M _ _ _ _ _ _ _ ,.9.>                                                             > 9.b.D.H.H.6.P 2 2 @ o o J.J.J.J.",
"J.o - M C e e I ~ _ _ _ _ _ <.p.<                                                             > 9.Z.H.H.H.6.Y n 4 @ o o J.J.J.J.",
"J.o u T 0 2 2 9 E _ ~ Q ) ` 6.m.x :                                                         ; k e.Z.H.G.M.3._ E 9 @ o o J.o o J.",
"J.o h = 5 2 2 9 E _ I e Q 4.g.k.m.v                                                         z e.g.Z.H.M.A U _ E 9 @ o o J.o o J.",
"J.o o o # O 2 9 E _ P 9 E 7.g.j.S.*.b                                                     c o.h.N.S.c.>.w P _ E 9 @ o o J.o o J.",
"J.J.o o o @ O 9 E _ P 8 C ..q.h.N.S.@.                                                    { g.j.S.c.6.E 9 P _ E 9 @ o o J.J.J.J.",
"J.J.J.o o o @ 9 Y ~ I 9 4 P ,.g.g.N.#.> .                                             . > | g.h.B.2.~ Y 9 P _ E 9 @ o o J.J.J.J.",
"J.J.J.J.o o @ 4 9 I ~ Y 9 P ,.g.g.h.g.o.>                                             > o.r.g.y.-.` I 9 4 P _ E 9 @ o J.J.J.J.J.",
"J.J.J.J.J.o d % 3 e C E 9 P ] <.y.g.g.r.| +.b                                     b @.#.g.5.,.;._ _ P 2 2 P _ E 9 @ o J.J.J.J.J.",
"J.J.J.J.J.J.o X % $ r C M V Y ` 4.t.g.g.g.b.&.v :                             ; z $.Z.V.0.=._ _ _ _ P 2 2 P _ E 9 @ o J.J.J.J.J.",
"J.J.J.o J.J.J.o o o # 6 Y M M Q ) 4.y.g.g.g.b.m.l > > > .             . > > > k e.g.u.q.' _ _ _ _ _ P 2 2 P ~ Y 9 @ o J.J.J.J.J.",
"J.o o o J.J.J.J.o o o + 6 C C e Q ` <.g.g.g.h.h.e.9.9.o.>             > o.9.9.e.g.g.0.' _ _ _ _ _ _ P 2 2 P I 9 4 @ o o J.J.J.J.",
"J.o o o J.J.J.J.J.J.o o # S P 9 E _ ] ,.,.,.,.,.,.q.g.r.| { { { { { { | r.g.g.y.<.,./ B ~ _ _ _ _ _ P 8 C E P 2 2 @ o o J.J.J.J.",
"J.o o o J.J.J.J.J.J.J.o o a m 8 C P P I ~ _ _ ` 2.a.b.b.b.j.g.g.g.g.g.u.0.7.7.4.U P M 9 E _ _ _ _ _ P 9 E Y M 3 & + o o J.J.J.J.",
"J.o o o o J.J.o o o o J.o o @ 2 2 2 2 9 Y ~ _ [ c.A.H.H.H.n.j.j.j.j.g.q.^ E E Y 9 2 2 9 E _ _ _ _ ~ C 0 T n 2 3 d o o o J.J.J.J.",
"J.J.J.o o J.J.o o o o o J.o @ 2 2 2 2 4 9 I _ _ [ d.H.H.H.F.S.S.S.S.f.^ e 9 9 9 4 2 2 9 E _ _ _ _ B 8 5 = J.J.3 d o o J.J.J.J.J.",
"J.J.J.o o J.J.o o @ @ o o * O 2 2 2 2 8 C E _ _ _ :.6.6.6.c.H.H.H.f.:.E 9 2 2 2 2 2 e I ~ _ _ ~ B 9 O @ J.o % 3 d o J.J.J.J.J.J.",
"J.J.J.o o J.J.o o $ O @ @ O 2 2 2 2 2 9 E _ _ _ _ _ _ _ _ 6.s.s.s.:.E C 8 2 2 2 2 2 M _ _ Y P C 8 O @ o J.@ % % d J.J.J.J.J.J.J.",
"J.J.J.J.J.J.J.J.o % 3 2 2 8 9 9 9 9 9 e Q _ _ ) Q ~ _ _ _ ~ E E E E C 2 2 2 2 2 2 2 n E E n 2 2 2 @ o o J.3 % o J.J.J.J.J.J.J.J.",
"J.J.J.J.J.J.J.J.J.d % 2 2 C E E E E E Q ) _ _ Q e I _ _ _ B 9 9 9 9 8 2 2 2 2 2 2 2 4 9 9 4 2 2 2 @ o o J.d X o J.J.J.o J.J.J.J.",
"J.J.J.J.J.J.J.J.J.J.+ @ @ r m i i i i i i i p n 4 e M M M 9 2 2 2 2 2 2 2 2 2 2 2 2 2 2 2 2 2 3 % d o J.o o o J.J.J.o o o J.J.J.",
"J.J.J.J.J.J.J.J.J.J.J.o o @ @ o o o o o o o + $ $ $ O 2 2 2 3 & 3 2 2 2 2 2 2 2 2 2 2 2 2 2 3 % X o J.J.o o J.J.J.o o o o J.J.J.",
"J.J.J.J.J.J.J.J.J.J.J.J.o o o o J.J.J.J.J.o o o o o # 3 3 3 % d O 3 3 3 2 2 3 3 3 3 3 3 3 3 % o o J.J.J.o J.J.J.J.o o o J.J.J.J.",
"J.J.J.J.J.J.J.J.J.J.J.J.J.J.J.J.J.J.J.J.J.J.J.J.J.o o d d d X o d & & + 3 2 & d d d d d d d X o o J.J.o J.J.J.J.J.J.J.J.J.J.J.J.",
"J.J.J.J.J.J.J.J.J.J.J.J.J.J.J.J.J.J.J.J.J.J.J.J.J.J.o o o o o o J.# + o # @ + o o o o o o o o J.J.J.J.J.J.J.J.J.J.J.J.J.J.J.J.J.",
"J.J.J.J.J.J.J.J.J.J.J.J.J.J.J.J.J.J.J.J.J.J.J.J.J.J.J.o o o o o J.J.o o o o o o o o o o o o J.J.J.J.J.J.J.J.J.J.J.J.J.J.J.J.J.J.",
"J.J.J.J.J.J.J.J.J.J.J.J.J.J.J.J.J.J.J.J.J.J.J.J.J.J.J.J.J.J.J.J.J.J.J.o o o o J.J.o o o o J.J.J.J.J.J.J.J.J.J.J.J.J.J.J.J.J.J.J."
};
