/* XPM */
static char * floor (copy)_xpm[] = {
"64 64 334 2",
"  	c #755338",
". 	c #704F35",
"+ 	c #674830",
"@ 	c #5D402C",
"# 	c #543927",
"$ 	c #725B3E",
"% 	c #6D6847",
"& 	c #6A6D4B",
"* 	c #5A875C",
"= 	c #4F9465",
"- 	c #76633A",
"; 	c #7A7D40",
"> 	c #6C8D51",
", 	c #4E9C66",
"' 	c #3C9F70",
") 	c #3C9970",
"! 	c #3C9570",
"~ 	c #4A9868",
"{ 	c #617E57",
"] 	c #84B24F",
"^ 	c #75BC5D",
"/ 	c #4FAA6A",
"( 	c #3C8570",
"_ 	c #3C7B70",
": 	c #419E6D",
"< 	c #768045",
"[ 	c #78BA59",
"} 	c #6AC065",
"| 	c #4BA46C",
"1 	c #3C8B70",
"2 	c #3C7770",
"3 	c #3D6E70",
"4 	c #725036",
"5 	c #745237",
"6 	c #6B7347",
"7 	c #5AA061",
"8 	c #41886E",
"9 	c #3C7170",
"0 	c #6C4C33",
"a 	c #64452F",
"b 	c #5C3F2B",
"c 	c #684931",
"d 	c #6F4E35",
"e 	c #695B33",
"f 	c #70783C",
"g 	c #66874F",
"h 	c #4E9066",
"i 	c #3C6C6F",
"j 	c #3C696D",
"k 	c #3B686C",
"l 	c #4A8C68",
"m 	c #617A57",
"n 	c #6F593C",
"o 	c #583C29",
"p 	c #523826",
"q 	c #60432D",
"r 	c #664730",
"s 	c #687539",
"t 	c #7DAF4C",
"u 	c #72B05C",
"v 	c #4F8C69",
"w 	c #3A6067",
"x 	c #395C64",
"y 	c #41816D",
"z 	c #6B6646",
"A 	c #503625",
"B 	c #635730",
"C 	c #7D8B43",
"D 	c #899246",
"E 	c #838643",
"F 	c #6B5E35",
"G 	c #5F773C",
"H 	c #72B857",
"I 	c #6AB665",
"J 	c #4C866C",
"K 	c #3A6267",
"L 	c #37565F",
"M 	c #36505B",
"N 	c #666B4A",
"O 	c #6A7639",
"P 	c #80B04D",
"Q 	c #95CD58",
"R 	c #AFDC61",
"S 	c #ACCA5B",
"T 	c #7E8441",
"U 	c #53693F",
"V 	c #529F5F",
"W 	c #4BA06C",
"X 	c #417E6E",
"Y 	c #344A57",
"Z 	c #334453",
"` 	c #778840",
" .	c #94CD58",
"..	c #ABEC65",
"+.	c #C3F86C",
"@.	c #BCE365",
"#.	c #8A9447",
"$.	c #605530",
"%.	c #5D884D",
"&.	c #489B66",
"*.	c #323E4F",
"=.	c #5F7D56",
"-.	c #656444",
";.	c #645137",
">.	c #869145",
",.	c #CBFC6E",
"'.	c #BDE365",
").	c #8D9549",
"!.	c #6F783B",
"~.	c #7FB04D",
"{.	c #73BB5C",
"].	c #4EAA69",
"^.	c #499868",
"/.	c #57855C",
"(.	c #898946",
"_.	c #AECB5C",
":.	c #788742",
"<.	c #88C654",
"[.	c #7ACF61",
"}.	c #50B16B",
"|.	c #3B666A",
"1.	c #385760",
"2.	c #354B58",
"3.	c #334252",
"4.	c #3D5E5F",
"5.	c #4A7B67",
"6.	c #51936B",
"7.	c #50A76B",
"8.	c #7C693E",
"9.	c #8B8A47",
"0.	c #92984B",
"a.	c #7C8843",
"b.	c #89C755",
"c.	c #3A6368",
"d.	c #354E5A",
"e.	c #323F50",
"f.	c #456356",
"g.	c #68A25E",
"h.	c #7AC561",
"i.	c #7ACB61",
"j.	c #6AC465",
"k.	c #4BAE6C",
"l.	c #3B946F",
"m.	c #3B766D",
"n.	c #395D64",
"o.	c #344856",
"p.	c #37484F",
"q.	c #435C51",
"r.	c #496652",
"s.	c #5A8455",
"t.	c #7DC05A",
"u.	c #8FDE5D",
"v.	c #6D7448",
"w.	c #5BA161",
"x.	c #41A66E",
"y.	c #3B916D",
"z.	c #396D67",
"A.	c #37545E",
"B.	c #334554",
"C.	c #669856",
"D.	c #77B659",
"E.	c #89D45C",
"F.	c #3B856C",
"G.	c #396564",
"H.	c #93E05E",
"I.	c #9BE460",
"J.	c #9FE661",
"K.	c #96CE59",
"L.	c #818C45",
"M.	c #3B716C",
"N.	c #395F64",
"O.	c #B3F067",
"P.	c #BFF66B",
"Q.	c #B0DC61",
"R.	c #8C9448",
"S.	c #81B653",
"T.	c #708A4D",
"U.	c #3B5559",
"V.	c #446054",
"W.	c #CFFF70",
"X.	c #C2EB68",
"Y.	c #A4B957",
"Z.	c #5A8F5D",
"`.	c #669957",
" +	c #CBF86D",
".+	c #AFCB5C",
"++	c #BEE365",
"@+	c #4D9465",
"#+	c #606848",
"$+	c #4A9365",
"%+	c #3C5A5C",
"&+	c #446255",
"*+	c #5E8656",
"=+	c #89C65D",
"-+	c #596646",
";+	c #479264",
">+	c #476E5E",
",+	c #679E5B",
"'+	c #ADE666",
")+	c #526244",
"!+	c #449264",
"~+	c #4D785F",
"{+	c #79BC5D",
"]+	c #4F6143",
"^+	c #439164",
"/+	c #4D6143",
"(+	c #429164",
"_+	c #4C6042",
":+	c #429163",
"<+	c #435D52",
"[+	c #679C5A",
"}+	c #7EC45D",
"|+	c #89D55D",
"1+	c #384C53",
"2+	c #46695B",
"3+	c #5E915E",
"4+	c #5A6C42",
"5+	c #539F60",
"6+	c #324451",
"7+	c #335055",
"8+	c #345757",
"9+	c #6C7C40",
"0+	c #75B958",
"a+	c #377661",
"b+	c #398967",
"c+	c #95CD59",
"d+	c #3B8F6C",
"e+	c #396964",
"f+	c #395A56",
"g+	c #499464",
"h+	c #3A9069",
"i+	c #366A5D",
"j+	c #355659",
"k+	c #37565D",
"l+	c #446253",
"m+	c #68AA5D",
"n+	c #3B9C6D",
"o+	c #397C65",
"p+	c #386261",
"q+	c #7FD260",
"r+	c #60BC67",
"s+	c #4A9F69",
"t+	c #3E7B65",
"u+	c #487C61",
"v+	c #68A25C",
"w+	c #3CA370",
"x+	c #89DA5E",
"y+	c #6ABF64",
"z+	c #3E8565",
"A+	c #457058",
"B+	c #457559",
"C+	c #68B15F",
"D+	c #79C85F",
"E+	c #78BC5B",
"F+	c #4AA76A",
"G+	c #3F9368",
"H+	c #4E9E65",
"I+	c #4B7858",
"J+	c #3B6D5C",
"K+	c #499B66",
"L+	c #6ABD63",
"M+	c #5BB968",
"N+	c #6FC764",
"O+	c #397E66",
"P+	c #396764",
"Q+	c #4E7C62",
"R+	c #79BD5E",
"S+	c #365B5C",
"T+	c #396366",
"U+	c #508568",
"V+	c #7AC060",
"W+	c #387862",
"X+	c #355558",
"Y+	c #4A7865",
"Z+	c #609F67",
"`+	c #7FC960",
" @	c #36515A",
".@	c #476C5D",
"+@	c #69A560",
"@@	c #89D75E",
"#@	c #3C766F",
"$@	c #3B876D",
"%@	c #3A8E6A",
"&@	c #398B68",
"*@	c #686C4A",
"=@	c #4E9465",
"-@	c #3C6C6D",
";@	c #3A6A67",
">@	c #376460",
",@	c #355B5A",
"'@	c #656B4A",
")@	c #4C9365",
"!@	c #99DE5E",
"~@	c #8DCE57",
"{@	c #636A49",
"]@	c #499365",
"^@	c #AEE062",
"/@	c #86A94B",
"(@	c #636F44",
"_@	c #549F60",
":@	c #518A6B",
"<@	c #7AC261",
"[@	c #BAE264",
"}@	c #819043",
"|@	c #6D7C41",
"1@	c #73B857",
"2@	c #737A3D",
"3@	c #71BB5C",
"4@	c #4DAA69",
"5@	c #A9DC63",
"6@	c #729850",
"7@	c #585D40",
"8@	c #5A4B33",
"9@	c #715F37",
"0@	c #648B4E",
"a@	c #4A9B66",
"b@	c #89D362",
"c@	c #5DAA63",
"d@	c #52845B",
"e@	c #5E6042",
"f@	c #697246",
"g@	c #59A061",
"h@	c #42756E",
"i@	c #4C836C",
"j@	c #8DD85B",
"k@	c #8ACD56",
"l@	c #74BB5C",
"m@	c #6BAD65",
"n@	c #8BCD57",
"o@	c #81A44A",
"p@	c #8ED85B",
"q@	c #7AC05B",
"r@	c #5FB665",
"s@	c #7B9E4B",
"                                                                                            . + @ # # @ + .                     ",
"                                                          $ % & & & & & & % $               . + @ # # @ + .                     ",
"                                                          % * = = = = = = * %               . + @ # # @ + .                     ",
"                                                      - ; > , ' ) ! ! ) ' ~ { % $           . + @ # # @ + .                     ",
"                                                      ; ] ^ / ) ( _ _ ( ) : ~ * %           . + @ # # @ + .                     ",
"                                                      < [ } | 1 2 3 3 2 1 ) ' = &           . + @ # # @ + .                     ",
". . . . . . . . . . . . . . . 4 4 5 5 4 4 . . . . . . 6 7 | 8 2 9 3 3 9 2 ( ) = &   5 4 4 . 0 a b # # b a 0 . . . . . . . . . . ",
"+ + + + + + + + + + + + + + c 0 d 4 4 d 0 c + + + e f g h 1 2 i j k k j i 2 1 l m % n d 0 c a @ o p p o @ a + + + + + + + + + + ",
"@ @ @ @ @ @ @ @ @ @ @ @ @ @ q r 0 4 4 0 r q @ @ @ s t u v 2 9 j w x x w j 9 2 y l * z 0 r q b o # A A # o b @ @ @ @ @ @ @ @ @ @ ",
"# # # # # # # # # # # # # # o B f C D E F o # # # G H I J i j K L M M L K j i _ ! = N c q o # p A A A A p # # # # # # # # # # # ",
"# # # # # # # # # # # # # # o O P Q R S T o # # # U V W X j w L Y Z Z Y L w j _ ! = N c q o # # # # # # # # # # # # # # # # # # ",
"@ @ @ @ @ @ @ @ @ @ @ @ @ @ q `  ...+.@.#.q @ $.s %.&.! _ k x M Z *.*.Z M x k _ ! ~ =.-.;.q @ @ @ @ @ @ @ @ @ @ @ @ @ @ @ @ @ @ ",
"+ + + + + + + + + + + + + + c >.R +.,.'.).c + !.~.{.].! _ k x M Z *.*.Z M x k _ ! : ^./.-.c + + + + + + + + + + + + + + + + + + ",
". . . . . . . . . . . . . . . (._.'.'._.(.. . :.<.[.}.! _ |.1.2.3.*.*.3.2.4.5.6.7.}.}.7 6 . . . . . . . . . . . . . . . . . . . ",
"                              8.9.0.0.9.8.    a.b.[.}.! _ c.d.3.e.*.*.e.3.f.g.h.i.[.[.[ <                                       ",
"                                              < [ j.k.l.m.n.o.*.*.p.q.r.r.s.t.u.u.u.u.b.a.                                      ",
"                                              v.w.k.x.y.z.A.B.*.*.q.C.D.D.t.E.u.u.u.u.b.a.                                      ",
"                                      - ; ; - & = ' ) F.G.M Z p.q.s.t.u.u.H.I.J.J.J.J.K.L.                                      ",
"                                      ; ] ] ; & = ) ( M.N.M Z q.C.t.E.u.u.I.O.P.P.P.P.Q.R.                                      ",
"                                      ; ] S.T.{ ~ l.m.K L U.V.s.t.H.I.J.J...+.W.W.W.W.X.Y.9.8.                                  ",
"                                      - ; T.Z.~ : y.z.L Y V.`.t.E.I.O.P.P.+.,.W.W.W.W. +X..+9.                                  ",
"                                          & = ' ) F.G.M Z r.D.H.I...+.W.W.W.W.W.W.W.W.W.W.++0.                                  ",
"                                    5 4 4 N @+) ( M.N.M Z r.D.I.O.+.,.W.W.W.W.W.W.W.W.W.W.++0.                                  ",
"                                    4 d 0 #+$+! _ k x %+&+*+=+..+.,.+.P.P.P.P.+.,.W.W.W.W.++0.                                  ",
"                                    4 0 r -+;+! _ k x >+,+=+'++.,.+...J.J.J.J...+.W.W.W.W.++0.                                  ",
"                                    . c q )+!+! _ k x ~+{+J.P.,.+.O.I.u.u.u.u.I.O.P.P.+.,.++0.                                  ",
". . . . . . . . . . . . . . . . . . 0 a b ]+^+! _ k x ~+{+J.P.+...I.H.u.u.u.u.H.I.J.J...+.'.0.                      5 4 4 . . . ",
"+ + + + + + + + + + + + + + + + + + a @ o /+(+! _ k x ~+{+J.P.P.J.E.t.D.D.D.D.t.E.u.u.J.P.'.0.                      4 d 0 c + + ",
"@ @ @ @ @ @ @ @ @ @ @ @ @ @ @ @ @ @ b o # _+:+! _ k x ~+{+J.P.P.J.t.s.r.r.r.r.s.t.u.u.J.P.'.0.                      4 0 r q @ @ ",
"# # # # # # # # # # # # # # # # # # # p A _+:+! _ k x ~+{+I.O.'+=+C.q.*.*.*.*.<+[+}+|+J.P.'.0.                      . c q o # # ",
"# # # p A A A A p # # # # # # # # # # # # ]+^+! _ k x ~+{+H.I.=+*+q.p.*.*.*.*.1+2+3+}+J.P.'.0.                      . c q o # # ",
"@ @ b o # A A # o b @ @ @ @ @ @ @ @ @ @ @ 4+5+| 8 M.N.~+{+u.u.D.r.6+7+8+8+7+6+Z M ~+{+I.O.Q.R.                      4 0 r q @ @ ",
"+ + a @ o p p o @ a + + + + + + + + + + + 9+0+} | F.G.~+{+u.u.D.r.7+a+b+b+a+7+Z M ~+{+H.I.c+L.                      4 d 0 c + + ",
". . 0 a b # # b a 0 . . . . . . . . . . . :.<.[.}.d+e+~+{+u.u.D.r.f+g+k.x.h+i+j+k+~+{+u.u.b.a.                      5 4 4 . . . ",
"    . c q o o q c .                       a.b.[.}.d+e+~+{+u.u.D.r.l+m+j.k.n+h+o+p+~+{+u.u.b.a.                                  ",
"    4 0 r q q r 0 4                       a.b.q+r+s+t+u+v+t.E.t.s.s.t.[.}.w+w+d+e+~+{+H.I.K.L.                                  ",
"    4 d 0 c c 0 d 4                       a.b.x+q+y+s+z+A+s.t.E.t.t.E.[.}.w+w+d+e+~+{+I.O.Q.R.                                  ",
"    5 4 4 . . 4 4 5                       a.b.u.u.[.}.h+i+B+C+D+E+D.D.C+F+w+w+d+e+~+{+J.P.++0.                                  ",
"                                          a.b.u.u.[.}.n+h+G+F+H+I+r.r.B+G+w+w+d+e+~+{+J.P.++0.                                  ",
"                                          < [ q+x+q+r+}.}.k.x.h+i+8+8+J+K+k.x.d+e+~+{+I.O.Q.R.                                  ",
"                                          v.w.r+q+x+q+[.[.j.k.n+h+b+b+K+L+j.k.d+e+~+{+H.I.K.L.                                  ",
"                                          v.w.M+N+[.[.q+x+q+r+}.}.k.x.k.j.L+K+O+P+Q+R+u.u.b.a.                                  ",
"                                          < [ N+M+}.}.r+q+x+q+[.[.j.k.x.k.K+J+S+T+U+V+u.u.b.a.                                  ",
"                                          ; ] ^ / ' ) | } [.[.[.[.j.k.n+h+W+X+U.Y+Z+`+u.u.b.a.                                  ",
"                                          - ; > , ) ( 8 | }.}.}.}.k.x.h+i+X+ @.@+@`+@@u.u.b.a.                                  ",
"                                              & = ! _ #@$@%@&@b+b+b+b+a+7+Z M ~+{+u.u.u.u.b.a.                                  ",
". . . . . . . . . . . 4 4 5                 5 *@=@! _ -@;@>@,@8+8+8+8+7+6+Z M ~+{+u.u.u.u.<.:.. . . . . . . . . . . . . . . . . ",
"+ + + + + + + + + + c 0 d 4                 4 '@)@! _ j w A.B.*.*.*.*.*.*.B.A.Q+R+H.I.!@~@~.!.+ + + + + + + + + + + + + + + + + ",
"@ @ @ @ @ @ @ @ @ @ q r 0 4                 4 {@]@! _ i j n.o.*.*.*.*.*.*.o.n.U+V+I.O.^@/@s $.@ @ @ @ @ @ @ @ @ @ @ @ @ @ @ @ @ ",
"# # # # # # # # # # o q c .                 . (@_@| 8 2 9 c.d.3.e.*.*.e.3.d.c.:@<@J.P.[@}@# # # # # # # # # # # # # # # # # # # ",
"# # # # # # # # # # o q c .                 . |@1@} | 1 2 |.1.2.3.*.*.3.2.1.|.:@<@J.P.[@}@# # p A A A A p # # # # # # # # # # # ",
"@ @ @ @ @ @ @ @ @ @ q r 0 4                 4 2@~.3@4@! _ j w L Y Z Z Y L w j :@<@I.O.5@6@7@8@o # A A # o b @ @ @ @ @ @ @ @ @ @ ",
"+ + + + + + + + + + c 0 d 4                 4 9@2@0@a@! _ i j K L M M L K j i :@<@H.I.b@c@d@e@@ o p p o @ a + + + + + + + + + + ",
". . . . . . . . . . . 4 4 5                 5 4 4 f@g@| 8 2 9 j w x x w j h@i@Z+`+j@k@l@/ @+{@a b # # b a 0 . . . . . . . . . . ",
"                                                  < [ } | 1 2 i j k k j i i@m@`+@@n@o@> , = N c q o o q c .                     ",
"                                                  ; ] ^ / ! _ 3 3 3 3 3 3 :@<@p@n@] ; % * * z 0 r q q r 0 4                     ",
"                                                  - ; > , ! _ 3 3 3 3 3 3 :@<@n@o@; - $ % % n d 0 c c 0 d 4                     ",
"                                                      v.w.| 8 2 9 3 3 h@i@Z+`+b.a.          5 4 4 . . 4 4 5                     ",
"                                                      < [ } | 1 2 3 3 i@m@`+@@b.a.                                              ",
"                                                      ; ] q@r@7.6.:@:@Z+`+p@n@] ;                                               ",
"                                                      - ; s@q@i.h.<@<@`+@@n@o@; -                                               ",
"                                                          ; ] b.b.b.b.b.b.] ;                                                   ",
"                                                          - ; a.a.a.a.a.a.; -                                                   ",
"                                                                                                                                "};
