/* XPM */
static char *_32698cf22954d93d55864816f3d9a437hwmaFLYS8NMx5dT[] = {
/* columns rows colors chars-per-pixel */
"64 64 17 1 ",
"  c #503625",
". c #523826",
"X c #543927",
"o c #583C29",
"O c #5C3F2B",
"+ c #5D402C",
"@ c #60432D",
"# c #64452F",
"$ c #664730",
"% c #674830",
"& c #684931",
"* c #6C4C33",
"= c #6F4E35",
"- c #704F35",
"; c #725036",
": c #745237",
"> c #755338",
/* pixels */
">>>>>>>>>>>>>>>>>>>>>>>>>>>>>>>>>>>>>>>>>>>>>>-%+XX+%->>>>>>>>>>",
">>>>>>>>>>>>>>>>>>>>>>>>>>>>>>>>>>>>>>>>>>>>>>-%+XX+%->>>>>>>>>>",
">>>>>>>>>>>>>>>>>>>>>>>>>>>>>>>>>>>>>>>>>>>>>>-%+XX+%->>>>>>>>>>",
">>>>>>>>>>>>>>>>>>>>>>>>>>>>>>>>>>>>>>>>>>>>>>-%+XX+%->>>>>>>>>>",
">>>>>>>>>>>>>>>>>>>>>>>>>>>>>>>>>>>>>>>>>>>>>>-%+XX+%->>>>>>>>>>",
">>>>>>>>>>>>>>>>>>>>>>>>>>>>>>>>>>>>>>>>>>>>>>-%+XX+%->>>>>>>>>>",
"---------------;;::;;------;;:>>>>>>>>>>>>:;;-*#OXXO#*----------",
"%%%%%%%%%%%%%%&*=;;=*&%%%%&*=;>>>>>>>>>>>>;=*&#+o..o+#%%%%%%%%%%",
"++++++++++++++@$*;;*$@++++@$*;>>>>>>>>>>>>;*$@OoX  XoO++++++++++",
"XXXXXXXXXXXXXXo@&--&@oXXXXo@&->>>>>>>>>>>>-&@oX.    .XXXXXXXXXXX",
"XXXXXXXXXXXXXXo@&--&@oXXXXo@&->>>>>>>>>>>>-&@oXXXXXXXXXXXXXXXXXX",
"++++++++++++++@$*;;*$@++++@$*;>>>>>>>>>>>>;*$@++++++++++++++++++",
"%%%%%%%%%%%%%%&*=;;=*&%%%%&*=;>>>>>>>>>>>>;=*&%%%%%%%%%%%%%%%%%%",
"---------------;;::;;------;;:>>>>>>>>>>>>:;;-------------------",
">>>>>>>>>>>>>>>>>>>>>>>>>>>>>>>>>>>>>>>>>>>>>>>>>>>>>>>>>>>>>>>>",
">>>>>>>>>>>>>>>>>>>>>>>>>>>>>>>>>>>>>>>>>>>>>>>>>>>>>>>>>>>>>>>>",
">>>>>>>>>>>>>>>>>>>>>>>>>>>>>>>>>>>>>>>>>>>>>>>>>>>>>>>>>>>>>>>>",
">>>>>>>>>>>>>>>>>>>>>>>>>>>>>>>>>>>>>>>>>>>>>>>>>>>>>>>>>>>>>>>>",
">>>>>>>>>>>>>>>>>>>>>>>>>>>>>>>>>>>>>>>>>>>>>>>>>>>>>>>>>>>>>>>>",
">>>>>>>>>>>>>>>>>>>>>>>>>>>>>>>>>>>>>>>>>>>>>>>>>>>>>>>>>>>>>>>>",
">>>>>>>>>>>>>>>>>>>>>>>>>>>>>>>>>>>>>>>>>>>>>>>>>>>>>>>>>>>>>>>>",
">>>>>>>>>>>>>>>>>>>>>>>>>>>>>>>>>>>>>>>>>>>>>>>>>>>>>>>>>>>>>>>>",
">>>>>>>>>>>>>>>>>>:;;--;;:>>>>>>>>>>>>>>>>>>>>>>>>>>>>>>>>>>>>>>",
">>>>>>>>>>>>>>>>>>;=*&&*=;>>>>>>>>>>>>>>>>>>>>>>>>>>>>>>>>>>>>>>",
">>>>>>>>>>>>>>>>>>;*$@@$*;>>>>>>>>>>>>>>>>>>>>>>>>>>>>>>>>>>>>>>",
">>>>>>>>>>>>>>>>>>-&@oo@&->>>>>>>>>>>>>>>>>>>>>>>>>>>>>>>>>>>>>>",
"------------------*#OXXO#*-----;;::;;------;;:>>>>>>>>>>>>:;;---",
"%%%%%%%%%%%%%%%%%%#+o..o+#%%%%&*=;;=*&%%%%&*=;>>>>>>>>>>>>;=*&%%",
"++++++++++++++++++OoX  XoO++++@$*;;*$@++++@$*;>>>>>>>>>>>>;*$@++",
"XXXXXXXXXXXXXXXXXXX.    .XXXXXo@&--&@oXXXXo@&->>>>>>>>>>>>-&@oXX",
"XXX.    .XXXXXXXXXXXXXXXXXXXXXo@&--&@oXXXXo@&->>>>>>>>>>>>-&@oXX",
"++OoX  XoO++++++++++++++++++++@$*;;*$@++++@$*;>>>>>>>>>>>>;*$@++",
"%%#+o..o+#%%%%%%%%%%%%%%%%%%%%&*=;;=*&%%%%&*=;>>>>>>>>>>>>;=*&%%",
"--*#OXXO#*---------------------;;::;;------;;:>>>>>>>>>>>>:;;---",
">>-&@oo@&->>>>>>>>>>>>>>>>>>>>>>>>>>>>>>>>>>>>>>>>>>>>>>>>>>>>>>",
">>;*$@@$*;>>>>>>>>>>>>>>>>>>>>>>>>>>>>>>>>>>>>>>>>>>>>>>>>>>>>>>",
">>;=*&&*=;>>>>>>>>>>>>>>>>>>>>>>>>>>>>>>>>>>>>>>>>>>>>>>>>>>>>>>",
">>:;;--;;:>>>>>>>>>>>>>>>>>>>>>>>>>>>>>>>>>>>>>>>>>>>>>>>>>>>>>>",
">>>>>>>>>>>>>>>>>>>>>>>>>>>>>>>>>>>>>>>>>>>>>>>>>>>>>>>>>>>>>>>>",
">>>>>>>>>>>>>>>>>>>>>>>>>>>>>>>>>>>>>>>>>>>>>>>>>>>>>>>>>>>>>>>>",
">>>>>>>>>>>>>>>>>>>>>>>>>>>>>>>>>>>>>>>>>>>>>>>>>>>>>>>>>>>>>>>>",
">>>>>>>>>>>>>>>>>>>>>>>>>>>>>>>>>>>>>>>>>>>>>>>>>>>>>>>>>>>>>>>>",
">>>>>>>>>>>>>>>>>>>>>>>>>>>>>>>>>>>>>>>>>>>>>>>>>>>>>>>>>>>>>>>>",
">>>>>>>>>>>>>>>>>>>>>>>>>>>>>>>>>>>>>>>>>>>>>>>>>>>>>>>>>>>>>>>>",
">>>>>>>>>>>>>>>>>>>>>>>>>>>>>>>>>>>>>>>>>>>>>>>>>>>>>>>>>>>>>>>>",
">>>>>>>>>>>>>>>>>>>>>>>>>>>>>>>>>>>>>>>>>>>>>>>>>>>>>>>>>>>>>>>>",
"-----------;;:>>>>>>>>:;;---------------------------------------",
"%%%%%%%%%%&*=;>>>>>>>>;=*&%%%%%%%%%%%%%%%%%%%%%%%%%%%%%%%%%%%%%%",
"++++++++++@$*;>>>>>>>>;*$@++++++++++++++++++++++++++++++++++++++",
"XXXXXXXXXXo@&->>>>>>>>-&@oXXXXXXXXXXXXXXXXXXXXXXXXXXXXXXXXXXXXXX",
"XXXXXXXXXXo@&->>>>>>>>-&@oXXXXXXXXXXXXXXXXXXXXX.    .XXXXXXXXXXX",
"++++++++++@$*;>>>>>>>>;*$@++++++++++++++++++++OoX  XoO++++++++++",
"%%%%%%%%%%&*=;>>>>>>>>;=*&%%%%%%%%%%%%%%%%%%%%#+o..o+#%%%%%%%%%%",
"-----------;;:>>>>>>>>:;;---------------------*#OXXO#*----------",
">>>>>>>>>>>>>>>>>>>>>>>>>>>>>>>>>>>>>>>>>>>>>>-&@oo@&->>>>>>>>>>",
">>>>>>>>>>>>>>>>>>>>>>>>>>>>>>>>>>>>>>>>>>>>>>;*$@@$*;>>>>>>>>>>",
">>>>>>>>>>>>>>>>>>>>>>>>>>>>>>>>>>>>>>>>>>>>>>;=*&&*=;>>>>>>>>>>",
">>>>>>>>>>>>>>>>>>>>>>>>>>>>>>>>>>>>>>>>>>>>>>:;;--;;:>>>>>>>>>>",
">>>>>>>>>>>>>>>>>>>>>>>>>>>>>>>>>>>>>>>>>>>>>>>>>>>>>>>>>>>>>>>>",
">>>>>>>>>>>>>>>>>>>>>>>>>>>>>>>>>>>>>>>>>>>>>>>>>>>>>>>>>>>>>>>>",
">>>>>>>>>>>>>>>>>>>>>>>>>>>>>>>>>>>>>>>>>>>>>>>>>>>>>>>>>>>>>>>>",
">>>>>>>>>>>>>>>>>>>>>>>>>>>>>>>>>>>>>>>>>>>>>>>>>>>>>>>>>>>>>>>>",
">>>>>>>>>>>>>>>>>>>>>>>>>>>>>>>>>>>>>>>>>>>>>>>>>>>>>>>>>>>>>>>>",
">>>>>>>>>>>>>>>>>>>>>>>>>>>>>>>>>>>>>>>>>>>>>>>>>>>>>>>>>>>>>>>>"
};
