/* XPM */
static const char *c3liYmU__679a642f99eff[] = {
/* columns rows colors chars-per-pixel */
"32 32 9 1 ",
"  c #503320",
". c #553823",
"X c #583A25",
"o c #5F4028",
"O c #64432B",
"+ c #6C4A2F",
"@ c #6E4B30",
"# c #724F33",
"$ c #765235",
/* pixels */
"$$$$$$$$$$$$$$$$$$$$$$$+XX+$$$$$",
"$$$$$$$$$$$$$$$$$$$$$$$+XX+$$$$$",
"$$$$$$$$$$$$$$$$$$$$$$$+XX+$$$$$",
"+++++++@##@++@#$$$$$$#@O..O+++++",
"XXXXXXXo@@oXXo@$$$$$$@o.  .XXXXX",
"XXXXXXXo@@oXXo@$$$$$$@oXXXXXXXXX",
"+++++++@##@++@#$$$$$$#@+++++++++",
"$$$$$$$$$$$$$$$$$$$$$$$$$$$$$$$$",
"$$$$$$$$$$$$$$$$$$$$$$$$$$$$$$$$",
"$$$$$$$$$$$$$$$$$$$$$$$$$$$$$$$$",
"$$$$$$$$$$$$$$$$$$$$$$$$$$$$$$$$",
"$$$$$$$$$#@@#$$$$$$$$$$$$$$$$$$$",
"$$$$$$$$$@oo@$$$$$$$$$$$$$$$$$$$",
"+++++++++O..O++@##@++@#$$$$$$#@+",
"XXXXXXXXX.  .XXo@@oXXo@$$$$$$@oX",
"X.  .XXXXXXXXXXo@@oXXo@$$$$$$@oX",
"+O..O++++++++++@##@++@#$$$$$$#@+",
"$@oo@$$$$$$$$$$$$$$$$$$$$$$$$$$$",
"$#@@#$$$$$$$$$$$$$$$$$$$$$$$$$$$",
"$$$$$$$$$$$$$$$$$$$$$$$$$$$$$$$$",
"$$$$$$$$$$$$$$$$$$$$$$$$$$$$$$$$",
"$$$$$$$$$$$$$$$$$$$$$$$$$$$$$$$$",
"$$$$$$$$$$$$$$$$$$$$$$$$$$$$$$$$",
"+++++@#$$$$#@+++++++++++++++++++",
"XXXXXo@$$$$@oXXXXXXXXXXXXXXXXXXX",
"XXXXXo@$$$$@oXXXXXXXXXX.  .XXXXX",
"+++++@#$$$$#@++++++++++O..O+++++",
"$$$$$$$$$$$$$$$$$$$$$$$@oo@$$$$$",
"$$$$$$$$$$$$$$$$$$$$$$$#@@#$$$$$",
"$$$$$$$$$$$$$$$$$$$$$$$$$$$$$$$$",
"$$$$$$$$$$$$$$$$$$$$$$$$$$$$$$$$",
"$$$$$$$$$$$$$$$$$$$$$$$$$$$$$$$$"
};
