/* XPM */
static char *a5dece20a2bd4246b23cc1cf3b63659ahQ1cMyhk6BvIE8q1[] = {
/* columns rows colors chars-per-pixel */
"64 64 252 2 ",
"   c #3A1625",
".  c #3B1925",
"X  c #3C1D27",
"o  c #3C1F28",
"O  c #362229",
"+  c #3C272C",
"@  c #322D2D",
"#  c #3E2A2D",
"$  c #3D2A37",
"%  c #2C3B32",
"&  c #3A3F35",
"*  c #3E303D",
"=  c #503625",
"-  c #523826",
";  c #543927",
":  c #583C29",
">  c #5C3F2B",
",  c #403030",
"<  c #423934",
"1  c #423739",
"2  c #433E3C",
"3  c #284636",
"4  c #254E39",
"5  c #2B4B39",
"6  c #294D39",
"7  c #344337",
"8  c #24523B",
"9  c #23543B",
"0  c #22593B",
"q  c #215C3B",
"w  c #1F633C",
"e  c #1E683C",
"r  c #1B723D",
"t  c #1C703D",
"y  c #1A773D",
"u  c #1A7A3E",
"i  c #197C3D",
"p  c #5D402C",
"a  c #60432D",
"s  c #64452F",
"d  c #664730",
"f  c #674830",
"g  c #684931",
"h  c #6C4C33",
"j  c #6F4E35",
"k  c #704F35",
"l  c #725036",
"z  c #745237",
"x  c #755338",
"c  c #3E3142",
"v  c #353C47",
"b  c #3E355A",
"n  c #3A355F",
"m  c #3B3A68",
"M  c #40344B",
"N  c #403353",
"B  c #403756",
"V  c #334048",
"C  c #245243",
"Z  c #275543",
"A  c #2A4652",
"S  c #374450",
"D  c #3B4158",
"F  c #245354",
"G  c #2D5D53",
"H  c #25545D",
"J  c #3C5950",
"K  c #365C5A",
"L  c #1D725F",
"P  c #216C41",
"I  c #276F48",
"U  c #237E49",
"Y  c #3E6D5F",
"T  c #364873",
"R  c #37427D",
"E  c #255676",
"W  c #247764",
"Q  c #3A6B74",
"!  c #40434F",
"~  c #444A4E",
"^  c #404056",
"/  c #444A56",
"(  c #474E56",
")  c #41405C",
"_  c #41455F",
"`  c #415257",
"'  c #405A58",
"]  c #4F6558",
"[  c #474A67",
"{  c #43466E",
"}  c #435C6F",
"|  c #465673",
" . c #475777",
".. c #4B5D70",
"X. c #496D6B",
"o. c #586667",
"O. c #446973",
"+. c #456F7B",
"@. c #46767F",
"#. c #149D2F",
"$. c #1A8437",
"%. c #178A37",
"&. c #18813B",
"*. c #159632",
"=. c #159831",
"-. c #14A02E",
";. c #179F4F",
":. c #1A8756",
">. c #1B805C",
",. c #189653",
"<. c #19985D",
"1. c #1C8366",
"2. c #1C826F",
"3. c #378661",
"4. c #354484",
"5. c #384884",
"6. c #334B8A",
"7. c #265788",
"8. c #245F88",
"9. c #2B4E9D",
"0. c #314C99",
"q. c #2E53A0",
"w. c #2E51A7",
"e. c #2759A1",
"r. c #2C54AE",
"t. c #275AAA",
"y. c #355EA7",
"u. c #355DAD",
"i. c #275BBB",
"p. c #2959BB",
"a. c #2959BC",
"s. c #2864AA",
"d. c #3861B6",
"f. c #386DB3",
"g. c #415182",
"h. c #4E6787",
"j. c #4A7484",
"k. c #467881",
"l. c #477D85",
"z. c #44768C",
"x. c #487E88",
"c. c #4C6896",
"v. c #476FAB",
"b. c #4275A6",
"n. c #5276A1",
"m. c #537DA4",
"M. c #275BC4",
"N. c #285CC4",
"B. c #2760C5",
"V. c #296AC4",
"C. c #2768C8",
"Z. c #3165C2",
"A. c #3468C2",
"S. c #3069C4",
"D. c #2679CF",
"F. c #3D71C1",
"G. c #248BB5",
"H. c #2387B9",
"J. c #298BBE",
"K. c #209FB2",
"L. c #4A808F",
"P. c #4B8193",
"I. c #4E849D",
"U. c #65818F",
"Y. c #67848F",
"T. c #6F8B90",
"R. c #629A90",
"E. c #6BBC89",
"W. c #4E81A5",
"Q. c #5389AF",
"!. c #4D82BB",
"~. c #4F83BF",
"^. c #548AB3",
"/. c #5489B5",
"(. c #568CBA",
"). c #5589BE",
"_. c #578CBE",
"`. c #588DBE",
"'. c #778FA7",
"]. c #7791A7",
"[. c #70B1A1",
"{. c #2C96C7",
"}. c #2581D2",
"|. c #258ED7",
" X c #2E8FD3",
".X c #249AD3",
"XX c #239FD3",
"oX c #239CD4",
"OX c #2492D9",
"+X c #249ADC",
"@X c #249FDE",
"#X c #2D9BD8",
"$X c #2DA1DF",
"%X c #3FA5E3",
"&X c #4284C5",
"*X c #6092C2",
"=X c #6F9ACA",
"-X c #779DC5",
";X c #729DCA",
":X c #7099CD",
">X c #659ED0",
",X c #53A3DF",
"<X c #7AA3CE",
"1X c #75AAD0",
"2X c #7993E2",
"3X c #49A7E5",
"4X c #47ACE4",
"5X c #51AEE6",
"6X c #5BABE8",
"7X c #53B0E6",
"8X c #65ADEA",
"9X c #78A4E9",
"0X c #6DB4EB",
"qX c #77B1EE",
"wX c #77BEEC",
"eX c #8697C4",
"rX c #89A8CC",
"tX c #9DAAD7",
"yX c #94B3DA",
"uX c #ABB9CD",
"iX c #8EA9E0",
"pX c #81B3F0",
"aX c #93B7F3",
"sX c #9DB9F5",
"dX c #9BBEF4",
"fX c #A6BFE2",
"gX c #A0B2EB",
"hX c #AFBAEF",
"jX c #AFBDF9",
"kX c #B1BFF0",
"lX c #B1BBF6",
"zX c #B9BFFB",
"xX c #BCC7DA",
"cX c #8FC6F0",
"vX c #A2C0E4",
"bX c #B8C8EE",
"nX c #A4C0F6",
"mX c #ABCCF6",
"MX c #B5C9F0",
"NX c #B3D4F6",
"BX c #BDD0F0",
"VX c #BCD6F8",
"CX c #BFD8F8",
"ZX c #C9CCF0",
"AX c #C0C6FB",
"SX c #C3C8FC",
"DX c #C8D5F2",
"FX c #CBD0FC",
"GX c #D2D9FA",
"HX c #DBDEFE",
"JX c #E0E3FE",
"KX c #E3E5FF",
/* pixels */
"x x x x x x x x x x x x x x x x x x x x x x x x x x x x x x x x x x x x x x x x x x x x x x k f p ; ; p f k x x x x x x x x x x ",
"x x x x x x x x x x x x x x x x x x x x x x x x x x x x x x x x x x x x x x x x x x x x x x k f p ; ; p f k x x x x x x x x x x ",
"x x x x x x x x x x x x x x x x x x x x x x x x x x x x x x x x x x x x x x x x x x x x x x k f p ; ; p f k x x x x x x x x x x ",
"x x x x x x x x x x x x x x x x x x x x x x x x x x x x x x x x x x x x x x x x x x x x x x k f p ; ; p f k x x x x x x x x x x ",
"x x x x x x x x x x x x x x x x x x x x x x x x x x x x x x x x x x x x x x x x x x x x x x k f p ; ; p f k x x x x x x x x x x ",
"x x x x x x x x x x x x x x x x x x x x x x x x x x x x x x x x x x x x x x x x x x x x x x k f p ; ; p f k x x x x x x x x x x ",
"k k k k k k k k k k k k k k k l l z z l l k k k k k k l l z x x x x x x x x x x x x z l l k h s > ; ; > s h k k k k k k k k k k ",
"f f f f f f f f f f f f f f g h j l l j h g f f f f g h j l x x x x x x x x x x x x l j h g s p : - - : p s f f f f f f f f f f ",
"p p p p p p p p p p p p p p a d h l l h d a p p p p a d h l x x x x x x x x x x x x l h d a > : ; = = ; : > p p p p p p p p p p ",
"; ; ; ; ; ; ; ; ; ; ; ; ; ; : a g k k g a : ; ; ; ; : a g k x x x x x x x x x x x x k g a : ; - = = = = - ; ; ; ; ; ; ; ; ; ; ; ",
"; ; ; ; ; ; ; ; ; ; ; ; ; ; : a g k k g a : ; ; ; ; : a g k x x x x x x x x x x x x k g a : ; ; ; ; ; ; ; ; ; ; ; ; ; ; ; ; ; ; ",
"p p p p p p p p p p p p p p a d h l l h d a p p p p a d h l x x x x x x x x x x x x l h d a p p p p p p p p p p p p p p p p p p ",
"f f f f f f f f f f f f f f g h j l l j h g f f f f g h j l x x x x x x x x x x x x l j h g f f f f f f f f f f f f f f f f f f ",
"k k k k k k k k k k k k k k k l l z z l l k k k k k k l l z x x x x x x x x x x x x z l l k k k k k k k k k k k k k k k k k k k ",
"x x x x x x x x x x x x x x x x x x x x x x x x x x x x x x x x x x x x x x x x x x x x x x x x x x x x x x x x x x x x x x x x ",
"x x x x x x x x x x x x x x x x x x x x x x x x x x x x x x x x x x x x x x x x x x x x x x x x x x x x x x x x x x x x x x x x ",
"x x x x x x x x x x x x x x x x x x x x x x x x x x x x x -.-.-.#.*.:.x x x x x x x x x x x x x x x x x x x x x x x x x x x x x ",
"x x x x x x x x x x x x x x x x x x x x x x x x x -.-.-.=.&.=.&.&.u H.N.N.N.N.x x x x x x x x x x x x x x x x x x x x x x x x x ",
"x x x x x x x x x x x x x x x x x x x x x x x -.-.-.-.-.*.&.u r r u @X@XC.N.N.N.M.x x x x x x x x x x x x x x x x x x x x x x x ",
"x x x x x x x x x x x x x x x x x x x x x x -.-.%.-.&.&.u w q 9 9 q @XD.+X|.N.N.N.M.x x x x x x x x x x x x x x x x x x x x x x ",
"x x x x x x x x x x x x x x x x x x x x x -.#.*.u r I X.e 8 U.tX'.G.@XD.V.{.|.N.N.N.m x x x x x x x x x x x x x x x x x x x x x ",
"x x x x x x x x x x x x x x x x x x x x [.-.&.u r ].tXU.8 '.HXxX-X.X@X@X!.f.|.N.N.N.w.N x x x x x x x x x x x x x x x x x x x x ",
"x x x x x x x x x x x x x x x x x x z KXKXHXy Y Y.HXHXT.FXKXKXKXVX$X7XCXMXS.N.N.N.N.0.b lXx x x x x x x x x x x x x x x x x x x ",
"x x x x x x x x x x x x x x x x x x KXKXHXR.t uXHXKXKXKXKXFXSXHXnX$XKXFX%X9X2X2.L L 0.0.gX_.x x x x x x x x x x x x x x x x x x ",
"x x x x x x x x x x x x x x x x x x KXKXHXHXJXJXKXKXKXKXHX8X%X@X@X@X@X@X8XAX-.-.*.u P eX`.`.x x x x x x x x x x x x x x x x x x ",
"x x x x x x x x x x x x x x x x x d.KXKXKXKXHXHXKXKXKXKXJXAX%X@X@X@X@XcXHXE.-.%.*.u u J ..`.l.x x x x x x x x x x x x x x x x x ",
"k k k k k k k k k k k k k k k k k |.%XaXdXNXVXAXaX%XAXHXmX@X@X@X@X@XK.-.-.-.-.-.u u U o.`.`.l.x x x x x x x x x x x z l l k k k ",
"f f f f f f f f f f f f f f f f f |.@X@X1.1XpX3X@X@X8XzXjX%X@X@X@X@XXX;.-.%.%.%.r q rX:X`.I.l.x x x x x x x x x x x l j h g f f ",
"p p p p p p p p p p p p p p p p p }.@XW $.] 5X3X@X@X@X@X@X@X4X@X@X@X@X<.&.=.u u u 3.Q `.P.x.k.x x x x x x x x x x x l h d a p p ",
"; ; ; ; ; ; ; ; ; ; ; ; ; ; ; ; N.N.@XJ.] ZXJX0X@X@X@X@X@XqX4X@X@X@X@X<.i i u w 3.hXiX`.`. .) N x x x x x x x x x x k g a : ; ; ",
"; ; ; - = = = = - ; ; ; ; ; ; ; N.N.C.+X:X3X@X@X@X@X@X@X4XdX@X%X%X@X6X%X,.w t 0 G /.)./ < M N N x x x x x x x x x x k g a : ; ; ",
"p p > : ; = = ; : > p p p p p p N.N.C.+X,XsX@X@X@X@X@X@X@X@X%X6X%X@XjX%XoX>.8 8 6 ~ ).y.M N N N x x x x x x x x x x l h d a p p ",
"f f s p : - - : p s f f f f f f N.N.@X4X@XcXcX@X@X@X@X@X6X%X8XHXVX$XwXFX@XOXy 0 < < < 6.N N N N x x x x x x x x x x l j h g f f ",
"k k h s > ; ; > s h k k k k k k N.N.#XBXmX%X%XaXqX@X@XqX6XmXHXKXJXVXKXFXOXB.8.7 < < < 6.N N N N x x x x x x x x x x z l l k k k ",
"x x k g a : : a g k x x x x x x N.N. XvXKXFXFXwX3X$X8XHXFXKXKXKXKXKXKXkXZ.N.}.E D D 0.b N N N N x x x x x x x x x x x x x x x x ",
"x x l h d a a d h l x x x x x x x N.B. XyXKXDXDXHXVXHXKXKXKXKXKXyXKX<X*X~.N.N.N.N.4.u.{ N N N x x x x x x x x x x x x x x x x x ",
"x x l j h g g h j l x x x x x x x N.N.N.Z.).~.fXbXGXKXKXKXDX>X=X`.`.`.`.b.N.N.r.5.g.(.| N N N x x x x x x x x x x x x x x x x x ",
"x x z l l k k l l z x x x x x x x N.N.N.N.Z.s.' ..;XyXKX<X*X&XZ.F.`.`.Q C H v.c.~.`.Q.l.} N N x x x x x x x x x x x x x x x x x ",
"x x x x x x x x x x x x x x x x x N.N.N.N.N.S 5 T ~.`.`.~.).~.N.7.8 8 8 Z z.[ `.`.P.l.+.N N N x x x x x x x x x x x x x x x x x ",
"x x x x x x x x x x x x x x x x x x N.N.N.N.p.q.~.).A.A.N.Z.Z.N.8 8 6 & ` W.^.P.P.x._ B N N x x x x x x x x x x x x x x x x x x ",
"x x x x x x x x x x x x x x x x x x M.N.N.N.N.N.Z.).~.A.i.e.t.N.8 8 2 h.1 n.`.^.O.^ ) N N N x x x x x x x x x x x x x x x x x x ",
"x x x x x x x x x x x x x x x x x x x M.N.N.N.N.N.Z.A.A.F 8 C t.V 8 ( n.m.I.^.x.l.! c N N x x x x x x x x x x x x x x x x x x x ",
"x x x x x x x x x x x x x x x x x x x x m R r.r.a.a.9.F 8 6 5 8 v 4 `.`.Q.L.l.l.@.$     x x x x x x x x x x x x x x x x x x x x ",
"x x x x x x x x x x x x x x x x x x x x x m 0.0.n A % 3 6 + , 3 @ @ K j.l.l.O.* $     x x x x x x x x x x x x x x x x x x x x x ",
"x x x x x x x x x x x x x x x x x x x x x x     O O O O # , o o %                   x x x x x x x x x x x x x x x x x x x x x x ",
"x x x x x x x x x x x x x x x x x x x x x x x             X . .                   x x x x x x x x x x x x x x x x x x x x x x x ",
"k k k k k k k k k k k l l z x x x x x x x x z l l                             k k k k k k k k k k k k k k k k k k k k k k k k k ",
"f f f f f f f f f f g h j l x x x x x x x x l j h g f f f             f f f f f f f f f f f f f f f f f f f f f f f f f f f f f ",
"p p p p p p p p p p a d h l x x x x x x x x l h d a p p p p p p p p p p p p p p p p p p p p p p p p p p p p p p p p p p p p p p ",
"; ; ; ; ; ; ; ; ; ; : a g k x x x x x x x x k g a : ; ; ; ; ; ; ; ; ; ; ; ; ; ; ; ; ; ; ; ; ; ; ; ; ; ; ; ; ; ; ; ; ; ; ; ; ; ; ",
"; ; ; ; ; ; ; ; ; ; : a g k x x x x x x x x k g a : ; ; ; ; ; ; ; ; ; ; ; ; ; ; ; ; ; ; ; ; ; - = = = = - ; ; ; ; ; ; ; ; ; ; ; ",
"p p p p p p p p p p a d h l x x x x x x x x l h d a p p p p p p p p p p p p p p p p p p p p > : ; = = ; : > p p p p p p p p p p ",
"f f f f f f f f f f g h j l x x x x x x x x l j h g f f f f f f f f f f f f f f f f f f f f s p : - - : p s f f f f f f f f f f ",
"k k k k k k k k k k k l l z x x x x x x x x z l l k k k k k k k k k k k k k k k k k k k k k h s > ; ; > s h k k k k k k k k k k ",
"x x x x x x x x x x x x x x x x x x x x x x x x x x x x x x x x x x x x x x x x x x x x x x k g a : : a g k x x x x x x x x x x ",
"x x x x x x x x x x x x x x x x x x x x x x x x x x x x x x x x x x x x x x x x x x x x x x l h d a a d h l x x x x x x x x x x ",
"x x x x x x x x x x x x x x x x x x x x x x x x x x x x x x x x x x x x x x x x x x x x x x l j h g g h j l x x x x x x x x x x ",
"x x x x x x x x x x x x x x x x x x x x x x x x x x x x x x x x x x x x x x x x x x x x x x z l l k k l l z x x x x x x x x x x ",
"x x x x x x x x x x x x x x x x x x x x x x x x x x x x x x x x x x x x x x x x x x x x x x x x x x x x x x x x x x x x x x x x ",
"x x x x x x x x x x x x x x x x x x x x x x x x x x x x x x x x x x x x x x x x x x x x x x x x x x x x x x x x x x x x x x x x ",
"x x x x x x x x x x x x x x x x x x x x x x x x x x x x x x x x x x x x x x x x x x x x x x x x x x x x x x x x x x x x x x x x ",
"x x x x x x x x x x x x x x x x x x x x x x x x x x x x x x x x x x x x x x x x x x x x x x x x x x x x x x x x x x x x x x x x ",
"x x x x x x x x x x x x x x x x x x x x x x x x x x x x x x x x x x x x x x x x x x x x x x x x x x x x x x x x x x x x x x x x ",
"x x x x x x x x x x x x x x x x x x x x x x x x x x x x x x x x x x x x x x x x x x x x x x x x x x x x x x x x x x x x x x x x "
};
