/* XPM */
static char *_3fa8a261c864752864bb294ef344eedRykLLMqs9HiKp6w9[] = {
/* columns rows colors chars-per-pixel */
"32 32 250 2 ",
"   c None",
".  c #3B1724",
"X  c #3A1625",
"o  c #3B1725",
"O  c #3B1925",
"+  c #3C1D27",
"@  c #3C1F28",
"#  c #362229",
"$  c #3C272C",
"%  c #322D2D",
"&  c #3E2A2D",
"*  c #3D2A37",
"=  c #2E3831",
"-  c #2C3B32",
";  c #3A3F35",
":  c #3E303D",
">  c #403030",
",  c #403231",
"<  c #423934",
"1  c #423739",
"2  c #433E3C",
"3  c #2A4536",
"4  c #284636",
"5  c #254E39",
"6  c #2B4B39",
"7  c #294D39",
"8  c #344337",
"9  c #25503A",
"0  c #24523B",
"q  c #23543B",
"w  c #22593B",
"e  c #215C3B",
"r  c #1F633C",
"t  c #1E683C",
"y  c #1B723D",
"u  c #1C703D",
"i  c #1A773D",
"p  c #1A7A3E",
"a  c #197C3D",
"s  c #3E3142",
"d  c #353C47",
"f  c #3E355A",
"g  c #3A355F",
"h  c #3B3A68",
"j  c #40344B",
"k  c #403351",
"l  c #403353",
"z  c #403756",
"x  c #334048",
"c  c #245243",
"v  c #275543",
"b  c #2A4652",
"n  c #374450",
"m  c #3B4158",
"M  c #245354",
"N  c #2D5D53",
"B  c #25545D",
"V  c #3C5950",
"C  c #365C5A",
"Z  c #1D725F",
"A  c #216C41",
"S  c #276F48",
"D  c #237E49",
"F  c #3E6D5F",
"G  c #364873",
"H  c #37427D",
"J  c #255676",
"K  c #247764",
"L  c #3A6B74",
"P  c #40434F",
"I  c #444A4E",
"U  c #404056",
"Y  c #444A56",
"T  c #474E56",
"R  c #41405C",
"E  c #41455F",
"W  c #415257",
"Q  c #405A58",
"!  c #4F6558",
"~  c #474A67",
"^  c #43466E",
"/  c #435C6F",
"(  c #465673",
")  c #475777",
"_  c #4B5D70",
"`  c #496D6B",
"'  c #586667",
"]  c #446973",
"[  c #456F7B",
"{  c #46767F",
"}  c #149D2F",
"|  c #1A8437",
" . c #178A37",
".. c #18813B",
"X. c #18833A",
"o. c #159632",
"O. c #159831",
"+. c #14A02D",
"@. c #14A02E",
"#. c #179F4F",
"$. c #1A8756",
"%. c #1B805C",
"&. c #189653",
"*. c #19985D",
"=. c #1C8366",
"-. c #1C826F",
";. c #378661",
":. c #354484",
">. c #384884",
",. c #334B8A",
"<. c #265788",
"1. c #245F88",
"2. c #2B4E9D",
"3. c #314C99",
"4. c #2E53A0",
"5. c #2E51A7",
"6. c #2759A1",
"7. c #2C54AE",
"8. c #275AAA",
"9. c #355EA7",
"0. c #355DAD",
"q. c #275BBB",
"w. c #2959BB",
"e. c #2959BC",
"r. c #2864AA",
"t. c #3861B6",
"y. c #386DB3",
"u. c #415182",
"i. c #4E6787",
"p. c #4A7484",
"a. c #467881",
"s. c #477C84",
"d. c #477D85",
"f. c #44768C",
"g. c #487E88",
"h. c #4C6896",
"j. c #476FAB",
"k. c #4275A6",
"l. c #5276A1",
"z. c #537DA4",
"x. c #275BC4",
"c. c #285CC4",
"v. c #2760C5",
"b. c #296AC4",
"n. c #2768C8",
"m. c #3165C2",
"M. c #3468C2",
"N. c #3069C4",
"B. c #2679CF",
"V. c #3D71C1",
"C. c #248BB5",
"Z. c #2387B9",
"A. c #298BBE",
"S. c #209FB2",
"D. c #4A808F",
"F. c #4B8193",
"G. c #4E849D",
"H. c #65818F",
"J. c #67848F",
"K. c #6F8B90",
"L. c #629A90",
"P. c #6BBC89",
"I. c #4E81A5",
"U. c #5389AF",
"Y. c #4D82BB",
"T. c #4C80BF",
"R. c #4F83BF",
"E. c #548AB3",
"W. c #5489B5",
"Q. c #568CBA",
"!. c #5589BE",
"~. c #578CBE",
"^. c #588DBE",
"/. c #778FA7",
"(. c #7791A7",
"). c #70B1A1",
"_. c #2C96C7",
"`. c #2581D2",
"'. c #258ED7",
"]. c #2E8FD3",
"[. c #249AD3",
"{. c #239FD3",
"}. c #239CD4",
"|. c #2492D9",
" X c #249ADC",
".X c #249FDE",
"XX c #2D9BD8",
"oX c #2DA1DF",
"OX c #3FA5E3",
"+X c #4284C5",
"@X c #6092C2",
"#X c #6F9ACA",
"$X c #779DC5",
"%X c #729DCA",
"&X c #7099CD",
"*X c #659ED0",
"=X c #53A3DF",
"-X c #7AA3CE",
";X c #75AAD0",
":X c #7993E2",
">X c #49A7E5",
",X c #47ACE4",
"<X c #51AEE6",
"1X c #5BABE8",
"2X c #53B0E6",
"3X c #65ADEA",
"4X c #67AFEA",
"5X c #78A4E9",
"6X c #6DB4EB",
"7X c #77B1EE",
"8X c #77BEEC",
"9X c #8697C4",
"0X c #89A8CC",
"qX c #9DAAD7",
"wX c #94B3DA",
"eX c #ABB9CD",
"rX c #8EA9E0",
"tX c #81B3F0",
"yX c #93B7F3",
"uX c #9DB9F5",
"iX c #9BBEF4",
"pX c #A6BFE2",
"aX c #A0B2EB",
"sX c #AFBAEF",
"dX c #AFBDF9",
"fX c #B1BFF0",
"gX c #B1BBF6",
"hX c #B9BFFB",
"jX c #BCC7DA",
"kX c #8FC6F0",
"lX c #A2C0E4",
"zX c #B8C8EE",
"xX c #A4C0F6",
"cX c #ABCCF6",
"vX c #B5C9F0",
"bX c #B3D4F6",
"nX c #BDD0F0",
"mX c #BCD6F8",
"MX c #BFD8F8",
"NX c #C9CCF0",
"BX c #C0C6FB",
"VX c #C3C8FC",
"CX c #C8D5F2",
"ZX c #CBD0FC",
"AX c #D2D9FA",
"SX c #D8DCFE",
"DX c #DBDEFE",
"FX c #E0E3FE",
"GX c #E3E5FF",
"HX c #E3E6FF",
/* pixels */
"                          @.@.@.} o.$.                          ",
"                  @.@.@.O...O.....p Z.c.c.c.c.                  ",
"              @.@.@.@.@.o...p y y p .X.Xn.c.c.c.x.              ",
"            @.@. .@.....p r e q q e .XB. X'.c.c.c.x.            ",
"          @.} o.p y S ` t 0 H.qX/.C..XB.b._.'.c.c.c.h           ",
"        ).@...p y (.qXH.0 /.DXjX$X[..X.XY.y.'.c.c.c.5.l         ",
"      GXGXDXi F J.DXDXK.ZXGXGXGXmXoX2XMXvXN.c.c.c.c.3.f gX      ",
"    GXGXDXL.u eXDXGXGXGXGXZXVXDXxXoXGXZXOX5X:X-.Z Z 3.3.aX~.    ",
"    GXGXDXDXFXFXGXGXGXGXDX3XOX.X.X.X.X.X3XBX@.@.o.p A 9X^.^.    ",
"  t.GXGXGXGXDXDXGXGXGXGXFXBXOX.X.X.X.XkXDXP.@. .o.p p V _ ^.d.  ",
"  '.OXyXiXbXmXBXyXOXBXDXcX.X.X.X.X.XS.@.@.@.@.@.p p D ' ^.^.d.  ",
"  '..X.X=.;XtX>X.X.X3XhXdXOX.X.X.X.X{.#.@. . . .y e 0X&X^.G.d.  ",
"  `..XK | ! <X>X.X.X.X.X.X.X,X.X.X.X.X*...O.p p p ;.L ^.F.g.a.  ",
"c.c..XA.! NXFX6X.X.X.X.X.X7X,X.X.X.X.X*.a a p r ;.sXrX^.^.) R l ",
"c.c.n. X&X>X.X.X.X.X.X.X,XiX.XOXOX.X1XOX&.r u w N W.!.Y < j l l ",
"c.c.n. X=XuX.X.X.X.X.X.X.X.XOX1XOX.XdXOX}.%.0 0 7 I !.9.j l l l ",
"c.c..X,X.XkXkX.X.X.X.X.X1XOX3XDXmXoX8XZX.X|.i w < < < ,.l l l l ",
"c.c.XXnXcXOXOXyX7X.X.X7X1XcXDXGXFXmXGXZX|.v.1.8 < < < ,.l l l l ",
"c.c.].lXGXZXZX8X>XoX3XDXZXGXGXGXGXGXGXfXm.c.`.J m m 3.f l l l l ",
"  c.v.].wXGXCXCXDXmXDXGXGXGXGXGXwXGX-X@XR.c.c.c.c.:.0.^ l l l   ",
"  c.c.c.m.!.R.pXzXAXGXGXGXCX*X#X^.^.^.^.k.c.c.7.>.u.Q.( l l l   ",
"  c.c.c.c.m.r.Q _ %XwXGX-X@X+Xm.V.^.^.L c B j.h.R.^.U.d./ l l   ",
"  c.c.c.c.c.n 6 G R.^.^.R.!.R.c.<.0 0 0 v f.~ ^.^.F.d.[ l l l   ",
"    c.c.c.c.w.4.R.!.M.M.c.m.m.c.0 0 7 ; W I.E.F.F.g.E z l l     ",
"    x.c.c.c.c.c.m.!.R.M.q.6.8.c.0 0 2 i.1 l.^.E.] U R l l l     ",
"      x.c.c.c.c.c.m.M.M.M 0 c 8.x 0 T l.z.G.E.g.d.P s l l       ",
"        h H 7.7.e.e.2.M 0 7 6 0 d 5 ^.^.U.D.d.d.{ * X X         ",
"          h 3.3.g b - 4 7 $ > 4 % % C p.d.d.] : * X X           ",
"            X X # # # # & > @ @ - X X X X X X X X X             ",
"              X X X X X X + O O X X X X X X X X X               ",
"                  X X X X X X X X X X X X X X                   ",
"                          X X X X X X                           "
};
