/* XPM */
static const char *am55eQ___679a642f9a01e[] = {
/* columns rows colors chars-per-pixel */
"32 32 121 2 ",
"   c #010102",
".  c #04060A",
"X  c #06080C",
"o  c #080A0F",
"O  c #070910",
"+  c #0A0D13",
"@  c #0C1017",
"#  c #0E121A",
"$  c #11141E",
"%  c #121621",
"&  c #161A25",
"*  c #181C27",
"=  c #181D29",
"-  c #1F232F",
";  c #1E2331",
":  c #1F263A",
">  c #202636",
",  c #282C34",
"<  c #20273B",
"1  c #222A3E",
"2  c #252D43",
"3  c #282F46",
"4  c #283047",
"5  c #2C344C",
"6  c #2F384F",
"7  c #30384E",
"8  c #2E3750",
"9  c #2F3851",
"0  c #323B54",
"q  c #353E59",
"w  c #37415B",
"e  c #39425D",
"r  c #3C4662",
"t  c #3F4966",
"y  c #404A67",
"u  c #434D6A",
"i  c #46506E",
"p  c #48536F",
"a  c #475270",
"s  c #4A5574",
"d  c #4E5977",
"f  c #4E5A79",
"g  c #505C77",
"h  c #515D7D",
"j  c #556282",
"k  c #596585",
"l  c #596688",
"z  c #5B698A",
"x  c #5A6889",
"c  c #5C698B",
"v  c #5D6A8C",
"b  c #5D6B8D",
"n  c #5E6B8D",
"m  c #5E6C8D",
"M  c #5F6C8D",
"N  c #5E6C8E",
"B  c #5F6C8E",
"V  c #5F6D8F",
"C  c #5C6A8B",
"Z  c #636D85",
"A  c #606E8F",
"S  c #606E90",
"D  c #616F91",
"F  c #626F90",
"G  c #616E91",
"H  c #627091",
"J  c #617092",
"K  c #627092",
"L  c #627093",
"P  c #627193",
"I  c #637193",
"U  c #647293",
"Y  c #657293",
"T  c #667392",
"R  c #637194",
"E  c #647295",
"W  c #647395",
"Q  c #657396",
"!  c #677494",
"~  c #667495",
"^  c #657497",
"/  c #667597",
"(  c #677697",
")  c #637294",
"_  c #6E7A93",
"`  c #6F7B96",
"'  c #667598",
"]  c #677698",
"[  c #677699",
"{  c #677699",
"}  c #687799",
"|  c #6A7798",
" . c #69789A",
".. c #6A799A",
"X. c #6B799A",
"o. c #6A799B",
"O. c #6B799B",
"+. c #6B7A9B",
"@. c #6C7A9B",
"#. c #6C7B9C",
"$. c #6F7D9D",
"%. c #6F7D9E",
"&. c #737F9B",
"*. c #707D9E",
"=. c #717E9E",
"-. c #717F9E",
";. c #74809C",
":. c #74809E",
">. c #76829F",
",. c #7783A1",
"<. c #7A86A0",
"1. c #7A87A4",
"2. c #7D88A2",
"3. c #7C88A5",
"4. c #7C88A6",
"5. c #818DA9",
"6. c #828EA9",
"7. c #838EAA",
"8. c #838FAA",
"9. c None",
"0. c black",
/* pixels */
"9.# # + 9.O O 9.# # O # # 9.9.# # + 9.$ # 9.$ + 9.# + O # # # 9.",
"+ f [ f . w d 2 D ~ w s m & > m | g 5 [ m 1 K d O d x s [ [ g # ",
"- [ [ K 6 D [ l ~ [ x x [ q j [ [ ~ x [ [ f E K w [ D D [ [ [ - ",
"& m [ K t [ | O.,.[ h u ~ t U [ | | %.=.[ t h R y E j | | | [ - ",
"- | O.R s @.8.=.k <.j m v u ~ 4.8.8.D _ ` k ~ O.k s K 4.8.8.O.; ",
", 8.1.k u >.#.>.6 t 2.=.D u U %.O.O.Z 0 d 8.8.8.>.u U =.O.O.&.= ",
"- v k e 6 m K j 0 q E v s 2 h [ K k f 4 p [ [ v a 2 h [ K k f # ",
"& u t r w j s y t h m i r 6 c f a t u 0 K [ f u y 6 K ~ s t u & ",
"$ t t r 6 j t r q e f i r 6 d i y r r 4 i s i a r 4 f g t r r $ ",
"@ w e 4 < q i u 3 2 e e 0 < 4 r s i t 1 4 e r e 0 < 5 r i a 7   ",
"  < q 2 : 0 m l r 3 0 0 q 3 < 0 R v j 6 4 q q q q 3 < 0 m x s X ",
"+ j [ d 6 f h i a s [ [ [ f 4 h h h i r j [ [ ~ [ s 4 f d t k - ",
"- j d l 0 u u u i R m s d c 0 u y i r k [ j s d d l 0 u t t u & ",
"% u t t 4 r r e e f i r r r 4 r r r 0 s a u t t t t 4 r t t r # ",
"+ t s w 8 0 2 3 9 u i e y w 8 0 6 1 4 0 i y e u a e 6 w e i w . ",
"O g K k k m q t ~ c j 6 a E l k k 4 j [ k f 4 k K k v i 0 m K = ",
"; k d y u h t h h u u 0 c g r f f 0 v s r s e k s r j d e k s % ",
"& y y r u u q 4 r r w 2 u y t i r 6 q r r 6 6 y r y u r 3 e r $ ",
". q u r r y 6 4 2 2 6 4 0 e t i r 4 4 2 4 6 6 t i e y q 4 6 1   ",
"- v c q 6 m A k 9 6 D c s 2 h ~ K k f 3 r E E D s 2 h E D k f # ",
"= i t r e x d u u h K i t 8 v j d r i w K ~ j u t 6 K [ f t i = ",
"$ t t r 6 j y y q t h a r 4 f i y y r 4 s s i s t 4 h h t t t $ ",
"$ e r 6 1 r y u 3 2 y r q 1 6 t u y e 1 6 e y t q 1 9 t u u 6   ",
"  < 0 2 < 8 v k e 2 0 0 0 2 : 9 K v j 6 4 0 0 0 9 2 < 9 v x p . ",
"o d [ u 3 f j i s u E [ [ u 3 f x a i e h [ [ [ [ u 3 f h y v ; ",
"- k g c 0 i u u i K D h f c 0 u r r t h E k g h h x 0 i r t u & ",
"& u t u 4 r r r r h a t r u 4 r t r q f s u t t t u 4 r t t t $ ",
"# t i q 5 6 2 3 6 y u e r q 6 9 4 3 4 0 u y r y u q 6 q r u q . ",
"X s K k l c 6 r D v j 8 y K l l h 3 f D x d 4 j K k x y 6 c D * ",
"- x f t u j i f j i i 0 v j t s j q c j y s e x f t h h e x f $ ",
"& u t t u u q 0 t t w 3 i t t a y 4 e r t 0 6 u t t s r 3 t t $ ",
"9.+ + + + + O . + + o . + + + + + . X + + . . + + + + + . O + 9."
};
