/* XPM */
static char * floor (copy)_xpm[] = {
"64 64 298 2",
"  	c #755338",
". 	c #704F35",
"+ 	c #674830",
"@ 	c #5D402C",
"# 	c #543927",
"$ 	c #725036",
"% 	c #745237",
"& 	c #6C4C33",
"* 	c #64452F",
"= 	c #5C3F2B",
"- 	c #684931",
"; 	c #6F4E35",
"> 	c #583C29",
", 	c #523826",
"' 	c #60432D",
") 	c #664730",
"! 	c #503625",
"~ 	c #5B3E2C",
"{ 	c #563B2D",
"] 	c #53392D",
"^ 	c #553C2E",
"/ 	c #5B3F30",
"( 	c #604433",
"_ 	c #654735",
": 	c #684A36",
"< 	c #583E2E",
"[ 	c #5F4230",
"} 	c #4A3530",
"| 	c #3C2D30",
"1 	c #3C2E30",
"2 	c #3E2F31",
"3 	c #403031",
"4 	c #413132",
"5 	c #433232",
"6 	c #4A3630",
"7 	c #6F4E36",
"8 	c #694935",
"9 	c #634634",
"0 	c #5C4840",
"a 	c #4C5058",
"b 	c #435562",
"c 	c #3F5361",
"d 	c #374F60",
"e 	c #334D60",
"f 	c #674934",
"g 	c #6D4D35",
"h 	c #6B4C37",
"i 	c #533C34",
"j 	c #4D5158",
"k 	c #749DA5",
"l 	c #89C1C7",
"m 	c #7DBBC5",
"n 	c #65B0C2",
"o 	c #59AAC0",
"p 	c #725138",
"q 	c #604B42",
"r 	c #4D7686",
"s 	c #81C7D1",
"t 	c #9CEFF7",
"u 	c #90E9F6",
"v 	c #78DEF2",
"w 	c #6CD9F1",
"x 	c #85C8D2",
"y 	c #597B87",
"z 	c #61B8CD",
"A 	c #73D3E6",
"B 	c #7CE0F3",
"C 	c #70DAF1",
"D 	c #7FD8E8",
"E 	c #68D6EF",
"F 	c #60D0EC",
"G 	c #5BC4E0",
"H 	c #5AB3CB",
"I 	c #6F98A1",
"J 	c #3B4755",
"K 	c #49BFE4",
"L 	c #3B9CBF",
"M 	c #366780",
"N 	c #292C3C",
"O 	c #50BCDC",
"P 	c #379ABE",
"Q 	c #327391",
"R 	c #404856",
"S 	c #453038",
"T 	c #422B36",
"U 	c #432E37",
"V 	c #49393C",
"W 	c #4C3E3F",
"X 	c #4D4142",
"Y 	c #504647",
"Z 	c #514949",
"` 	c #53413D",
" .	c #614638",
"..	c #2A5F7B",
"+.	c #77544E",
"@.	c #8E5248",
"#.	c #854442",
"$.	c #894D46",
"%.	c #9A6D56",
"&.	c #A37E5E",
"*.	c #A78666",
"=.	c #AF9675",
"-.	c #B39E7D",
";.	c #886A53",
">.	c #623F3E",
",.	c #98574A",
"'.	c #B1624F",
").	c #AE5E4E",
"!.	c #B56D56",
"~.	c #C68D66",
"{.	c #CF9E6E",
"].	c #D2A675",
"^.	c #DAB685",
"/.	c #DCB887",
"(.	c #D6AE7D",
"_.	c #E0C08F",
":.	c #E2C694",
"<.	c #D8B07F",
"[.	c #D0A070",
"}.	c #AE8662",
"|.	c #6D564B",
"1.	c #A25348",
"2.	c #BC7A5C",
"3.	c #CC986B",
"4.	c #C4966A",
"5.	c #5E4942",
"6.	c #444C57",
"7.	c #5CCDEB",
"8.	c #3EB7DF",
"9.	c #2B88AF",
"0.	c #24425A",
"a.	c #473239",
"b.	c #935A4B",
"c.	c #B36450",
"d.	c #A75048",
"e.	c #AC5C4E",
"f.	c #C38863",
"g.	c #518B9F",
"h.	c #2F4154",
"i.	c #4B879C",
"j.	c #4DA2BC",
"k.	c #3691B3",
"l.	c #286E8F",
"m.	c #23394F",
"n.	c #252A3C",
"o.	c #2F4A5E",
"p.	c #28455B",
"q.	c #21273A",
"r.	c #644630",
"s.	c #563D32",
"t.	c #4C3636",
"u.	c #48353A",
"v.	c #4B3B3D",
"w.	c #3D2D36",
"x.	c #2A2332",
"y.	c #43302E",
"z.	c #493435",
"A.	c #7A4D44",
"B.	c #97634F",
"C.	c #9F7559",
"D.	c #764B44",
"E.	c #4B332A",
"F.	c #33272E",
"G.	c #553A2C",
"H.	c #32282F",
"I.	c #272230",
"J.	c #62432F",
"K.	c #513A30",
"L.	c #362A30",
"M.	c #32AEDB",
"N.	c #3AB4DE",
"O.	c #AB594C",
"P.	c #BF7F5E",
"Q.	c #CA9569",
"R.	c #CD9B6C",
"S.	c #D1A374",
"T.	c #D6AD80",
"U.	c #AB8D70",
"V.	c #4F4345",
"W.	c #51C5E6",
"X.	c #A85349",
"Y.	c #B76D54",
"Z.	c #C2835F",
"`.	c #CC976B",
" +	c #C68B67",
".+	c #9B6B57",
"++	c #49383D",
"@+	c #AA554A",
"#+	c #B05F4E",
"$+	c #B86F55",
"%+	c #C38661",
"&+	c #C99267",
"*+	c #C0815F",
"=+	c #AF614F",
"-+	c #BB8460",
";+	c #A06852",
">+	c #7C4E44",
",+	c #503937",
"'+	c #AC5B4C",
")+	c #BE7A5A",
"!+	c #BB7457",
"~+	c #B56952",
"{+	c #644441",
"]+	c #604437",
"^+	c #3E4351",
"/+	c #327191",
"(+	c #5C473F",
"_+	c #47B9E0",
":+	c #59BEE2",
"<+	c #63C0E3",
"[+	c #5DC0E2",
"}+	c #53BFE2",
"|+	c #4ABCE1",
"1+	c #42B9E0",
"2+	c #39ABD3",
"3+	c #3094BB",
"4+	c #78D4ED",
"5+	c #AFE3F3",
"6+	c #CBEAF5",
"7+	c #BBE8F4",
"8+	c #9CE5F2",
"9+	c #80DEF0",
"0+	c #68D3EC",
"a+	c #4EAAC7",
"b+	c #32657E",
"c+	c #417084",
"d+	c #5DB6CC",
"e+	c #87E0F3",
"f+	c #BEEEF8",
"g+	c #DAF5FB",
"h+	c #CAF4FA",
"i+	c #ABF1F8",
"j+	c #3C2E32",
"k+	c #5C4235",
"l+	c #67CDE4",
"m+	c #75DBF1",
"n+	c #90E2F4",
"o+	c #8BE2F4",
"p+	c #81E1F3",
"q+	c #2C2531",
"r+	c #6A4B36",
"s+	c #317191",
"t+	c #3C4251",
"u+	c #503A32",
"v+	c #694A33",
"w+	c #664834",
"x+	c #604637",
"y+	c #59463F",
"z+	c #565F62",
"A+	c #5891A1",
"B+	c #357894",
"C+	c #4A565E",
"D+	c #56443E",
"E+	c #584134",
"F+	c #5E4130",
"G+	c #4D3831",
"H+	c #58463F",
"I+	c #9C7B5C",
"J+	c #9B8267",
"K+	c #978066",
"L+	c #9B7A5C",
"M+	c #53423E",
"N+	c #554846",
"O+	c #BF9B74",
"P+	c #CDA77C",
"Q+	c #7E6C5E",
"R+	c #564C4D",
"S+	c #2D799B",
"T+	c #315C74",
"U+	c #2E2834",
"V+	c #483C3E",
"W+	c #7C6352",
"X+	c #CA9E6F",
"Y+	c #BD946A",
"Z+	c #554643",
"`+	c #C2A887",
" @	c #EBCC9F",
".@	c #D1B895",
"+@	c #4C90A7",
"@@	c #96775B",
"#@	c #E4B279",
"$@	c #5A4C4A",
"%@	c #A18F7A",
"&@	c #C4AF90",
"*@	c #52423D",
"=@	c #42302E",
"-@	c #60473C",
";@	c #5B4D4A",
">@	c #574F50",
",@	c #513B32",
"'@	c #5C402F",
")@	c #282330",
"!@	c #32272F",
"~@	c #372B30",
"{@	c #4C362E",
"]@	c #4E362B",
"^@	c #654731",
"/@	c #211F30",
"                                                                                            . + @ # # @ + .                     ",
"                                                                                            . + @ # # @ + .                     ",
"                                                                                            . + @ # # @ + .                     ",
"                                                                                            . + @ # # @ + .                     ",
"                                                                                            . + @ # # @ + .                     ",
"                                                                                            . + @ # # @ + .                     ",
". . . . . . . . . . . . . . . $ $ % % $ $ . . . . . . $ $ %                         % $ $ . & * = # # = * & . . . . . . . . . . ",
"+ + + + + + + + + + + + + + - & ; $ $ ; & - + + + + - & ; $                         $ ; & - * @ > , , > @ * + + + + + + + + + + ",
"@ @ @ @ @ @ @ @ @ @ @ @ @ @ ' ) & $ $ & ) ' @ @ @ @ ' ) & $                         $ & ) ' = > # ! ! # > = @ @ @ @ @ @ @ @ @ @ ",
"# # # # # # # # # # # # # # > ' - . . - ' > # # # # > ' - .                         . - ' > # , ! ! ! ! , # # # # # # # # # # # ",
"# # # # # # # # # # # # # # > ' - . . - ' > # # # # > ' - .                         . - ' > # # # # # # # # # # # # # # # # # # ",
"@ @ @ @ @ @ @ @ @ @ @ @ @ @ ' ) & $ $ & ) ' @ ~ { ] ^ / ( _ : : : : : : : : : : : : _ ( / < ~ @ @ @ @ @ @ @ @ @ @ @ @ @ @ @ @ @ ",
"+ + + + + + + + + + + + + + - & ; $ $ ; & - + [ } | 1 2 3 4 5 5 5 5 5 5 5 5 5 5 5 5 4 3 2 6 [ + + + + + + + + + + + + + + + + + ",
". . . . . . . . . . . . . . . $ $ % % 7 8 9 9 0 a b b c d e e e e e e e e e e e e d c b b a 0 f g . . . . . . . . . . . . . . . ",
"                                      h i 5 5 j k l l m n o o o o o o o o o o o o n m l l k j i h                               ",
"                                  p h q j c d r s t t u v w w w w w w w w w w w w v u t t x y j q h p                           ",
"                                  h i j k m n z A B B v C w w w w w w w w w w w w C v B B D x k j i h                           ",
"                              p h q j y x u v E F G H o o o o o o o o o o o o o o o o o o n m I J 5 :                           ",
"                              h i j k x D v C F K L M e e e e e e e e e e e e e e e e e e d c J N 5 :                           ",
"                          p h q j y x u v E F O P Q R S T U V W W W W W W X Y Y X X Y Z Z Y X W W `  .h p                       ",
"                          h i j k x D v C F K P ..R +.@.#.$.%.&.&.&.&.&.&.*.=.=.*.*.=.-.-.=.*.&.&.;.` i h                       ",
"                          : 5 b l t B E F O P Q R >.,.'.).!.~.{.{.{.{.{.{.].^./.(.(./._.:._.<.].[.}.|.`  .h p                   ",
"                          : 5 b l t B F K P ..R +.,.1.).2.~.3.{.{.{.{.{.{.[.].(././.(.<._.:._.^.].4.}.;.` i h                   ",
"                      p h 5.6.r s u v 7.8.9.0.a.b.c.d.e.f.{.{.{.{.{.{.{.{.{.{.].^./.(.(./._.:._.<.].[.&.W 5 :                   ",
"                      h i 6.g.z A v C 7.8.9.0.a.b.c.d.e.f.{.{.{.{.{.{.{.{.{.{.[.].(././.(.<._.:._.^.].&.W 5 :                   ",
"                      : 5 h.i.o o o o j.k.l.m.a.b.c.d.e.f.{.{.{.{.{.{.{.{.{.{.{.{.].^./.(.(./._.:._.<.*.X 5 :                   ",
". . . . . . . . . . . 9 3 n.h.e e e e o.p.m.q.a.b.c.d.e.f.{.{.{.{.{.{.{.{.{.{.{.{.[.].(././.(.<._.:._.=.Y 5 :       % $ $ . . . ",
"+ + + + + + + + + r.[ s.t.u.v.X Y Y X v.u.w.x.a.b.c.d.e.f.{.{.{.{.{.{.{.{.{.{.{.{.{.{.].^./.(.(./._.:.-.Z 5 :       $ ; & - + + ",
"@ @ @ @ @ @ @ @ @ { y.z.A.B.C.*.=.=.*.C.B.D.w.a.b.c.d.e.f.{.{.{.{.{.{.{.{.{.{.{.{.{.{.[.].(././.(.<._.-.Z 5 :       $ & ) ' @ @ ",
"# # # # # # # # # E.F.w.D.B.C.*.=.=.*.C.B.D.w.a.b.c.d.e.f.{.{.{.{.{.{.{.{.{.{.{.{.{.{.{.{.].^./.(.(./.=.Y 5 :       . - ' > # # ",
"# # # , ! ! ! ! , E.F.x.w.u.v.X Y Y X v.u.w.x.a.b.c.d.e.f.{.{.{.{.{.{.{.{.{.{.{.{.{.{.{.{.[.].(././.(.*.X 5 :       . - ' > # # ",
"@ @ = > # ! ! # > G.y.H.I.q.m.0.0.0.0.0.0.m.q.a.b.c.d.e.f.{.{.{.{.{.{.{.{.{.{.{.{.{.{.{.{.{.{.].^./.(.*.X 5 :       $ & ) ' @ @ ",
"+ + * @ > , , > @ J.[ K.L.m.l.9.9.9.9.9.9.l.m.a.b.c.d.e.f.{.{.{.{.{.{.{.{.{.{.{.{.{.{.{.{.{.{.[.].(./.=.Y 5 :       $ ; & - + + ",
". . & * = # # = * & . 9 3 0.9.M.N.8.8.N.M.9.0.a.b.c.d.O.P.Q.R.{.{.{.{.3.~.f.f.f.f.f.f.f.f.~.3.{.{.S.T.U.V.5 :       % $ $ . . . ",
"    . - ' > > ' - .   : 5 0.9.N.W.7.7.W.N.9.0.a.b.c.d.X.Y.Z.Q.{.{.{.{.~.!.e.e.e.e.e.e.e.e.!.~.{.{.`. +.+++5 :                   ",
"    $ & ) ' ' ) & $   : 5 0.9.8.7.w w F K P ..R +.,.1.@+#+$+%+&+&+&+&+*+=+d.d.d.d.d.d.d.d.=+*+&+&+-+;+>+,+i h                   ",
"    $ ; & - - & ; $   : 5 0.9.8.7.w w E F O P Q R >.,.#+@+'+$+)+)+)+)+!+~+c.c.c.c.c.c.c.c.~+!+)+)+;+{+,+]+h p                   ",
"    % $ $ . . $ $ %   h i ^+/+P O F E w w F K P ..R +.@.#.#.@.b.b.b.b.b.b.b.b.b.b.b.b.b.b.b.b.b.b.>+,+i h                       ",
"                      p h (+^+..P K F w w E F O P Q R S T T S a.a.a.a.a.a.a.a.a.a.a.a.a.a.a.a.a.a.,+]+h p                       ",
"                          h i ^+/+P O 7.7.F E F K P ..0.0.0.0.0.0.0.0.0.0.0.0.0.0.0.0.0.0.0.0.m.q.5 :                           ",
"                          p h (+^+..P 8.8.K F E F O P 9.9.9.9.9.9.9.9.9.9.9.9.9.9.9.9.9.9.9.9.l.m.5 :                           ",
"                              h i ^+/+9.9.L G w w F K 8.8.8.8._+:+<+<+<+<+<+<+[+}+|+1+2+3+9.9./+^+i h                           ",
"                              p h (+^+0.0.M H w w E F 7.7.7.7.4+5+6+6+6+6+6+6+7+8+9+0+a+b+0.0.^+(+h p                           ",
"                              p h 5.6.e e c+d+w w w w w w w w e+f+g+g+g+g+g+g+h+i+u v d+c+h.n.j+k+h p                           ",
"                              h i 6.g.o o d+l+w w w w w w w w m+e+n+n+n+n+n+n+o+p+v C l+d+i.h.q+j+i h                           ",
"                          p h 5.6.c+d+w w E F F E w w w w w w w w m+e+n+n+o+p+v C w w w w o e q.m.^+(+h p                       ",
". . . . . . . . . . . $ $ r+i 6.g.d+l+w w F K K F w w w w w w w w e+f+g+g+h+i+u v w w w w o e m.l.s+t+u+f . . . . . . . . . . . ",
"+ + + + + + + + + + - v+w+x+y+z+A+o o H G O P L G w w w w w w w w e+f+g+g+h+i+u v w w w w o e m.l.B+C+D+E+[ r.+ + + + + + + + + ",
"@ @ @ @ @ @ @ @ @ @ ' F+G+H+I+J+z+e e M L P ..M H w w w w w w w w m+e+n+n+o+p+v C w w w w o e q.m.C+K+L+M+y.{ @ @ @ @ @ @ @ @ @ ",
"# # # # # # # # # # > ^ 1 N+O+P+Q+R+N+C+B+S+T+c+d+w w w w w w w w w w C v v C w w w w w w o e U+V+W+X+Y+Z+F.E.# # # # # # # # # ",
"# # # # # # # # # # > ^ 1 R+`+ @.@`+O+K+C+T++@d+l+w w w w w w w w w w v u u v w w w w w w o e V+@@X+#@Y+Z+F.E.# # # # # # # # # ",
"@ @ @ @ @ @ @ @ @ @ ' F+G+$@%@&@&@`+O+K+C+M H w w w w w w w w w w w w v u u v w w w w w w o e V+@@Y+Y+L+*@=@{ @ @ @ @ @ @ @ @ @ ",
"+ + + + + + + + + + - v+w+-@;@>@>@R+N+C+B+L G w w w w w w w w w w w w C v v C w w w w w w o e U+V+Z+Z+*@,@'@r.+ + + + + + + + + ",
". . . . . . . . . . . $ $ r+i 5 5 j+q+0.9.8.7.w w w w w w w w w w w w w w w w w w w w w w o e )@!@F.F.=@'@& . . . . . . . . . . ",
"                          p h : : k+j+0.9.8.7.w w w w w w w w w w w w w w w w w w w w w w o e ~@{@]@]@< ^@.                     ",
"                                  : 5 0.9.8.7.w w l+d+o o o o o o o o o o o o o o d+l+w w o e 2 / ' ' ) & $                     ",
"                                  : 5 0.9.8.7.w w d+c+e e e e e e e e e e e e e e c+d+w w o e 3 ( - - & ; $                     ",
"                                  : 5 0.9.8.7.E F j.o.q+j+5 5 5 5 5 5 5 5 j+q+q.m.M H E F j.o.4 _ . . $ $ %                     ",
"                                  : 5 0.9.8.7.F K k.p.j+k+: : : : : : : : k+j+m.l.L G F K k.p.5 :                               ",
"                                  : 5 0.9.N.W.O P /+^+i h                 : 5 0.9.N.W.O P /+^+i h                               ",
"                                  : 5 0.9.M.N.P ..^+(+h p                 : 5 0.9.M.N.P ..^+(+h p                               ",
"                                  h i ^+/+9.9./+^+i h                     h i ^+/+9.9./+^+i h                                   ",
"                                  p h (+^+0.0.^+(+h p                     p h (+^+0.0.^+(+h p                                   ",
"                                      : 5 /@/@5 :                             : 5 /@/@5 :                                       "};
