/* XPM */
static char * floor (copy)_xpm[] = {
"64 64 310 2",
"  	c #755338",
". 	c #704F35",
"+ 	c #674830",
"@ 	c #5D402C",
"# 	c #543927",
"$ 	c #725B3E",
"% 	c #6D6847",
"& 	c #6A6D4B",
"* 	c #5A875C",
"= 	c #4F9465",
"- 	c #617E57",
"; 	c #4A9868",
"> 	c #3CA370",
", 	c #419E6D",
"' 	c #41A66E",
") 	c #4BAE6C",
"! 	c #50B16B",
"~ 	c #5BA161",
"{ 	c #6D7448",
"] 	c #725036",
"^ 	c #745237",
"/ 	c #686C4A",
"( 	c #4E9465",
"_ 	c #6AC465",
": 	c #7ACF61",
"< 	c #78BA59",
"[ 	c #768045",
"} 	c #6C4C33",
"| 	c #64452F",
"1 	c #5C3F2B",
"2 	c #684931",
"3 	c #6F4E35",
"4 	c #695B33",
"5 	c #70783C",
"6 	c #66874F",
"7 	c #4E9066",
"8 	c #3C9970",
"9 	c #3C9F70",
"0 	c #60BC67",
"a 	c #7FD260",
"b 	c #8FDE5D",
"c 	c #8BCD57",
"d 	c #81A44A",
"e 	c #7A7D40",
"f 	c #736038",
"g 	c #583C29",
"h 	c #523826",
"i 	c #60432D",
"j 	c #664730",
"k 	c #687539",
"l 	c #7DAF4C",
"m 	c #72B05C",
"n 	c #4F8C69",
"o 	c #3C8570",
"p 	c #89DA5E",
"q 	c #8ED85B",
"r 	c #84B24F",
"s 	c #787C3F",
"t 	c #503625",
"u 	c #5F773C",
"v 	c #72B857",
"w 	c #6ABA65",
"x 	c #4C906C",
"y 	c #89C755",
"z 	c #788742",
"A 	c #53693F",
"B 	c #529F5F",
"C 	c #4BAA6C",
"D 	c #419C6E",
"E 	c #605530",
"F 	c #5D884D",
"G 	c #489B66",
"H 	c #7FA349",
"I 	c #737A3D",
"J 	c #685A33",
"K 	c #6F783B",
"L 	c #7FB04D",
"M 	c #73BB5C",
"N 	c #4EAA69",
"O 	c #8ACD56",
"P 	c #82B14E",
"Q 	c #88C654",
"R 	c #7ACB61",
"S 	c #50A76B",
"T 	c #7A8742",
"U 	c #7C8843",
"V 	c #7AC561",
"W 	c #51936B",
"X 	c #76633A",
"Y 	c #7B9E4B",
"Z 	c #7AC05B",
"` 	c #3B9C6D",
" .	c #3A9069",
"..	c #398B68",
"+.	c #3A8E6A",
"@.	c #4A9F69",
"#.	c #6ABF64",
"$.	c #5FB665",
"%.	c #366A5D",
"&.	c #355B5A",
"*.	c #376460",
"=.	c #3E7B65",
"-.	c #75BC5D",
";.	c #4FAA6A",
">.	c #6ABD63",
",.	c #499B66",
"'.	c #377661",
").	c #335055",
"!.	c #334453",
"~.	c #36505B",
"{.	c #396564",
"].	c #3B856C",
"^.	c #4BA46C",
"/.	c #6AC065",
"(.	c #6C8D51",
"_.	c #4E9C66",
":.	c #3B6D5C",
"<.	c #324451",
"[.	c #395F64",
"}.	c #3B716C",
"|.	c #41886E",
"1.	c #6C8951",
"2.	c #4F9166",
"3.	c #398967",
"4.	c #345757",
"5.	c #323E4F",
"6.	c #385A63",
"7.	c #3A6369",
"8.	c #3B766D",
"9.	c #3B946F",
"0.	c #75B15D",
"a.	c #508C6A",
"b.	c #385761",
"c.	c #396D67",
"d.	c #3B916D",
"e.	c #7AC261",
"f.	c #518A6B",
"g.	c #3C7B70",
"h.	c #3C9570",
"i.	c #385660",
"j.	c #396964",
"k.	c #3B8F6C",
"l.	c #73843F",
"m.	c #87C654",
"n.	c #334252",
"o.	c #354B58",
"p.	c #36515C",
"q.	c #37545E",
"r.	c #6E823D",
"s.	c #85C553",
"t.	c #323F50",
"u.	c #344856",
"v.	c #69803B",
"w.	c #84C553",
"x.	c #667F3A",
"y.	c #83C552",
"z.	c #655237",
"A.	c #5E6042",
"B.	c #566445",
"C.	c #526244",
"D.	c #5E8D4A",
"E.	c #81C757",
"F.	c #79C85F",
"G.	c #4E9E65",
"H.	c #395C64",
"I.	c #3B686C",
"J.	c #585D40",
"K.	c #4C825A",
"L.	c #449264",
"M.	c #439164",
"N.	c #54A661",
"O.	c #7CCC5E",
"P.	c #78BC5B",
"Q.	c #4B7858",
"R.	c #4F6143",
"S.	c #3E9E6D",
"T.	c #409667",
"U.	c #77B659",
"V.	c #496652",
"W.	c #4D9465",
"X.	c #419667",
"Y.	c #4B7652",
"Z.	c #5F8E4A",
"`.	c #4C835A",
" +	c #6C813D",
".+	c #68AA5D",
"++	c #446253",
"@+	c #37484F",
"#+	c #435C51",
"$+	c #616142",
"%+	c #72843F",
"&+	c #86C654",
"*+	c #499464",
"=+	c #395A56",
"-+	c #669856",
";+	c #7FC960",
">+	c #609F67",
",+	c #7DC05A",
"'+	c #5A8455",
")+	c #446255",
"!+	c #3C5A5C",
"~+	c #89D75E",
"{+	c #89D45C",
"]+	c #679E5B",
"^+	c #476E5E",
"/+	c #818C45",
"(+	c #96CE59",
"_+	c #9BE460",
":+	c #93E05E",
"<+	c #7ACA60",
"[+	c #50A368",
"}+	c #3B946D",
"|+	c #3B9E6F",
"1+	c #35635B",
"2+	c #387D63",
"3+	c #4AA76A",
"4+	c #68B15F",
"5+	c #7EC45D",
"6+	c #5E915E",
"7+	c #497563",
"8+	c #41706B",
"9+	c #8C9448",
"0+	c #B0DC61",
"a+	c #B3F067",
"b+	c #79C05E",
"c+	c #4E8662",
"d+	c #397767",
"e+	c #3F9368",
"f+	c #457559",
"g+	c #89D55D",
"h+	c #6AA862",
"i+	c #4C816B",
"j+	c #92984B",
"k+	c #BEE365",
"l+	c #BFF66B",
"m+	c #9FE661",
"n+	c #79BC5D",
"o+	c #4D785F",
"p+	c #386261",
"q+	c #397C65",
"r+	c #37565D",
"s+	c #355659",
"t+	c #476B5C",
"u+	c #3A5156",
"v+	c #355558",
"w+	c #387862",
"x+	c #68A15D",
"y+	c #36515A",
"z+	c #C3F86C",
"A+	c #ABEC65",
"B+	c #5E8656",
"C+	c #89C65D",
"D+	c #CBFC6E",
"E+	c #ADE666",
"F+	c #4C735C",
"G+	c #4A6A55",
"H+	c #78BA5C",
"I+	c #78B75A",
"J+	c #9CD65D",
"K+	c #BEF26A",
"L+	c #ADE968",
"M+	c #8BCF64",
"N+	c #797D40",
"O+	c #93AF50",
"P+	c #BDE966",
"Q+	c #64A168",
"R+	c #666B4A",
"S+	c #889246",
"T+	c #AFDC61",
"U+	c #CFFF70",
"V+	c #6BAD65",
"W+	c #4C836C",
"X+	c #4A9365",
"Y+	c #5F6847",
"Z+	c #7B8942",
"`+	c #93CD58",
" @	c #42756E",
".@	c #469264",
"+@	c #6D7C41",
"@@	c #73B857",
"#@	c #8BD964",
"$@	c #ADEC68",
"%@	c #3C7170",
"&@	c #3C7770",
"*@	c #636F44",
"=@	c #549F60",
"-@	c #64BE68",
";@	c #3C8B70",
">@	c #656444",
",@	c #51845B",
"'@	c #53A263",
")@	c #6CC162",
"!@	c #7AC060",
"~@	c #79BD5E",
"{@	c #344A57",
"]@	c #37565F",
"^@	c #3A6067",
"/@	c #3C696D",
"(@	c #3F9E6D",
"_@	c #439667",
":@	c #6D573B",
"<@	c #5B8051",
"[@	c #54A363",
"}@	c #508568",
"|@	c #4E7C62",
"1@	c #3A6267",
"2@	c #3C6C6F",
"3@	c #469768",
"4@	c #577A54",
"5@	c #3D6E70",
"                                                                                            . + @ # # @ + .                     ",
"                                                          $ % & & & & & & % $               . + @ # # @ + .                     ",
"                                                          % * = = = = = = * %               . + @ # # @ + .                     ",
"                                                      $ % - ; > > > > > > ; - % $           . + @ # # @ + .                     ",
"                                                      % * ; , > > > > > > , ; * %           . + @ # # @ + .                     ",
"                                                      & = > > > > ' ) ! ! ! ! ~ {           . + @ # # @ + .                     ",
". . . . . . . . . . . . . . . ] ] ^ ^ ] ] . . . . . . / ( > > > > ) _ : : : : < [   ^ ] ] . } | 1 # # 1 | } . . . . . . . . . . ",
"+ + + + + + + + + + + + + + 2 } 3 ] ] 3 } 2 + + + 4 5 6 7 8 9 ' ) 0 a b b b b c d e f 3 } 2 | @ g h h g @ | + + + + + + + + + + ",
"@ @ @ @ @ @ @ @ @ @ @ @ @ @ i j } ] ] } j i @ @ @ k l m n o 8 ) _ a p b b b b q c r s } j i 1 g # t t # g 1 @ @ @ @ @ @ @ @ @ @ ",
"# # # # # # # # # # # # # # g i 2 . . 2 i g # # # u v w x o 8 ! : b b b b b b b b y z 2 i g # h t t t t h # # # # # # # # # # # ",
"# # # # # # # # # # # # # # g i 2 . . 2 i g # # # A B C D 8 9 ! : b b b b b b b b y z 2 i g # # # # # # # # # # # # # # # # # # ",
"@ @ @ @ @ @ @ @ @ @ @ @ @ @ i j } ] ] } j i @ E k F G > > ' ) 0 a b b b b b b b b c H I J i @ @ @ @ @ @ @ @ @ @ @ @ @ @ @ @ @ @ ",
"+ + + + + + + + + + + + + + 2 } 3 ] ] 3 } 2 + K L M N > > ) _ a p b b b b b b b b q O P I 2 + + + + + + + + + + + + + + + + + + ",
". . . . . . . . . . . . . . . ] ] ^ ^ ] ] . . z Q R S 8 9 ! : b b p a : : : : a p b b Q T . . . . . . . . . . . . . . . . . . . ",
"                                              U y V W o 8 ! : b b a 0 ! ! ! ! 0 a b b y U                                       ",
"                                          X e Y Z w x o 8 ! : b b : ! `  ...+.@.#.a p y U                                       ",
"                                          e r Z $.C D 8 9 ! : b b : !  .%.&.*.=.@.0 a y U                                       ",
"                                          e r -.;.> > ' ) 0 a p a >.,.'.).!.~.{.].^./.< [                                       ",
"                                          X e (._.> > ) _ a p a 0 ,.:.).<.!.~.[.}.|.^.~ {                                       ",
"                                          X e 1.2.8 9 ! : b b : ! 3.4.5.5.!.~.6.7.8.9._.(.e X                                   ",
"                                          e r 0.a.o 8 ! : b b : ! 3.4.5.5.!.~.b.6.c.d.;.-.r e                                   ",
"                                          U y e.f.g.h.! : p a >.,.'.).5.5.!.~.i.i.j.k.! : y U                                   ",
"                                    ^ ] ] z Q e.f.g.h.! : a 0 ,.:.).<.5.5.!.~.i.i.j.k.! : y U                                   ",
"                                    ] 3 } l.m.e.f.g.h.! : : ! 3.4.5.5.5.5.n.o.p.q.j.k.! : y U X e U U e X                       ",
"                                    ] } j r.s.e.f.g.h.! : : ! 3.4.5.5.5.5.t.n.u.p.j.k.! : y U e r y y r e                       ",
"                                    . 2 i v.w.e.f.g.h.! : : ! 3.4.5.5.5.5.5.5.!.~.{.].^./.< [ e r c q y U                       ",
". . . . . . . . . . . . . . . . . . } | 1 x.y.e.f.g.h.! : : ! 3.4.5.5.5.5.5.5.!.~.[.}.|.^.~ { X e d c y U           ^ ] ] . . . ",
"+ + + + + + + + + + + + + + + + + z.A.B.C.D.E.e.f.g.h.! : F.G.'.).5.5.5.5.5.5.!.~.H.I.g.h.( &     e r r e           ] 3 } 2 + + ",
"@ @ @ @ @ @ @ @ @ @ @ @ @ @ @ @ @ J.K.L.M.N.O.e.f.g.h.! : P.Q.).<.5.5.5.5.5.5.!.~.H.I.g.h.( &     X e e X           ] } j i @ @ ",
"# # # # # # # # # # # # # # # # # R.M.S.T.N.O.e.f.g.h.! : U.V.5.5.5.5.5.5.5.5.!.~.H.I.g.h.W.&                       . 2 i g # # ",
"# # # h t t t t h # # # # # # # # R.M.X.Y.Z.E.e.f.g.h.! : U.V.5.5.5.5.5.5.5.5.!.~.H.I.g.h.W.&                       . 2 i g # # ",
"@ @ 1 g # t t # g 1 @ @ @ @ @ @ @ J.`.`.J. +s.e.f.g.h.) _ .+++@+#+V.V.V.V.#+@+!.~.H.I.g.h.( &                       ] } j i @ @ ",
"+ + | @ g h h g @ | + + + + + + + z.$+$+z.%+&+e.f.g.h.' ) *+=+#+-+U.U.U.U.-+#+!.~.H.I.g.h.( &                       ] 3 } 2 + + ",
". . } | 1 # # 1 | } . . . . . . . . . . . z Q ;+>+x D > > 3.4.++.+: : a p ,+'+)+!+H.I.g.h.= &                       ^ ] ] . . . ",
"    . 2 i g g i 2 .                       U y ~+;+w C > > 3.4.=+*+! ! 0 a {+,+]+^+H.I.g.h.= &                                   ",
"    ] } j i i j } ]                       /+(+_+:+<+[+}+|+ .%.1+2+ .` 3+4+,+{+5+6+7+8+g.h.= &                                   ",
"    ] 3 } 2 2 } 3 ]                       9+0+a+_+b+c+d+}+`  .2+1+%. .e+f+'+,+g+5+h+i+g.h.= &                                   ",
"    ^ ] ] . . ] ] ^                       j+k+l+m+n+o+p+q+ .`  .%.1+2+'.).V.U.b b e.f.g.h.= &                                   ",
"                                          j+k+l+m+n+o+r+s+%. .`  .2+1+).<.V.U.b b e.f.g.h.= &                                   ",
"                                          j+k+l+m+5+6+t+u+v+w+3.3.'.).5.5.V.U.b b e.f.g.h.= &                                   ",
"                                          j+k+l+m+g+5+x+t+y+v+4.4.).<.5.5.V.U.b b e.f.g.h.= &                                   ",
"                                          j+k+z+A+_+:+n+o+~.!.5.5.5.5.@+#+B+C+_+:+V W o 8 = &                                   ",
"                                          j+k+D+z+a+_+n+o+~.!.5.5.5.5.#+-+C+E+a+_+R S 8 9 = &                                   ",
"                                          9+0+z+D+l+m+5+6+F+G+V.V.V.V.B+C+A+z+l+m+: ! , ; * %                                   ",
"                                          /+(+A+z+l+m+g+5+H+I+U.U.U.U.C+E+z+D+l+m+: ! ; - % $                                   ",
"                                          e r J+K+z+A+m+m+m+m+m+m+_+:+_+a+l+l+L+M+w C = &                                       ",
". . . . . . . . . . . ] ] ^               X N+O+P+D+z+l+l+l+l+l+l+a+_+:+_+m+m+M+Q+x D W.R+. . . . . . . . . . . . . . . . . . . ",
"+ + + + + + + + + + 2 } 3 ]                 ] S+T+z+D+U+U+U+U+D+z+a+_+b b ~+;+V+W+g.h.X+Y++ + + + + + + + + + + + + + + + + + + ",
"@ @ @ @ @ @ @ @ @ @ i j } ]                 ] Z+`+A+z+U+U+U+U+z+A+_+:+b b ;+>+W+ @g.h..@B.@ @ @ @ @ @ @ @ @ @ @ @ @ @ @ @ @ @ @ ",
"# # # # # # # # # # g i 2 .       $ % % $   . +@@@#@$@l+l+l+l+a+_+{+,+I+H+h+i+%@&@o 8 M.R.# # # # # # # # # # # # # # # # # # # ",
"# # # # # # # # # # g i 2 .       % * * %   . *@=@-@#@m+m+m+m+_+:+,+'+G+F+7+8+&@;@8 9 M.R.# # h t t t t h # # # # # # # # # # # ",
"@ @ @ @ @ @ @ @ @ @ i j } ]       % * * %   ] >@,@'@)@R V e.e.!@~@]+)+{@]@^@/@g.h.(@_@`.J.@ 1 g # t t # g 1 @ @ @ @ @ @ @ @ @ @ ",
"+ + + + + + + + + + 2 } 3 ]       $ % % $   ] :@>@<@[@S W f.f.}@|@^+!+]@1@/@2@g.h.3@4@$+z.+ | @ g h h g @ | + + + + + + + + + + ",
". . . . . . . . . . . ] ] ^                 ^ ] ] R+W.8 o &@%@/@^@H.H.^@/@%@&@o 8 W.R+. . . } | 1 # # 1 | } . . . . . . . . . . ",
"                                                  & = 9 8 ;@&@2@/@I.I./@2@&@;@8 9 = &       . 2 i g g i 2 .                     ",
"                                                  % * ; , h.g.5@5@5@5@5@5@g.h., ; * %       ] } j i i j } ]                     ",
"                                                  $ % - ; h.g.5@5@5@5@5@5@g.h.; - % $       ] 3 } 2 2 } 3 ]                     ",
"                                                      & = 8 o &@%@5@5@%@&@o 8 = &           ^ ] ] . . ] ] ^                     ",
"                                                      & = 9 8 ;@&@5@5@&@;@8 9 = &                                               ",
"                                                      % * ; , 8 o g.g.o 8 , ; * %                                               ",
"                                                      $ % - ; 9 8 h.h.8 9 ; - % $                                               ",
"                                                          % * = = = = = = * %                                                   ",
"                                                          $ % & & & & & & % $                                                   ",
"                                                                                                                                "};
