/* XPM */
static char * floor (copy)_xpm[] = {
"64 64 339 2",
"  	c #755338",
". 	c #704F35",
"+ 	c #674830",
"@ 	c #5D402C",
"# 	c #543927",
"$ 	c #76633A",
"% 	c #7A7D40",
"& 	c #818C45",
"* 	c #8C9448",
"= 	c #7C8843",
"- 	c #84B24F",
"; 	c #96CE59",
"> 	c #B0DC61",
", 	c #89C755",
"' 	c #A7EA64",
") 	c #B7F268",
"! 	c #B3F067",
"~ 	c #9BE460",
"{ 	c #89D75E",
"] 	c #7FC960",
"^ 	c #7AC561",
"/ 	c #7ACB61",
"( 	c #7AC05B",
"_ 	c #7B9E4B",
": 	c #93E05E",
"< 	c #609F67",
"[ 	c #51936B",
"} 	c #50A76B",
"| 	c #5FB665",
"1 	c #8FAD4F",
"2 	c #B0E163",
"3 	c #6BAD65",
"4 	c #4C836C",
"5 	c #3C7770",
"6 	c #3C8B70",
"7 	c #4BA46C",
"8 	c #6AC065",
"9 	c #78BA59",
"0 	c #768045",
"a 	c #725036",
"b 	c #745237",
"c 	c #767B3E",
"d 	c #83B14E",
"e 	c #8ECE58",
"f 	c #9ADE5E",
"g 	c #42756E",
"h 	c #3C7170",
"i 	c #41886E",
"j 	c #5BA161",
"k 	c #6D7448",
"l 	c #6C4C33",
"m 	c #64452F",
"n 	c #5C3F2B",
"o 	c #684931",
"p 	c #6F4E35",
"q 	c #7A673C",
"r 	c #898946",
"s 	c #878845",
"t 	c #75643A",
"u 	c #788840",
"v 	c #94CD58",
"w 	c #6AAA63",
"x 	c #4A7C67",
"y 	c #3B6569",
"z 	c #3B676B",
"A 	c #3C6B6E",
"B 	c #4F9166",
"C 	c #6C8951",
"D 	c #736038",
"E 	c #583C29",
"F 	c #523826",
"G 	c #60432D",
"H 	c #664730",
"I 	c #AECB5C",
"J 	c #ADCA5B",
"K 	c #828542",
"L 	c #7E8D42",
"M 	c #ADDB60",
"N 	c #3D6060",
"O 	c #37535D",
"P 	c #385961",
"Q 	c #508C6A",
"R 	c #75B15D",
"S 	c #787C3F",
"T 	c #503625",
"U 	c #888845",
"V 	c #ACCA5B",
"W 	c #7E8441",
"X 	c #58502B",
"Y 	c #627236",
"Z 	c #88AB4B",
"` 	c #BBE865",
" .	c #BFF66B",
"..	c #9FE661",
"+.	c #7ABF60",
"@.	c #508366",
"#.	c #395D64",
"$.	c #354E5A",
"%.	c #344755",
"&.	c #4C866C",
"*.	c #6AB665",
"=.	c #727F43",
"-.	c #78663B",
";.	c #838643",
">.	c #6B5E35",
",.	c #7AAE4B",
"'.	c #98D55B",
").	c #BDF169",
"!.	c #79BB5D",
"~.	c #4D755D",
"{.	c #334554",
"].	c #324151",
"^.	c #417E6E",
"/.	c #4BA06C",
"(.	c #697246",
"_.	c #72853E",
":.	c #92CC57",
"<.	c #ABEC65",
"[.	c #C3F86C",
"}.	c #78B95B",
"|.	c #4B6F58",
"1.	c #323E4F",
"2.	c #3C7B70",
"3.	c #3C9570",
"4.	c #4E9C66",
"5.	c #6A8C50",
"6.	c #737A3D",
"7.	c #685A33",
"8.	c #849044",
"9.	c #AEDC60",
"0.	c #CBFC6E",
"a.	c #4FAA6A",
"b.	c #74BB5C",
"c.	c #82B14E",
"d.	c #8F964A",
"e.	c #BDE365",
"f.	c #ADE968",
"g.	c #8BCF64",
"h.	c #68A35E",
"i.	c #456558",
"j.	c #334453",
"k.	c #324050",
"l.	c #3B716B",
"m.	c #3B896E",
"n.	c #88C654",
"o.	c #7A8742",
"p.	c #92984B",
"q.	c #BEE365",
"r.	c #64A168",
"s.	c #497764",
"t.	c #3A5357",
"u.	c #385D61",
"v.	c #94B051",
"w.	c #BEE966",
"x.	c #385B63",
"y.	c #9CD65D",
"z.	c #BEF26A",
"A.	c #354D59",
"B.	c #334352",
"C.	c #4F9465",
"D.	c #6A6D4B",
"E.	c #78B85B",
"F.	c #4A6C57",
"G.	c #3B746B",
"H.	c #3B936E",
"I.	c #6C8D51",
"J.	c #77B65A",
"K.	c #496854",
"L.	c #386761",
"M.	c #3A8F6B",
"N.	c #75BC5D",
"O.	c #CFFF70",
"P.	c #77B659",
"Q.	c #496652",
"R.	c #365C5D",
"S.	c #3A8269",
"T.	c #36565D",
"U.	c #3A6E69",
"V.	c #8B9448",
"W.	c #BCE365",
"X.	c #879246",
"Y.	c #BBE264",
"Z.	c #839144",
"`.	c #BAE264",
" +	c #324451",
".+	c #335055",
"++	c #345757",
"@+	c #355958",
"#+	c #365E5B",
"$+	c #3C8570",
"%+	c #3C9970",
"&+	c #819043",
"*+	c #377661",
"=+	c #398967",
"-+	c #398A68",
";+	c #3A8C69",
">+	c #3C9F70",
",+	c #798B3F",
"'+	c #ACDB5F",
")+	c #366A5D",
"!+	c #3A9069",
"~+	c #41A66E",
"{+	c #4BAE6C",
"]+	c #50B16B",
"^+	c #4E9465",
"/+	c #6A833B",
"(+	c #90CC56",
"_+	c #3B9C6D",
":+	c #6AC465",
"<+	c #7ACF61",
"[+	c #647E39",
"}+	c #83C552",
"|+	c #7DC05A",
"1+	c #5A8455",
"2+	c #446253",
"3+	c #395A56",
"4+	c #60BC67",
"5+	c #7FD260",
"6+	c #8FDE5D",
"7+	c #59A061",
"8+	c #667F3A",
"9+	c #89D45C",
"0+	c #68AA5D",
"a+	c #499464",
"b+	c #89DA5E",
"c+	c #77B958",
"d+	c #65793E",
"e+	c #73B857",
"f+	c #8BD964",
"g+	c #ADEC68",
"h+	c #3CA370",
"i+	c #8B8A47",
"j+	c #7C693E",
"k+	c #626F44",
"l+	c #56A060",
"m+	c #64BE68",
"n+	c #AFCB5C",
"o+	c #666B4A",
"p+	c #4D9465",
"q+	c #3F9368",
"r+	c #4AA76A",
"s+	c #457559",
"t+	c #68B15F",
"u+	c #8FCF58",
"v+	c #4BAA6C",
"w+	c #6ABA65",
"x+	c #499B66",
"y+	c #3B6D5C",
"z+	c #4B7858",
"A+	c #78BC5B",
"B+	c #419C6E",
"C+	c #4C906C",
"D+	c #6ABD63",
"E+	c #4E9E65",
"F+	c #79C85F",
"G+	c #4B806A",
"H+	c #69A660",
"I+	c #8AC85F",
"J+	c #ADE767",
"K+	c #5AB266",
"L+	c #6EB45D",
"M+	c #669856",
"N+	c #435C51",
"O+	c #406E6A",
"P+	c #476E5E",
"Q+	c #608C5A",
"R+	c #558056",
"S+	c #37484F",
"T+	c #456557",
"U+	c #679B58",
"V+	c #3A5155",
"W+	c #445F53",
"X+	c #6D6847",
"Y+	c #5A875C",
"Z+	c #4A9868",
"`+	c #419E6D",
" @	c #36605D",
".@	c #8ED85B",
"+@	c #8BCD57",
"@@	c #725B3E",
"#@	c #617E57",
"$@	c #81A44A",
"%@	c #686C4A",
"&@	c #788742",
"*@	c #656B4A",
"=@	c #4C9365",
"-@	c #334652",
";@	c #355759",
">@	c #3D7460",
",@	c #4A9D67",
"'@	c #86C654",
")@	c #72843F",
"!@	c #636A49",
"~@	c #499365",
"{@	c #345155",
"]@	c #387963",
"^@	c #6ABE63",
"/@	c #85C553",
"(@	c #6C813D",
"_@	c #606848",
":@	c #479264",
"<@	c #3A6268",
"[@	c #354C58",
"}@	c #3A6469",
"|@	c #36505B",
"1@	c #656444",
"2@	c #51845B",
"3@	c #449767",
"4@	c #3F9E6D",
"5@	c #8DD85B",
"6@	c #87CC55",
"7@	c #7CAF4C",
"8@	c #687539",
"9@	c #6D573B",
"0@	c #587B54",
"a@	c #469768",
"b@	c #89CC56",
"c@	c #7AA147",
"d@	c #6F783B",
"e@	c #695B33",
"f@	c #6B6646",
"g@	c #6F593C",
"h@	c #675832",
"i@	c #677438",
"j@	c #70783C",
"k@	c #7DAF4C",
"l@	c #84C553",
"m@	c #7FB04D",
"n@	c #88CC55",
"o@	c #768640",
"p@	c #715F37",
"q@	c #7AA148",
"r@	c #87C654",
"s@	c #788642",
"t@	c #83B14F",
"u@	c #7DCD5E",
"v@	c #86C858",
"w@	c #5CA863",
"x@	c #71944F",
"                                                                                            . + @ # # @ + .                     ",
"                                                      $ % & * * & = = = = % $               . + @ # # @ + .                     ",
"                                                      % - ; > > ; , , , , - %               . + @ # # @ + .                     ",
"                                                      & ; ' ) ! ~ { ] ^ / ( _ % $           . + @ # # @ + .                     ",
"                                                      * > ) ' ~ : ] < [ } | ( - %           . + @ # # @ + .                     ",
"                                                  $ % 1 2 ! ~ { ] 3 4 5 6 7 8 9 0           . + @ # # @ + .                     ",
". . . . . . . . . . . . . . . a a b b a a . . . . c d e f ~ : ] < 4 g h 5 i 7 j k   b a a . l m n # # n m l . . . . . . . . . . ",
"+ + + + + + + + + + + + + + o l p q r s t o + + + u v ~ : { ] w x y y z A 5 6 B C % D p l o m @ E F F E @ m + + + + + + + + + + ",
"@ @ @ @ @ @ @ @ @ @ @ @ @ @ G H l r I J K G @ @ @ L M ! ~ ] < x N O O P z h 5 Q R - S l H G n E # T T # E n @ @ @ @ @ @ @ @ @ @ ",
"# # # # # # # # # # # # # # E G o U I V W E # X Y Z `  ...+.@.#.$.%.%.$.#.z A &.*.9 =.o G E # F T T T T F # # # # # # # # # # # ",
"# # # # # # # # # # # # # # E G o -.U ;.>.E # Y ,.'.). ...!.~.$.{.].].{.$.P z ^./.j (.o G E # # # # # # # # # # # # # # # # # # ",
"@ @ @ @ @ @ @ @ @ @ @ @ @ @ G H l a a l H G @ _.:.<.[. ...}.|.%.].1.1.].%.O y 2.3.4.5.6.7.G @ @ @ @ @ @ @ @ @ @ @ @ @ @ @ @ @ @ ",
"+ + + + + + + + + + + + + + o l p a a p l o + 8.9.[.0. ...}.|.%.].1.1.].%.O y 2.3.a.b.c.6.o + + + + + + + + + + + + + + + + + + ",
". . . . . . . . . . . . . . . a a b b a a . . d.e.0.[.f.g.h.i.j.k.1.1.k.j.$.#.l.m.} / n.o.. . . . . . . . . . . . . . . . . . . ",
"                                              p.q.[.<.g.r.s.t.k.1.1.1.1.k.{.$.u.l.[ ^ , =                                       ",
"                                          $ % v.w. ...+.@.x.%.1.1.1.1.1.1.].%.O y &.*.9 0                                       ",
"                                          % - y.z. ...!.~.A.B.1.1.1.1.1.1.].%.O y ^./.j k                                       ",
"                                          = , .. . ...}.|.%.].1.1.1.1.1.1.].%.O y 2.3.C.D.                                      ",
"                                          = , .. . ...}.|.%.].1.1.1.1.1.1.].%.O y 2.3.C.D.                                      ",
"                                          & ; <.[. ...E.F.j.k.1.1.1.1.1.1.k.j.$.#.G.H.4.I.% $                                   ",
"                                          * > [.0. ...J.K.k.1.1.1.1.1.1.1.1.k.{.$.L.M.a.N.- %                                   ",
"                                          p.q.O.O. ...P.Q.1.1.1.1.1.1.1.1.1.1.].%.R.S.} / , =                                   ",
"                                    b a a d.e.O.O. ...P.Q.1.1.1.1.1.1.1.1.1.1.].%.T.U.[ ^ , =                                   ",
"                                    a p l V.W.O.O. ...P.Q.1.1.1.1.1.1.1.1.1.1.].%.O y &.*.9 0                                   ",
"                                    a l H X.Y.O.O. ...P.Q.1.1.1.1.1.1.1.1.1.1.].%.O y ^./.j k                                   ",
"                                    . o G Z.`.O.O. ...P.Q.1.1.1.1.1.1. +.+++++@+#+L.G.$+%+C.D.                                  ",
". . . . . . . . . . . . . . . . . . l m n &+`.O.O. ...P.Q.1.1.1.1.1.1..+*+=+=+-+;+M.H.%+>+C.D.                      b a a . . . ",
"+ + + + + + + + + + + + + + + + + + m @ E ,+'+[.0. ...P.Q.1.1. +.+++++)+!+~+{+]+]+]+]+{+~+^+D.                      a p l o + + ",
"@ @ @ @ @ @ @ @ @ @ @ @ @ @ @ @ @ @ n E # /+(+<.[. ...P.Q.1.1..+*+=+=+!+_+{+:+<+<+<+<+:+{+^+D.                      a l H G @ @ ",
"# # # # # # # # # # # # # # # # # # # F T [+}+.. . ...|+1+2+3+)+!+~+{+]+]+4+5+6+6+6+6+5+4+7+k                       . o G E # # ",
"# # # F T T T T F # # # # # # # # # # # # 8+}+.. . ...9+|+0+a+!+_+{+:+<+<+5+b+6+6+6+6+b+5+c+0                       . o G E # # ",
"@ @ n E # T T # E n @ @ @ @ @ @ @ @ @ @ @ d+e+f+g+) ' ~ : <+]+h+h+{+:+<+<+<+<+5+b+6+6+6+6+e 1 i+j+                  a l H G @ @ ",
"+ + m @ E F F E @ m + + + + + + + + + + + k+l+m+f+' ) ! ~ <+]+h+h+~+{+]+]+]+]+4+5+6+6+6+6+f 2 n+i+                  a p l o + + ",
". . l m n # # n m l . . . . . . . . . . . o+p+]+<+.. . ...<+]+_+!+q+r+r+q+!+_+{+:+5+b+6+6+f 2 n+i+                  b a a . . . ",
"    . o G E E G o .                       D.C.]+<+.. . ...<+]+!+)+s+t+t+s+)+!+~+{+4+5+6+6+u+1 i+j+                              ",
"    a l H G G H l a                       D.C.v+w+g.f.) ' f+m+x+y+z+A+P.Q..+*+!+_+]+<+6+6+, =                                   ",
"    a p l o o l p a                       D.C.B+C+r.g.' ) g+f+D+x+E+F+P.Q. +.+)+!+]+<+6+6+, =                                   ",
"    b a a . . a a b                       D.C.3.2.G+H+I+J+! ~ 5+4+K+L+M+N+1.1.++=+]+<+6+6+, =                                   ",
"                                          D.C.3.2.O+P+Q+I+~ : b+5+L+R+N+S+1.1.++=+]+<+6+6+, =                                   ",
"                                          D.C.3.2.y O T+U+P.P.P.P.M+N+1.1.1.1.++=+]+<+6+6+, =                                   ",
"                                          D.C.3.2.y O V+W+Q.Q.Q.Q.N+S+1.1.1.1.++=+]+<+6+6+, =                                   ",
"                                          D.C.%+$+l.u.$.{.k.1.1.1.1.1.1.1.1.k.@+-+]+<+6+6+, =                                   ",
"                                          D.C.>+%+m.l.#.$.j.k.1.1.1.1.1.1.k.j.#+;+]+<+6+6+, =                                   ",
"                                          X+Y+Z+`+3.2.y O %.].1.1.1.1.1.1.].%. @;+]+<+.@+@- %                                   ",
"                                          @@X+#@Z+3.2.y O %.].1.1.1.1.1.1.].%. @;+]+<++@$@% $                                   ",
"                                              D.C.3.2.y O %.].1.1.1.1.1.1.].%. @;+]+<+, =                                       ",
". . . . . . . . . . . a a b                 b %@^+3.2.y O %.].1.1.1.1.1.1.].%. @;+]+<+n.&@. . . . . . . . . . . . . . . . . . . ",
"+ + + + + + + + + + o l p a                 a *@=@3.2.z P A.B.1.1.1.1.1.1.-@;@>@,@4+5+'@)@+ + + + + + + + + + + + + + + + + + + ",
"@ @ @ @ @ @ @ @ @ @ G H l a                 a !@~@3.2.A z x.%.1.1.1.1.1.1.{@]@,@^@5+b+/@(@@ @ @ @ @ @ @ @ @ @ @ @ @ @ @ @ @ @ @ ",
"# # # # # # # # # # E G o .                 . _@:@%+$+5 h <@[@k.1.1.1.1.k.@+-+]+<+6+6+}+8+# # # # # # # # # # # # # # # # # # # ",
"# # # # # # # # # # E G o .                 . _@:@>+%+6 5 }@|@j.k.1.1.k.j.#+;+]+<+6+6+}+8+# # F T T T T F # # # # # # # # # # # ",
"@ @ @ @ @ @ @ @ @ @ G H l a                 a 1@2@3@4@3.2.z P $.{.].].{.$.L.M.]+<+5@6@7@8@@ n E # T T # E n @ @ @ @ @ @ @ @ @ @ ",
"+ + + + + + + + + + o l p a                 a 9@1@0@a@3.2.A z #.$.%.%.$.#.G.H.]+<+b@c@d@e@+ m @ E F F E @ m + + + + + + + + + + ",
". . . . . . . . . . . a a b           @@X+D.D.f@g@o+p+%+$+5 h z P O O u.l.i 7 4+5+n.&@. . . l h@i@8+8+i@h@l . . . . . . . . . . ",
"                                      X+Y+C.C.Y+X+D.C.>+%+6 5 A z y y l.m.7 8 5+b+, =       . j@k@l@l@k@j@.                     ",
"                                      D.C.h+h+C.D.X+Y+Z+`+3.2.h 5 2.2.$+%+]+<+.@+@- %       a 6.m@n@5@'@o@a                     ",
"                                      D.C.h+h+C.D.@@X+#@Z+3.2.5 6 3.3.%+>+]+<++@$@% $       a p@6.q@b@r@s@a                     ",
"                                      X+Y+C.C.Y+X+    D.C.%+$+i 7 ]+]+]+]+4+5+, =           b a a c d t@S b                     ",
"                                      @@X+D.D.X+@@    D.C.>+%+7 8 <+<+<+<+5+b+, =                 $ % % $                       ",
"                                                      X+Y+Z+`+{+:+<+<+<+<+u@v@- %                                               ",
"                                                      @@X+#@Z+~+{+]+]+]+]+w@x@% $                                               ",
"                                                          X+Y+C.C.C.C.C.C.Y+X+                                                  ",
"                                                          @@X+D.D.D.D.D.D.X+@@                                                  ",
"                                                                                                                                "};
