/* XPM */
static char * floor (copy)_xpm[] = {
"64 64 361 2",
"  	c #755338",
". 	c #704F35",
"+ 	c #674830",
"@ 	c #5D402C",
"# 	c #543927",
"$ 	c #725B3E",
"% 	c #6D6847",
"& 	c #6A6D4B",
"* 	c #6D7448",
"= 	c #768045",
"- 	c #7C8843",
"; 	c #7A7D40",
"> 	c #76633A",
", 	c #5A875C",
"' 	c #4F9465",
") 	c #5BA161",
"! 	c #78BA59",
"~ 	c #89C755",
"{ 	c #84B24F",
"] 	c #617E57",
"^ 	c #4A9868",
"/ 	c #41A66E",
"( 	c #4BAE6C",
"_ 	c #60BC67",
": 	c #7FD260",
"< 	c #8FDE5D",
"[ 	c #419E6D",
"} 	c #6AC465",
"| 	c #89DA5E",
"1 	c #64BE68",
"2 	c #8BD964",
"3 	c #9FE661",
"4 	c #9BE460",
"5 	c #93E05E",
"6 	c #8BCD57",
"7 	c #81A44A",
"8 	c #725036",
"9 	c #745237",
"0 	c #686C4A",
"a 	c #4E9465",
"b 	c #ADEC68",
"c 	c #BFF66B",
"d 	c #B3F067",
"e 	c #8ED85B",
"f 	c #797D40",
"g 	c #6C4C33",
"h 	c #64452F",
"i 	c #5C3F2B",
"j 	c #684931",
"k 	c #6F4E35",
"l 	c #655237",
"m 	c #626243",
"n 	c #5C7C53",
"o 	c #4F9866",
"p 	c #58B269",
"q 	c #7CCF61",
"r 	c #CFFF70",
"s 	c #C3F86C",
"t 	c #ABEC65",
"u 	c #7A8742",
"v 	c #583C29",
"w 	c #523826",
"x 	c #60432D",
"y 	c #664730",
"z 	c #585D40",
"A 	c #4E835A",
"B 	c #4D9866",
"C 	c #56A068",
"D 	c #68B366",
"E 	c #82CF60",
"F 	c #CBFC6E",
"G 	c #503625",
"H 	c #6B5E35",
"I 	c #838643",
"J 	c #8F964A",
"K 	c #4F6143",
"L 	c #449264",
"M 	c #49A76D",
"N 	c #63AF67",
"O 	c #7BC063",
"P 	c #93D962",
"Q 	c #97D35B",
"R 	c #83A54A",
"S 	c #70783C",
"T 	c #635730",
"U 	c #7E8441",
"V 	c #ACCA5B",
"W 	c #BDE365",
"X 	c #4EAE6B",
"Y 	c #72C463",
"Z 	c #B0ED68",
"` 	c #B2EB65",
" .	c #80B04D",
"..	c #6A7639",
"+.	c #828542",
"@.	c #ADCA5B",
"#.	c #5B4C34",
"$.	c #517853",
"%.	c #449767",
"&.	c #50B16B",
"*.	c #7ACF61",
"=.	c #87C654",
"-.	c #72843F",
";.	c #75643A",
">.	c #878845",
",.	c #90974A",
"'.	c #616142",
").	c #52845B",
"!.	c #469768",
"~.	c #409E6D",
"{.	c #88C654",
"].	c #768640",
"^.	c #666B4A",
"/.	c #4D9465",
"(.	c #3EA36F",
"_.	c #43A36E",
":.	c #B7F268",
"<.	c #A7EA64",
"[.	c #95CD59",
"}.	c #7F8B44",
"|.	c #53A46A",
"1.	c #B0DC61",
"2.	c #8C9448",
"3.	c #89D45C",
"4.	c #7DC05A",
"5.	c #78B75A",
"6.	c #78BA5C",
"7.	c #7EC45D",
"8.	c #89D55D",
"9.	c #BEE365",
"0.	c #92984B",
"a.	c #5A8455",
"b.	c #4A6A55",
"c.	c #4C735C",
"d.	c #5E915E",
"e.	c #669856",
"f.	c #435C51",
"g.	c #334453",
"h.	c #36505B",
"i.	c #487160",
"j.	c #69A761",
"k.	c #8BCF64",
"l.	c #ADE968",
"m.	c #B0E163",
"n.	c #8FAD4F",
"o.	c #37484F",
"p.	c #3E6362",
"q.	c #4B7D68",
"r.	c #64A168",
"s.	c #9ADE5E",
"t.	c #8FCF58",
"u.	c #627E55",
"v.	c #519966",
"w.	c #77B659",
"x.	c #496652",
"y.	c #323E4F",
"z.	c #385A63",
"A.	c #3A6369",
"B.	c #508568",
"C.	c #7AC060",
"D.	c #96CE59",
"E.	c #818C45",
"F.	c #57A068",
"G.	c #385761",
"H.	c #4E7C62",
"I.	c #79BD5E",
"J.	c #43A06E",
"K.	c #539A6A",
"L.	c #68A966",
"M.	c #82CC60",
"N.	c #385660",
"O.	c #4D785F",
"P.	c #79BC5D",
"Q.	c #3E996F",
"R.	c #44856E",
"S.	c #599469",
"T.	c #7DC561",
"U.	c #606848",
"V.	c #4A9365",
"W.	c #3C9570",
"X.	c #3C7B70",
"Y.	c #518A6B",
"Z.	c #7AC261",
"`.	c #334252",
" +	c #354B58",
".+	c #36515C",
"++	c #37545E",
"@+	c #596646",
"#+	c #479264",
"$+	c #323F50",
"%+	c #344856",
"&+	c #526244",
"*+	c #439164",
"=+	c #4D6143",
"-+	c #429164",
";+	c #95DA5F",
">+	c #81C25B",
",+	c #395C64",
"'+	c #3B686C",
")+	c #4C6042",
"!+	c #429163",
"~+	c #A1D265",
"{+	c #668A58",
"]+	c #A7CE67",
"^+	c #596E57",
"/+	c #566445",
"(+	c #469264",
"_+	c #324451",
":+	c #335055",
"<+	c #345757",
"[+	c #5F6847",
"}+	c #377661",
"|+	c #398967",
"1+	c #3C9970",
"2+	c #3C8570",
"3+	c #51936B",
"4+	c #7AC561",
"5+	c #9BC864",
"6+	c #556C56",
"7+	c #3A9069",
"8+	c #366A5D",
"9+	c #355659",
"0+	c #37565D",
"a+	c #3C9F70",
"b+	c #50A76B",
"c+	c #7ACB61",
"d+	c #83BC5D",
"e+	c #4D6853",
"f+	c #3B9C6D",
"g+	c #397C65",
"h+	c #386261",
"i+	c #4BA96B",
"j+	c #69B562",
"k+	c #456E57",
"l+	c #3D8062",
"m+	c #4E9E65",
"n+	c #79C85F",
"o+	c #3B946D",
"p+	c #397767",
"q+	c #3A6A67",
"r+	c #3C6C6D",
"s+	c #40986B",
"t+	c #498263",
"u+	c #669E58",
"v+	c #4B7858",
"w+	c #78BC5B",
"x+	c #3B9E6F",
"y+	c #3B876D",
"z+	c #3C766F",
"A+	c #3B8F6C",
"B+	c #396964",
"C+	c #476E5E",
"D+	c #679E5B",
"E+	c #547A54",
"F+	c #6CA257",
"G+	c #3CA370",
"H+	c #3C5A5C",
"I+	c #446255",
"J+	c #375F5F",
"K+	c #344D57",
"L+	c #446054",
"M+	c #669957",
"N+	c #395A56",
"O+	c #499464",
"P+	c #397F67",
"Q+	c #3B5559",
"R+	c #446253",
"S+	c #68AA5D",
"T+	c #4C906C",
"U+	c #6ABA65",
"V+	c #419C6E",
"W+	c #4BAA6C",
"X+	c #376460",
"Y+	c #355B5A",
"Z+	c #3A8E6A",
"`+	c #398B68",
" @	c #5BB968",
".@	c #6FC764",
"+@	c #6AC065",
"@@	c #4BA46C",
"#@	c #41886E",
"$@	c #727E43",
"%@	c #76B958",
"&@	c #3F8F6F",
"*@	c #44826E",
"=@	c #49896D",
"-@	c #4EA46B",
";@	c #56A060",
">@	c #626F44",
",@	c #667145",
"'@	c #54906A",
")@	c #63A567",
"!@	c #72C163",
"~@	c #73B857",
"{@	c #65793E",
"]@	c #6ABD63",
"^@	c #499B66",
"/@	c #447B6E",
"(@	c #53976A",
"_@	c #83C552",
":@	c #667F3A",
"<@	c #3B6D5C",
"[@	c #3F7B6F",
"}@	c #44966E",
"|@	c #656444",
"1@	c #51845B",
"2@	c #3F9E6D",
"3@	c #3B946F",
"4@	c #3B916D",
"5@	c #344A57",
"6@	c #37565F",
"7@	c #3C6466",
"8@	c #43746B",
"9@	c #4DAA69",
"0@	c #71BB5C",
"a@	c #7CAF4C",
"b@	c #687539",
"c@	c #6D573B",
"d@	c #587B54",
"e@	c #3B766D",
"f@	c #396D67",
"g@	c #3A6267",
"h@	c #538C69",
"i@	c #4A9B66",
"j@	c #638A4E",
"k@	c #6F783B",
"l@	c #695B33",
"m@	c #3C696D",
"n@	c #3A6067",
"o@	c #58A869",
"p@	c #53AE6A",
"q@	c #59A061",
"r@	c #697246",
"s@	c #6E583B",
"t@	c #5C6647",
"u@	c #50593E",
"v@	c #524730",
"w@	c #3C6C6F",
"x@	c #6DC464",
"y@	c #57865C",
"z@	c #498259",
"A@	c #545B3F",
"B@	c #647953",
"C@	c #578B60",
"D@	c #44786E",
"E@	c #3F716F",
"F@	c #3D6E70",
"G@	c #4FAA6A",
"H@	c #75BC5D",
"I@	c #548D6A",
"J@	c #4E9C66",
"K@	c #6C8D51",
"L@	c #569A6A",
"M@	c #4C866C",
"N@	c #477C6D",
"O@	c #5A865C",
"P@	c #696545",
"Q@	c #4BA06C",
"R@	c #5B9869",
"S@	c #5BA569",
"T@	c #46A36D",
"                                                                                            . + @ # # @ + .                     ",
"                                                          $ % & & * = - - - - ; >           . + @ # # @ + .                     ",
"                                                          % , ' ' ) ! ~ ~ ~ ~ { ;           . + @ # # @ + .                     ",
"                                                      $ % ] ^ / ( _ : < < < < ~ -           . + @ # # @ + .                     ",
"                                                      % , ^ [ ( } : | < < < < ~ -           . + @ # # @ + .                     ",
"                                                      & ' / ( 1 2 3 3 3 3 4 5 6 7 ; >       . + @ # # @ + .                     ",
". . . . . . . . . . . . . . . 8 8 9 9 8 8 . . . . . . 0 a ( } 2 b c c c c d 4 e 6 { f 8 8 . g h i # # i h g . . . . . . . . . . ",
"+ + + + + + + + + + + + + + j g k 8 8 k g j + + + l m n o p q 3 c r r r r s t 4 5 ~ u k g j h @ v w w v @ h + + + + + + + + + + ",
"@ @ @ @ @ @ @ @ @ @ @ @ @ @ x y g 8 8 g y x @ @ @ z A B C D E 3 c r r r r F s d 4 ~ u g y x i v # G G # v i @ @ @ @ @ @ @ @ @ @ ",
"# # # # # # # # # # # # # # v H I J J I H v # # # K L M N O P t s r r r r r r s t Q R S T v # w G G G G w # # # # # # # # # # # ",
"# # # # # # # # # # # # # # v U V W W V U v # # # K L X Y P Z s F r r r r r r F s ` Q  ...v # # # # # # # # # # # # # # # # # # ",
"@ @ @ @ @ @ @ @ @ @ @ @ @ @ x +.@.W W @.+.x @ #.z $.%.&.*.3 c r r F s c c c c s F c 3 =.-.x @ @ @ @ @ @ @ @ @ @ @ @ @ @ @ @ @ @ ",
"+ + + + + + + + + + + + + + j ;.>.,.,.>.;.j + '.).!.~.&.*.3 c r r s t 3 3 3 3 t s c 3 {.].j + + + + + + + + + + + + + + + + + + ",
". . . . . . . . . . . . . . . 8 8 9 9 8 8 . . ^./.(._.p q 3 c F s d 4 < < < < 4 d :.<.[.}.. . . . . . . . . . . . . . . . . . . ",
"                                              & ' _.|.D E 3 c s t 4 5 < < < < 5 4 <.:.1.2.                                      ",
"                                  $ % % $     & ' M N O P t s c 3 < < 3.4.5.6.7.8.3 c 9.0.                                      ",
"                                  % , , %     & ' X Y P Z s F c 3 < < 4.a.b.c.d.7.3 c 9.0.                                      ",
"                                  % , , %     & ' &.*.3 c r r c 3 3.4.e.f.g.h.i.j.k.l.m.n.; >                                   ",
"                                  $ % % $     & ' &.*.3 c r r c 3 4.a.f.o.g.h.p.q.r.k.s.t.{ ;                                   ",
"                                          $ % u.v.p q 3 c F s d 4 w.x.y.y.g.h.z.A.B.C.5 4 D.E.                                  ",
"                                          % , v.F.D E 3 c s t 4 5 w.x.y.y.g.h.G.z.H.I.4 d 1.2.                                  ",
"                                          & ' J.K.L.M.3 c c 3 3.4.e.f.y.y.g.h.N.N.O.P.3 c 9.0.                                  ",
"                                    9 8 8 ^./.Q.R.S.T.3 c c 3 4.a.f.o.y.y.g.h.N.N.O.P.3 c 9.0.                                  ",
"                                    8 k g U.V.W.X.Y.Z.4 d d 4 w.x.y.y.y.y.`. +.+++O.P.3 c 9.0.                                  ",
"                                    8 g y @+#+W.X.Y.Z.5 4 4 5 w.x.y.y.y.y.$+`.%+.+O.P.3 c 9.0.                                  ",
"                                    . j x &+L W.X.Y.Z.< < < < w.x.y.y.y.y.y.y.g.h.i.j.k.l.1.2.                                  ",
". . . . . . . . . . . . . . . . . . g h i K *+W.X.Y.Z.< < < < w.x.y.y.y.y.y.y.g.h.p.q.r.k.D.E.                      9 8 8 . . . ",
"+ + + + + + + + + + + + + + + + + + h @ v =+-+W.X.Y.Z.5 4 ;+>+e.f.y.y.y.y.y.y.g.h.,+'+Y.Z.{.-                       8 k g j + + ",
"@ @ @ @ @ @ @ @ @ @ @ @ @ @ @ @ @ @ i v # )+!+W.X.Y.Z.4 d ~+{+f.o.y.y.y.y.y.y.g.h.,+'+Y.Z.{.-                       8 g y x @ @ ",
"# # # # # # # # # # # # # # # # # # # w G )+!+W.X.Y.Z.3 c ]+^+y.y.y.y.y.y.y.y.g.h.,+'+Y.Z.{.-                       . j x v # # ",
"# # # w G G G G w # # # # # # # # # # # # K *+W.X.Y.Z.3 c ]+^+y.y.y.y.y.y.y.y.g.h.,+'+Y.Z.{.-                       . j x v # # ",
"@ @ i v # G G # v i @ @ @ @ @ @ @ @ @ @ @ /+(+W.X.Y.Z.3 c ]+^+_+:+<+<+<+<+:+_+g.h.,+'+Y.Z.{.-                       8 g y x @ @ ",
"+ + h @ v w w v @ h + + + + + + + + + + + [+V.W.X.Y.Z.3 c ]+^+:+}+|+|+|+|+}+:+g.h.,+'+Y.Z.{.-                       8 k g j + + ",
". . g h i # # i h g . . . . . . . . . . . ^./.1+2+3+4+4 d 5+6+<+|+/ ( ( / 7+8+9+0+,+'+Y.Z.~ -                       9 8 8 . . . ",
"    . j x v v x j .                       & ' a+1+b+c+5 4 d+e+<+|+( } } ( f+7+g+h+,+'+Y.Z.~ -                                   ",
"    8 g y x x y g 8                       * ) ( / i+j+7.8.4.a.k+l+m+n+n+m+7+f+o+p+q+r+Y.Z.~ -                                   ",
"    8 k g j j g k 8                       = ! } ( s+t+d.7.3.4.u+k+v+w+w+v+8+7+x+o+y+z+Y.Z.~ -                                   ",
"    9 8 8 . . 8 8 9                       - ~ *.&.A+B+C+D+4.3.4.a.E+F+e.f.<+|+G+G+W.X.Y.Z.~ -                                   ",
"                                          - ~ *.&.A+B+H+I+a.4.3.4.F+E+f.o.<+|+G+G+W.X.Y.Z.~ -                                   ",
"                                          - ~ *.&.o+p+J+K+L+M+w.w.e.f.y.y.N+O+( / W.X.Y.Z.~ -                                   ",
"                                          - ~ *.&.x+o+P+J+Q+L+x.x.f.o.y.y.R+S+} ( W.X.Y.Z.~ -                                   ",
"                                          - ~ : _ ( / A+B+h.g.y.y.y.y._+:+v+w+*.&.1+2+T+U+! =                                   ",
"                                          - ~ | : } ( A+B+h.g.y.y.y.y.:+}+m+n+*.&.a+1+V+W+) *                                   ",
"                                          ; { 6 e *.&.o+p+X+Y+<+<+<+<+8+7+&.*.*.&.G+G+[ ^ , %                                   ",
"                                          > ; 7 6 *.&.x+o+Z+`+|+|+|+|+7+f+&.*.*.&.G+G+^ ] % $                                   ",
"                                              - ~ : _ &.&.&.&.&.&.&.&.&.&. @.@+@@@1+a+' &                                       ",
". . . . . . . . . . . 8 8 9                 9 u {.| : *.*.*.*.*.*.*.*.*.*..@ @@@#@2+1+/.^.. . . . . . . . . . . . . . . . . . . ",
"+ + + + + + + + + + j g k 8                 8 $@%@*.*.: | < < < < | : *.*.+@@@&@*@=@-@;@>@+ + + + + + + + + + + + + + + + + + + ",
"@ @ @ @ @ @ @ @ @ @ x y g 8                 8 ,@;@&.&._ : < < < < : _ &.&.@@#@*@'@)@!@~@{@@ @ @ @ @ @ @ @ @ @ @ @ @ @ @ @ @ @ @ ",
"# # # # # # # # # # v x j .                 . U.#+G+G+( } *.*.*.*.]@^@`+Z+y+z+/@(@D E _@:@# # # # # # # # # # # # # # # # # # # ",
"# # # # # # # # # # v x j .                 . U.#+G+G+/ ( &.&.&.&.^@<@Y+X+q+r+[@}@p q _@:@# # w G G G G w # # # # # # # # # # # ",
"@ @ @ @ @ @ @ @ @ @ x y g 8                 8 |@1@%.2@(._.J.Q.3@4@g+9+5@6@7@8@R.Q.9@0@a@b@@ i v # G G # v i @ @ @ @ @ @ @ @ @ @ ",
"+ + + + + + + + + + j g k 8                 8 c@|@d@!._.|.K.R.e@f@h+0+6@g@8@h@K.J.i@j@k@l@+ h @ v w w v @ h + + + + + + + + + + ",
". . . . . . . . . . . 8 8 9                 9 8 8 ^./._.|.(@/@m@n@,+,+n@m@/@(@o@p@q@r@. . s@|@t@/+u@v@i h g . . . . . . . . . . ",
"                                                  & ' (._.}@[@w@m@'+'+m@w@[@}@p@x@! =     % y@V.#+z@A@x j .                     ",
"                                              $ % B@C@^ [ Q.R.D@E@F@F@E@D@R.Q.G@H@{ ;     & a G+G+#+@+y g 8                     ",
"                                              % , C@B@] ^ J.K.I@D@F@F@D@I@K.J.J@K@; >     & a G+G+V.U.g k 8                     ",
"                                              % , , % & ' _.|.L@M@N@N@M@L@o@p@) *         % O@a a y@P@8 8 9                     ",
"                                              $ % % $ & ' (._.Q@L@R@R@L@Q@p@x@! =         $ % & & % $                           ",
"                                                      % , ^ [ _.|.S@S@|._.G@H@{ ;                                               ",
"                                                      $ % ] ^ (._.T@T@_.(.J@K@; >                                               ",
"                                                          % , ' ' ' ' ' ' , %                                                   ",
"                                                          $ % & & & & & & % $                                                   ",
"                                                                                                                                "};
