/* XPM */
static char * floor (copy)_xpm[] = {
"64 64 375 2",
"  	c #755338",
". 	c #704F35",
"+ 	c #674830",
"@ 	c #5D402C",
"# 	c #543927",
"$ 	c #76633A",
"% 	c #7A7D40",
"& 	c #7C8843",
"* 	c #768045",
"= 	c #6D7448",
"- 	c #6A6D4B",
"; 	c #6D6847",
"> 	c #725B3E",
", 	c #84B24F",
"' 	c #89C755",
") 	c #78BA59",
"! 	c #5BA161",
"~ 	c #4F9465",
"{ 	c #5A875C",
"] 	c #7B9E4B",
"^ 	c #7AC05B",
"/ 	c #7CCF61",
"( 	c #82CF60",
"_ 	c #75C463",
": 	c #56AE6A",
"< 	c #43A36E",
"[ 	c #3EA36F",
"} 	c #4E9C66",
"| 	c #6C8D51",
"1 	c #5FB665",
"2 	c #58B269",
"3 	c #68B366",
"4 	c #6BB065",
"5 	c #60A868",
"6 	c #53A46A",
"7 	c #4FAA6A",
"8 	c #75BC5D",
"9 	c #4BA06C",
"0 	c #569A6A",
"a 	c #5B9869",
"b 	c #53AE6A",
"c 	c #6DC464",
"d 	c #725036",
"e 	c #745237",
"f 	c #7A8742",
"g 	c #88C654",
"h 	c #4C866C",
"i 	c #477C6D",
"j 	c #58A869",
"k 	c #6C4C33",
"l 	c #64452F",
"m 	c #5C3F2B",
"n 	c #684931",
"o 	c #6F4E35",
"p 	c #695B33",
"q 	c #70783C",
"r 	c #7A9C49",
"s 	c #81C059",
"t 	c #7AC261",
"u 	c #66A666",
"v 	c #538C69",
"w 	c #43746B",
"x 	c #3B686C",
"y 	c #519966",
"z 	c #627E55",
"A 	c #6F593C",
"B 	c #583C29",
"C 	c #523826",
"D 	c #60432D",
"E 	c #664730",
"F 	c #687539",
"G 	c #7DAF4C",
"H 	c #80BF58",
"I 	c #75B760",
"J 	c #518A6B",
"K 	c #3C6466",
"L 	c #395C64",
"M 	c #57A068",
"N 	c #6B6646",
"O 	c #503625",
"P 	c #667F3A",
"Q 	c #84C553",
"R 	c #82CC60",
"S 	c #68A966",
"T 	c #3A6267",
"U 	c #37565F",
"V 	c #36505B",
"W 	c #539A6A",
"X 	c #43A06E",
"Y 	c #666B4A",
"Z 	c #7DC561",
"` 	c #599469",
" .	c #344A57",
"..	c #334453",
"+.	c #44856E",
"@.	c #3E996F",
"#.	c #685C34",
"$.	c #7C8340",
"%.	c #86A94B",
"&.	c #8CCE57",
"*.	c #323E4F",
"=.	c #3C7B70",
"-.	c #3C9570",
";.	c #4A9868",
">.	c #5F7D56",
",.	c #656444",
"'.	c #645137",
").	c #828642",
"!.	c #ABCA5B",
"~.	c #AFE062",
"{.	c #99DE5E",
"].	c #419E6D",
"^.	c #499868",
"/.	c #57855C",
"(.	c #8F964A",
"_.	c #BDE365",
":.	c #BFF66B",
"<.	c #9FE661",
"[.	c #3B666A",
"}.	c #385760",
"|.	c #354B58",
"1.	c #334252",
"2.	c #385A60",
"3.	c #3B706A",
"4.	c #3C8570",
"5.	c #3C9970",
"6.	c #3CA370",
"7.	c #4E9465",
"8.	c #686C4A",
"9.	c #92984B",
"0.	c #BEE365",
"a.	c #3A6368",
"b.	c #354E5A",
"c.	c #323F50",
"d.	c #35585A",
"e.	c #3A8168",
"f.	c #3C9F70",
"g.	c #8C9448",
"h.	c #B0DC61",
"i.	c #B3F067",
"j.	c #9BE460",
"k.	c #7AC060",
"l.	c #508568",
"m.	c #395D64",
"n.	c #344856",
"o.	c #324451",
"p.	c #335055",
"q.	c #345757",
"r.	c #366A5D",
"s.	c #3A9069",
"t.	c #818C45",
"u.	c #96CE59",
"v.	c #93E05E",
"w.	c #79BD5E",
"x.	c #4E7C62",
"y.	c #37545E",
"z.	c #334554",
"A.	c #377661",
"B.	c #398967",
"C.	c #3B9C6D",
"D.	c #81A44A",
"E.	c #8BCD57",
"F.	c #89D75E",
"G.	c #7FC960",
"H.	c #69A761",
"I.	c #487160",
"J.	c #41A66E",
"K.	c #4BAE6C",
"L.	c #50B16B",
"M.	c #8ED85B",
"N.	c #609F67",
"O.	c #4B7D68",
"P.	c #3E6362",
"Q.	c #6AC465",
"R.	c #7ACF61",
"S.	c #8FDE5D",
"T.	c #36515A",
"U.	c #355558",
"V.	c #60BC67",
"W.	c #7FD260",
"X.	c #387862",
"Y.	c #89DA5E",
"Z.	c #788742",
"`.	c #73843F",
" +	c #87C654",
".+	c #37565D",
"++	c #355659",
"@+	c #6E823D",
"#+	c #85C553",
"$+	c #386261",
"%+	c #397C65",
"&+	c #69803B",
"*+	c #396964",
"=+	c #3B8F6C",
"-+	c #83C552",
";+	c #657F3A",
">+	c #6ABD63",
",+	c #499B66",
"'+	c #647E39",
")+	c #3B6D5C",
"!+	c #514630",
"~+	c #4D583D",
"{+	c #5D8D49",
"]+	c #81C757",
"^+	c #79C85F",
"/+	c #4E9E65",
"(+	c #345256",
"_+	c #387B64",
":+	c #3B946D",
"<+	c #3B9E6F",
"[+	c #A6E562",
"}+	c #B5E464",
"|+	c #AFCB5C",
"1+	c #8B8A47",
"2+	c #50593E",
"3+	c #478159",
"4+	c #55A661",
"5+	c #7CCC5E",
"6+	c #78BC5B",
"7+	c #4B7858",
"8+	c #334854",
"9+	c #375E5E",
"0+	c #397767",
"a+	c #9FB654",
"b+	c #7C693E",
"c+	c #566445",
"d+	c #469264",
"e+	c #54B36C",
"f+	c #86D565",
"g+	c #8BCF64",
"h+	c #64A168",
"i+	c #68AA5D",
"j+	c #446253",
"k+	c #37484F",
"l+	c #435C51",
"m+	c #496652",
"n+	c #5F6847",
"o+	c #4A9365",
"p+	c #5CB76E",
"q+	c #9EE16C",
"r+	c #ADE968",
"s+	c #499464",
"t+	c #395A56",
"u+	c #669856",
"v+	c #77B659",
"w+	c #696545",
"x+	c #57865C",
"y+	c #6AB168",
"z+	c #AEE66D",
"A+	c #79BC5D",
"B+	c #4D785F",
"C+	c #7DC05A",
"D+	c #5A8455",
"E+	c #446255",
"F+	c #3C5A5C",
"G+	c #829F57",
"H+	c #B8E468",
"I+	c #89D45C",
"J+	c #679E5B",
"K+	c #476E5E",
"L+	c #7EC45D",
"M+	c #5E915E",
"N+	c #487C61",
"O+	c #3E8565",
"P+	c #89D55D",
"Q+	c #68A25C",
"R+	c #457058",
"S+	c #C3F86C",
"T+	c #ABEC65",
"U+	c #4AA76A",
"V+	c #3F9368",
"W+	c #5EA769",
"X+	c #A9E16D",
"Y+	c #CBFC6E",
"Z+	c #68B15F",
"`+	c #457559",
" @	c #5B815D",
".@	c #A8D569",
"+@	c #668A58",
"@@	c #A1D265",
"#@	c #81C25B",
"$@	c #95DA5F",
"%@	c #8BD964",
"&@	c #ADEC68",
"*@	c #B7F268",
"=@	c #A7EA64",
"-@	c #6AA35B",
";@	c #507D5F",
">@	c #417865",
",@	c #3D946C",
"'@	c #64BE68",
")@	c #4D7157",
"!@	c #568760",
"~@	c #529667",
"{@	c #439E6D",
"]@	c #5BB968",
"^@	c #6FC764",
"/@	c #7ACB61",
"(@	c #7AC561",
"_@	c #669957",
":@	c #446054",
"<@	c #3D5C58",
"[@	c #518C63",
"}@	c #50A76B",
"|@	c #51936B",
"1@	c #3B5559",
"2@	c #3A6460",
"3@	c #428E69",
"4@	c #617E57",
"5@	c #4C816B",
"6@	c #6AA862",
"7@	c #78BA5C",
"8@	c #78B75A",
"9@	c #797D40",
"0@	c #6A8C50",
"a@	c #4D9C66",
"b@	c #41706B",
"c@	c #497563",
"d@	c #4C735C",
"e@	c #4A6A55",
"f@	c #4D9465",
"g@	c #656B4A",
"h@	c #4C9365",
"i@	c #396D67",
"j@	c #3B916D",
"k@	c #56A060",
"l@	c #626F44",
"m@	c #636A49",
"n@	c #499365",
"o@	c #3B766D",
"p@	c #3B946F",
"q@	c #73B857",
"r@	c #65793E",
"s@	c #606848",
"t@	c #479264",
"u@	c #53976A",
"v@	c #447B6E",
"w@	c #44966E",
"x@	c #3F7B6F",
"y@	c #51845B",
"z@	c #449767",
"A@	c #3F9E6D",
"B@	c #4DAA69",
"C@	c #71BB5C",
"D@	c #7CAF4C",
"E@	c #554F2A",
"F@	c #5F7134",
"G@	c #627236",
"H@	c #5C522D",
"I@	c #6D573B",
"J@	c #587B54",
"K@	c #469768",
"L@	c #4A9B66",
"M@	c #638A4E",
"N@	c #6F783B",
"O@	c #607235",
"P@	c #79AE4B",
"Q@	c #7BAE4B",
"R@	c #6C6747",
"S@	c #3C696D",
"T@	c #3A6067",
"U@	c #59A061",
"V@	c #697246",
"W@	c #7AAE4B",
"X@	c #6D773A",
"Y@	c #3C6C6F",
"Z@	c #647337",
"`@	c #6A7639",
" #	c #6A5B34",
".#	c #44786E",
"+#	c #3F716F",
"@#	c #3D6E70",
"##	c #548D6A",
"$#	c #5BA569",
"%#	c #46A36D",
"                                                                                            . + @ # # @ + .                     ",
"                                                          $ % & & * = - - ; >               . + @ # # @ + .                     ",
"                                                          % , ' ' ) ! ~ ~ { ;               . + @ # # @ + .                     ",
"                                                      $ % ] ^ / ( _ : < [ } | % $           . + @ # # @ + .                     ",
"                                                      % , ^ 1 2 3 4 5 6 < 7 8 , %           . + @ # # @ + .                     ",
"                                                      & ' / 2 9 0 a a 0 9 b c ) *           . + @ # # @ + .                     ",
". . . . . . . . . . . . . . . d d e e d d . . . . . . f g ( 3 0 h i i h 0 j b ! =   e d d . k l m # # m l k . . . . . . . . . . ",
"+ + + + + + + + + + + + + + n k o d d o k n + + + p q r s t u v w x x w v 0 9 y z ; A o k n l @ B C C B @ l + + + + + + + + + + ",
"@ @ @ @ @ @ @ @ @ @ @ @ @ @ D E k d d k E D @ @ @ F G H I u J w K L L K w h 0 M y { N k E D m B # O O # B m @ @ @ @ @ @ @ @ @ @ ",
"# # # # # # # # # # # # # # B D n . . n D B # # # P Q R S v w T U V V U T w v W X ~ Y n D B # C O O O O C # # # # # # # # # # # ",
"# # # # # # # # # # # # # # B D n . . n D B # # # P Q Z ` w K U  ..... .U K w +.@.~ Y n D B # # # # # # # # # # # # # # # # # # ",
"@ @ @ @ @ @ @ @ @ @ @ @ @ @ D E k d d k E D @ #.$.%.&.t J x L V ..*.*...V L x =.-.;.>.,.'.D @ @ @ @ @ @ @ @ @ @ @ @ @ @ @ @ @ @ ",
"+ + + + + + + + + + + + + + n k o d d o k n + ).!.~.{.t J x L V ..*.*...V L x =.-.].^./.,.n + + + + + + + + + + + + + + + + + + ",
". . . . . . . . . . . . . . . d d e e d d . . (._.:.<.t J [.}.|.1.*.*.1.|.2.3.4.5.6.6.7.8.. . . . . . . . . . . . . . . . . . . ",
"                                              9.0.:.<.t J a.b.1.c.*.*.c.1.d.e.5.f.6.6.~ -                                       ",
"                                              g.h.i.j.k.l.m.n.*.*.o.p.q.q.r.s.6.6.6.6.~ -                                       ",
"                                              t.u.j.v.w.x.y.z.*.*.p.A.B.B.s.C.6.6.6.6.~ -                                       ",
"                                          $ % D.E.F.G.H.I.V ..o.p.r.s.6.6.J.K.L.L.L.L.! =                                       ",
"                                          % , E.M.G.N.O.P.V ..p.A.s.C.6.6.K.Q.R.R.R.R.) *                                       ",
"                                          & ' S.S.k.l.T U T.U.r.s.J.K.L.L.V.W.S.S.S.S.E.D.% $                                   ",
"                                          & ' S.S.w.x.U  .U.X.s.C.K.Q.R.R.W.Y.S.S.S.S.M.E., %                                   ",
"                                          & ' F.G.H.I.V ..q.B.J.K.V.W.S.S.S.S.S.S.S.S.S.S.' &                                   ",
"                                    e d d Z.g G.N.O.P.V ..q.B.K.Q.W.Y.S.S.S.S.S.S.S.S.S.S.' &                                   ",
"                                    d o k `. +t J x L .+++r.s.L.R.Y.W.R.R.R.R.W.Y.S.S.S.S.' &                                   ",
"                                    d k E @+#+t J x L $+%+s.C.L.R.W.V.L.L.L.L.V.W.S.S.S.S.' &                                   ",
"                                    . n D &+Q t J x L *+=+J.K.V.W.R.L.6.6.6.6.K.Q.W.Y.S.S.' & $ % & & % $                       ",
". . . . . . . . . . . . . . . . . . k l m P -+t J x L *+=+K.Q.W.Y.R.L.6.6.6.6.J.K.V.W.S.S.' & % , ' ' , %           e d d . . . ",
"+ + + + + + + + + + + + + + + + + + l @ B ;+-+t J x L *+=+L.R.Y.W.>+,+B.B.B.B.s.C.K.Q.W.Y.g & & ' v.j.u.t.          d o k n + + ",
"@ @ @ @ @ @ @ @ @ @ @ @ @ @ @ @ @ @ m B # '+-+t J x L *+=+L.R.W.V.,+)+q.q.q.q.r.s.J.K.V.W.g & & ' j.i.h.g.          d k E D @ @ ",
"# # # # # # # # # # # # # # # # # # # !+~+{+]+t J x L *+=+L.R.^+/+A.p.*.*.*.*.(+_+:+<+L.R.g & t.u.[+}+|+1+          . n D B # # ",
"# # # C O O O O C # # # # # # # # # # 2+3+4+5+t J x L *+=+L.R.6+7+p.o.*.*.*.*.8+9+0+:+L.R.g & g.h.}+a+1+b+          . n D B # # ",
"@ @ m B # O O # B m @ @ @ @ @ @ @ @ @ c+d+e+f+g+h+O.P.*+=+K.Q.i+j+k+l+m+m+l+k+..V *+=+L.R.g & 1+|+|+1+              d k E D @ @ ",
"+ + l @ B C C B @ l + + + + + + + + + n+o+p+q+r+g+H.I.*+=+J.K.s+t+l+u+v+v+u+l+..V *+=+L.R.g & b+1+1+b+              d o k n + + ",
". . k l m # # m l k . . . . . . . . . w+x+y+z+:.<.A+B+*+=+6.6.B.q.j+i+W.Y.C+D+E+F+*+=+L.R.' &                       e d d . . . ",
"    . n D B B D n .                   > ; G+H+:.<.A+B+*+=+6.6.B.q.t+s+V.W.I+C+J+K+*+=+L.R.' &                                   ",
"    d k E D D E k d                       9.0.:.<.L+M+N+O+s.C.s.r.r.s.e+f+j.v.A+B+*+=+L.R.' &                                   ",
"    d o k n n k o d                       9.0.:.<.P+L+Q+R+r.s.C.s.s.C.p+q+i.j.A+B+*+=+L.R.' &                                   ",
"    e d d . . d d e                       9.0.S+T+j.v.C+D+7+/+U+V+B.B.W+X+:.<.A+B+*+=+L.R.' &                                   ",
"                                          9.0.Y+S+i.j.I+C+6+^+Z+`+q.q. @.@:.<.A+B+*+=+L.R.' &                                   ",
"                                          g.h.S+Y+S+T+<.<.j.v.C+D+m+m++@@@i.j.A+B+*+=+L.R.' &                                   ",
"                                          t.u.T+S+Y+S+:.:.i.j.I+C+v+v+#@$@j.v.A+B+*+=+L.R.' &                                   ",
"                                          * ) %@&@:.:.:.:.*@=@<.<.j.v.S.S.I+C+-@;@>@,@K.Q.) *                                   ",
"                                          = ! '@%@<.<.<.<.=@*@:.:.i.j.S.S.C+D+)@!@~@{@J.K.! =                                   ",
"                                          = ! ]@^@/@(@G.F.j.i.:.:.i.j.I+C+_@:@<@[@6 < ].;.{ ;                                   ",
"                                          * ) ^@]@}@|@N.G.v.j.<.<.j.v.C+D+:@1@2@3@< [ ;.4@; >                                   ",
"                                          % , 8 7 -.=.5@6@7@8@v+v+v+v+u+l+..V *+=+6.6.~ -                                       ",
". . . . . . . . . . . d d e               $ 9@0@a@-.=.b@c@d@e@m+m+m+m+l+k+..V *+=+6.6.f@Y . . . . . . . . . . . . . . . . . . . ",
"+ + + + + + + + + + n k o d                 d g@h@@.+.w K y.z.*.*.*.*.*.*.z.y.i@j@J.K.k@l@+ + + + + + + + + + + + + + + + + + + ",
"@ @ @ @ @ @ @ @ @ @ D E k d                 d m@n@X W v w m.n.*.*.*.*.*.*.n.m.o@p@K.Q.q@r@@ @ @ @ @ @ @ @ @ @ @ @ @ @ @ @ @ @ @ ",
"# # # # # # # # # # B D n .                 . s@t@< 6 u@v@a.b.1.c.*.*.c.1.b.a.=.-.L.R.-+P # # # # # # # # # # # # # # # # # # # ",
"# # # # # # # # # # B D n .                 . s@t@[ < w@x@[.}.|.1.*.*.1.|.}.[.=.-.L.R.-+P # # C O O O O C # # # # # # # # # # # ",
"@ @ @ @ @ @ @ @ @ @ D E k d       > ; - - ; A ,.y@z@A@@.+.w K U  ..... .U K w +.@.B@C@D@F @ m B # E@F@G@H@m @ @ @ @ @ @ @ @ @ @ ",
"+ + + + + + + + + + n k o d       ; { ~ ~ { N I@,.J@K@X W v w T U V V U T w v W X L@M@N@p + l @ B O@P@Q@F l + + + + + + + + + + ",
". . . . . . . . . . . d d e       - ~ ].;.{ R@d d Y f@< 6 u@v@S@T@L L T@S@v@u@j b U@V@. . . k l m G@W@D@X@k . . . . . . . . . . ",
"                                  - ~ ;.4@; >     - ~ [ < w@x@Y@S@x x S@Y@x@w@b c ) *       . n D H@Z@`@ #.                     ",
"                                  ; { { ;         ; { ;.].@.+..#+#@#@#+#.#+.@.7 8 , %       d k E D D E k d                     ",
"                                  > ; ; >         > ; 4@;.X W ##.#@#@#.###W X } | % $       d o k n n k o d                     ",
"                                                      - ~ < 6 0 h i i h 0 j b ! =           e d d . . d d e                     ",
"                                                      - ~ [ < 9 0 a a 0 9 b c ) *                                               ",
"                                                      ; { ;.].< 6 $#$#6 < 7 8 , %                                               ",
"                                                      > ; 4@;.[ < %#%#< [ } | % $                                               ",
"                                                          ; { ~ ~ ~ ~ ~ ~ { ;                                                   ",
"                                                          > ; - - - - - - ; >                                                   ",
"                                                                                                                                "};
